<?xml version="1.0" standalone="no"?>
<!DOCTYPE svg PUBLIC "-//W3C//DTD SVG 1.1//EN" "http://www.w3.org/Graphics/SVG/1.1/DTD/svg11.dtd" >
<svg xmlns="http://www.w3.org/2000/svg">
<metadata></metadata>
<defs>
<font id="doves_typeimprint" horiz-adv-x="687" >
<font-face units-per-em="1000" ascent="721" descent="-279" />
<missing-glyph horiz-adv-x="180" />
<glyph unicode="ff" horiz-adv-x="515" d="M319 325h-172v-270q0 -10 8 -10h44q4 0 4 -5v-36q0 -4 -5 -4h-174q-4 0 -4 4v36q0 5 4 5h48q8 0 8 10l4 270h-56q-5 0 -5 5v35q0 5 5 5h56v45q0 92 57 144t137 52q40 0 80 -33q20 29 53.5 46.5t70.5 17.5q40 0 68 -11t28 -34q0 -21 -11 -31.5t-34 2.5q-80 55 -123 22 q-8 -6 -13.5 -16t-8.5 -18.5t-4.5 -25t-2 -24t0 -28t0.5 -26.5v-82h109q4 0 4 -4v-37q0 -4 -4 -4h-109q0 -211 1 -270q0 -10 9 -10h55q5 0 5 -5v-36q0 -4 -5 -4h-176q-4 0 -4 4v36q0 5 4 5h37q8 0 8 10q3 174 3 270zM328 514q-9 9 -11 12q-28 33 -56.5 44t-47 6t-33.5 -19 q-20 -19 -26.5 -48.5t-6.5 -88.5v-50h172v61q0 50 9 83z" />
<glyph unicode="fl" horiz-adv-x="476" d="M328 494q0 59 -15 87.5t-59 28.5q-56 0 -82.5 -44.5t-26.5 -103.5v-92h110q4 0 4 -4v-37q0 -4 -5 -4h-109q0 -211 1 -270q0 -10 9 -10h37q5 0 5 -5v-36q0 -4 -5 -4h-168q-4 0 -4 4v36q0 5 4 5h47q8 0 8 10q3 174 3 270h-57q-4 0 -4 4v37q0 4 5 4h56v77q0 92 56 144 t144 52q60 0 85.5 -36t25.5 -103q0 -401 1 -449q0 -10 7 -10h44q5 0 5 -5v-36q0 -4 -5 -4h-162q-5 0 -5 4v36q0 5 5 5h36q7 0 7 11q2 37 2 438z" />
<glyph unicode="ffl" horiz-adv-x="722" d="M146 370h173h11v51q0 46 14 85q-24 16 -28 21q-29 34 -57.5 45.5t-47 5.5t-32.5 -20q-33 -34 -33 -137v-51zM569 500q0 49 -15 74.5t-55 25.5q-38 0 -63.5 -28.5t-34.5 -63.5t-8 -73v-65h109q4 0 4 -4v-37q0 -4 -5 -4h-108q0 -211 1 -270q0 -10 9 -10h56q5 0 5 -5v-36 q0 -4 -5 -4h-188q-4 0 -4 4v36q0 5 4 5h48q8 0 8 10q3 174 3 270h-7h-177v-270q0 -10 8 -10h59q4 0 4 -5v-36q0 -4 -5 -4h-188q-4 0 -4 4v36q0 5 4 5h47q8 0 8 10l4 270h-56q-5 0 -5 5v37q0 3 5 3h56v55q0 92 55 139.5t139 47.5q25 0 52.5 -15t44.5 -36q56 72 153 72 q107 0 107 -125q0 -405 1 -453q0 -10 7 -10h49q5 0 5 -5v-36q0 -4 -5 -4h-167q-5 0 -5 4v36q0 5 5 5h36q7 0 7 11q2 37 2 444z" />
<glyph horiz-adv-x="0" />
<glyph horiz-adv-x="0" />
<glyph unicode="&#xd;" horiz-adv-x="152" />
<glyph unicode=" "  horiz-adv-x="180" />
<glyph unicode="&#x09;" horiz-adv-x="180" />
<glyph unicode="&#xa0;" horiz-adv-x="180" />
<glyph unicode="!" horiz-adv-x="204" d="M144 576q-4 -100 -24 -363q-2 -16 -13 -16t-13 16q-2 17 -14.5 167.5t-12.5 161.5q0 12 10 17q34 18 52 27q7 4 11.5 1.5t3.5 -11.5zM162 43q-31 -16 -46 -54q-3 -7 -9 -7t-9 7q-15 38 -46 54q-7 3 -7 9t7 9q31 16 46 54q3 7 9 7t9 -7q15 -38 46 -54q7 -3 7 -9t-7 -9z " />
<glyph unicode="&#x22;" horiz-adv-x="288" d="M123 621q-10 -55 -28 -149q-2 -11 -10 -11t-10 11q-18 94 -28 149q-4 20 7 20h62q11 0 7 -20zM241 621q-10 -55 -28 -149q-2 -11 -10 -11t-10 11q-18 94 -28 149q-4 20 7 20h62q11 0 7 -20z" />
<glyph unicode="#" horiz-adv-x="452" d="M266 213l27 133h-87l-28 -133h88zM133 -1q-1 -7 -8 -7h-28q-7 0 -5 8l37 174h-93q-6 0 -5 6l7 28q1 5 7 5h93l27 133h-90q-10 0 -8 9l6 25q1 6 8 6h93l34 164q1 7 8 7h27q7 0 5 -8l-34 -163h88l34 164q1 7 8 7h27q7 0 5 -8l-34 -163h89q7 0 5 -6l-7 -28q-1 -6 -9 -6h-86 l-28 -133h91q8 0 6 -7q-1 -9 -6 -27q-2 -5 -9 -5h-91l-36 -175q-1 -7 -8 -7h-27q-7 0 -5 8l36 174h-88q-33 -160 -36 -175z" />
<glyph unicode="$" horiz-adv-x="460" d="M204 347l8 209q-48 0 -78 -27t-30 -63q0 -57 58 -94q22 -14 42 -25zM239 252l-8 -217q43 6 70 32t27 70q0 56 -67 101q-10 7 -22 14zM373 433q0 -11 -9 -11q-12 0 -14 10q-17 62 -68 104q-14 11 -31 15l-9 -224q2 -1 9.5 -5t11.5 -6q132 -74 132 -167q0 -61 -48.5 -103 t-117.5 -48l-4 -112q0 -4 -4 -4h-31q-4 0 -4 4l3 111q-30 3 -49 9q-7 2 -17 6t-17 6t-13 2q-13 0 -25 -16q-5 -7 -13 -7q-9 0 -9 10q-5 93 -11 160q-1 12 9 12t13 -9q33 -117 134 -135l9 238q-8 4 -23 13t-23 13q-54 31 -79.5 63.5t-25.5 85.5q0 64 48 102.5t116 40.5l3 75 q0 5 4 5h32q4 0 4 -5l-4 -78q10 -1 28 -7q4 -1 19 -7.5t25 -9.5q6 -2 10.5 0.5t7 6.5t6 10t5.5 8q4 7 15 4q5 -1 5 -9q-2 -114 0 -151z" />
<glyph unicode="%" horiz-adv-x="719" d="M526 -1q-49 0 -82.5 32.5t-33.5 83.5q0 52 33.5 84.5t82.5 32.5t81 -32.5t32 -84.5t-32 -84t-81 -32zM195 307q-48 0 -82 33t-34 84q0 52 33.5 84.5t82.5 32.5q48 0 81 -32.5t33 -84.5t-33 -84.5t-81 -32.5zM525 203q-33 0 -50 -24t-17 -64t17 -64t50 -24q32 0 50 24.5 t18 63.5q0 40 -18 64t-50 24zM193 513q-32 0 -49 -24.5t-17 -64.5t17 -64t49 -24t50 24.5t18 63.5q0 40 -18 64.5t-50 24.5zM120 20q1 1 114.5 130t229.5 260t120 136q4 6 8 2l23 -20q3 -3 -1 -7q-68 -79 -465 -527q-3 -4 -6 -1l-24 21q-3 2 1 6z" />
<glyph unicode="&#x26;" horiz-adv-x="605" d="M165 -8q-61 0 -102.5 45.5t-41.5 102.5q0 61 38.5 109.5t91.5 66.5q-54 34 -54 91q0 47 33.5 82t82.5 35q51 0 80.5 -27t29.5 -67q0 -29 -24.5 -58t-55.5 -43q64 -35 90 -62.5t51 -85.5q38 49 65 107t35 105q1 9 -0.5 10.5t-10.5 1.5h-29q-5 0 -5 5v35q0 5 5 5h143 q5 0 5 -5v-35q0 -5 -5 -5h-33q-9 0 -11.5 -3t-6.5 -16q-37 -124 -136 -241q45 -92 100 -92q28 0 48 14q7 5 11 5q10 0 5 -12q-12 -25 -38.5 -46.5t-55.5 -21.5q-44 0 -74.5 33t-43.5 68q-103 -101 -187 -101zM145 425v-6t4 -14.5t10.5 -20.5t22 -22.5t36.5 -21.5 q24 10 39 33.5t15 45.5q0 30 -20 52.5t-48 22.5q-31 0 -45 -21t-14 -48zM339 132q-51 127 -165 166q-46 -9 -75.5 -47.5t-29.5 -76.5q0 -46 35 -78t91 -32q73 0 144 68z" />
<glyph unicode="'" horiz-adv-x="170" d="M123 621l-28 -149q-2 -11 -10 -11t-10 11l-28 149q-4 20 7 20h62q11 0 7 -20z" />
<glyph unicode="(" horiz-adv-x="242" d="M85 194q0 -212 103 -353q11 -16 -1 -25q-11 -8 -24 5q-54 61 -92 156t-38 217t38.5 216.5t91.5 154.5q12 14 24 5q5 -4 5 -11.5t-5 -12.5q-102 -142 -102 -352z" />
<glyph unicode=")" horiz-adv-x="242" d="M157 194q0 211 -103 352q-10 15 1 24q12 9 24 -5q53 -60 91.5 -154.5t38.5 -216.5t-38 -217t-92 -156q-13 -13 -24 -5q-12 9 -1 25q103 141 103 353z" />
<glyph unicode="*" horiz-adv-x="440" d="M386 430q-30 2 -73 4.5t-57 3.5q23 -22 97 -86q7 -7 6.5 -16.5t-6.5 -15.5q-18 -16 -32 0q-22 25 -50 56.5l-36 40.5q1 -13 3.5 -55.5t4.5 -74.5q1 -9 -6.5 -16t-16.5 -7t-16 7t-6 16q5 80 7 130q-8 -9 -36.5 -40.5t-49.5 -56.5q-6 -7 -15.5 -6.5t-16.5 6.5 q-6 6 -6.5 15.5t6.5 16.5q72 63 98 86q-12 -1 -55 -3.5t-75 -4.5q-10 -1 -16.5 6t-6.5 17q0 9 6.5 16t16.5 6q77 -5 130 -7q-10 9 -42 37l-56 49q-7 6 -7 15.5t7 16.5t16.5 7t15.5 -7q69 -79 87 -98q-1 13 -3.5 55.5t-4.5 74.5q-1 10 6 16.5t16 6.5t16.5 -7t6.5 -16 q-2 -30 -4.5 -73t-3.5 -57q9 10 37 42.5t49 55.5q6 7 15.5 7t16.5 -7t7 -16.5t-7 -15.5q-66 -58 -97 -87q13 1 55.5 3.5t74.5 4.5q9 1 15.5 -6t6.5 -16q0 -10 -6.5 -17t-15.5 -6z" />
<glyph unicode="+" horiz-adv-x="587" d="M274 4v167h-170q-4 0 -4 4v31q0 4 4 4h170v172q0 5 4 5h31q4 0 4 -5v-172h169q5 0 5 -4v-31q0 -4 -5 -4h-169v-167q0 -4 -4 -4h-31q-4 0 -4 4z" />
<glyph unicode="," horiz-adv-x="189" d="M44 43q-6 3 -6 9q0 4 7 9q23 15 38 54q3 7 9 7t9 -7q16 -39 46 -54q7 -3 7 -9t-7 -9q-22 -10 -29 -39q-6 -27 -22 -54.5t-41 -38.5q-14 -5 -18 3q-4 9 5 16q34 27 34 62q0 11 -7.5 27t-24.5 24z" />
<glyph unicode="-" horiz-adv-x="313" d="M45 158q-6 0 -8.5 4t0.5 8q12 22 19 35q5 8 13 8h201q14 0 8 -11q-12 -24 -19 -36q-4 -8 -12 -8h-202z" />
<glyph unicode="." horiz-adv-x="194" d="M152 43q-31 -16 -46 -54q-3 -7 -9 -7t-9 7q-15 38 -46 54q-7 3 -7 9t7 9q31 16 46 54q3 7 9 7t9 -7q15 -38 46 -54q7 -3 7 -9t-7 -9z" />
<glyph unicode="/" horiz-adv-x="406" d="M28 -59l315 730q2 4 6 2l28 -15q3 -2 1 -6l-315 -730q-1 -3 -5 -1l-28 14q-4 2 -2 6z" />
<glyph unicode="0" horiz-adv-x="457" d="M233 23q64 0 91.5 47.5t27.5 115.5q0 69 -30 114.5t-92 45.5t-93.5 -45.5t-31.5 -114.5q0 -66 32 -114.5t96 -48.5zM422 186q0 -80 -56 -137t-136 -57q-84 0 -139.5 56.5t-55.5 137.5q0 79 58 135t137 56q80 0 136 -55.5t56 -135.5z" />
<glyph unicode="1" horiz-adv-x="336" d="M129 35q7 0 7 11v285q0 11 -7 11h-44q-5 0 -5 4v26q0 5 5 5h166q5 0 5 -5v-26q0 -4 -5 -4h-43q-8 0 -8 -11v-285q0 -11 7 -11h44q5 0 5 -5v-26q0 -4 -5 -4h-166q-5 0 -5 4v26q0 5 5 5h44z" />
<glyph unicode="2" horiz-adv-x="377" d="M40 40q117 52 170 97.5t53 105.5q0 38 -28.5 69t-71.5 31q-31 0 -60 -16.5t-44 -45.5q-5 -11 -14 -7q-10 3 -5 16q16 44 55.5 71.5t98.5 27.5q62 0 100 -38t38 -92q0 -65 -48.5 -115.5t-181.5 -98.5q78 0 114 1q45 2 67 9.5t35 24.5q9 12 16 12q12 0 6 -16l-46 -119 q-3 -8 -13 -8q-11 0 -7 9q12 33 -1 38q-16 5 -82 5l-151 -1q-5 0 -5 4v29q0 5 5 7z" />
<glyph unicode="3" horiz-adv-x="363" d="M92 45q70 27 132 27q50 0 77 -28t27 -70q0 -72 -66 -142t-181 -106q-15 -5 -16 7q-1 11 12 16q91 40 136.5 91.5t45.5 101.5q0 91 -106 91q-48 0 -107 -26q-11 -5 -11 3v19q0 5 5 8q103 64 155.5 113.5t52.5 105.5q0 33 -22.5 60t-63.5 27q-56 0 -99 -38q-10 -9 -17 -2 t3 19q60 67 141 67q61 0 94 -31.5t33 -81.5q0 -113 -225 -231z" />
<glyph unicode="4" horiz-adv-x="419" d="M253 384h33q7 0 7 -8v-331q16 0 46 2q21 2 30 3.5t17.5 8t15.5 20.5q3 4 8 4q7 0 7 -8q-1 -48 -1 -70q0 -5 -5 -5h-118l1 -249q0 -10 -9 -10h-51q-9 0 -9 10q3 152 4 249h-188q-6 0 -6 8v46q0 6 2 9q164 258 196 305q10 16 20 16zM233 325q-141 -220 -167 -261 q-4 -6 -4 -10v-4q0 -5 4 -5h163q0 22 4 280z" />
<glyph unicode="5" horiz-adv-x="357" d="M84 325l-20 -100q138 -18 194 -75.5t56 -144.5q0 -83 -75 -167.5t-175 -101.5q-14 -3 -16 7q-2 11 16 18q86 33 132.5 100.5t46.5 130.5q0 90 -50 139.5t-150 64.5q-9 1 -7 10l32 166q1 5 8 5h162q28 1 39 9t24 39q4 10 12 10q9 0 8 -11q-2 -16 -7.5 -50t-7.5 -44 q-1 -5 -6 -5h-216z" />
<glyph unicode="6" horiz-adv-x="395" d="M382 578q8 -6 7 -11q-2 -5 -11 -6q-123 -12 -214.5 -104.5t-91.5 -218.5q21 62 67.5 101.5t80.5 39.5q51 0 97 -52.5t46 -133.5q0 -82 -51 -141.5t-119 -59.5q-78 0 -118 68t-40 169q0 113 66 220.5t198 167.5q10 5 20 0q21 -11 63 -39zM195 23q40 0 65.5 27t34 59.5 t8.5 68.5q0 54 -29 95.5t-76 41.5q-48 0 -82 -41t-34 -99q0 -56 31.5 -104t81.5 -48z" />
<glyph unicode="7" horiz-adv-x="386" d="M324 316q5 9 -4 9q-145 0 -231 -7q-19 -1 -29.5 -9.5t-31.5 -33.5q-7 -8 -13 -4q-7 4 -3 15l27 83q3 8 12 8h319q6 0 6 -7v-27q0 -4 -11 -28q-162 -348 -271 -568q-6 -10 -21 -10h-53q-17 0 -5 19z" />
<glyph unicode="8" horiz-adv-x="427" d="M327 488q0 44 -31.5 73t-84.5 29q-49 0 -81 -33.5t-32 -83.5q0 -44 40.5 -78t96.5 -54q45 27 68.5 66.5t23.5 80.5zM328 140q0 48 -36 87.5t-105 63.5q-42 -27 -70.5 -66t-28.5 -78q0 -52 33 -88t95 -36q52 0 82 32.5t30 84.5zM204 -8q-70 0 -119.5 40t-49.5 106 q0 95 119 166q-48 22 -77.5 64t-29.5 91q0 69 51.5 115.5t120.5 46.5q65 0 111.5 -38.5t46.5 -101.5q0 -47 -33.5 -87.5t-78.5 -66.5q58 -26 92.5 -73t34.5 -99q0 -63 -51.5 -113t-136.5 -50z" />
<glyph unicode="9" horiz-adv-x="392" d="M69 -245q73 45 125 100.5t77.5 108.5t36.5 96.5t11 82.5q-21 -61 -66.5 -95.5t-97.5 -34.5q-57 0 -88.5 49t-31.5 119q0 85 49 146.5t115 61.5q65 0 111.5 -60.5t46.5 -168.5q0 -103 -42.5 -212.5t-135.5 -194.5q-17 -16 -32 -19q-9 -2 -44 -6t-47 -4q-10 0 -10 8 q0 9 23 23zM313 202q0 55 -36 90.5t-92 34.5q-51 -1 -81.5 -36.5t-30.5 -89.5q0 -51 31 -89t80 -38q50 0 89.5 36.5t39.5 91.5z" />
<glyph unicode=":" horiz-adv-x="194" d="M152 43q-31 -16 -46 -54q-3 -7 -9 -7t-9 7q-15 38 -46 54q-7 3 -7 9t7 9q31 16 46 54q3 7 9 7t9 -7q15 -38 46 -54q7 -3 7 -9t-7 -9zM152 309q-31 -16 -46 -54q-3 -7 -9 -7t-9 7q-15 38 -46 54q-7 3 -7 9t7 9q31 16 46 54q3 7 9 7t9 -7q15 -38 46 -54q7 -3 7 -9t-7 -9z " />
<glyph unicode=";" horiz-adv-x="194" d="M49 43q-6 3 -6 9q0 4 7 9q23 15 38 54q3 7 9 7t9 -7q16 -39 46 -54q7 -3 7 -9t-7 -9q-22 -10 -29 -39q-6 -27 -22 -54.5t-41 -38.5q-14 -5 -18 3q-4 9 5 16q34 27 34 62q0 11 -7.5 27t-24.5 24zM97 248q-6 0 -9 7q-15 38 -46 54q-7 3 -7 9t7 9q31 16 46 54q3 7 9 7t9 -7 q15 -38 46 -54q7 -3 7 -9t-7 -9q-31 -16 -46 -54q-3 -7 -9 -7z" />
<glyph unicode="&#x3c;" horiz-adv-x="403" d="M35 171v28q0 6 5 9q4 2 162 80.5t162 81.5q4 2 4 -3v-37q0 -2 -4 -5q-236 -118 -282 -140q276 -138 282 -140q4 -3 4 -6v-36q0 -5 -4 -3q-4 3 -162 81.5t-162 80.5q-5 3 -5 9z" />
<glyph unicode="=" horiz-adv-x="587" d="M104 293h378q5 0 5 -4v-32q0 -4 -5 -4h-378q-4 0 -4 4v32q0 4 4 4zM104 130h378q5 0 5 -4v-31q0 -4 -5 -4h-378q-4 0 -4 4v31q0 4 4 4z" />
<glyph unicode="&#x3e;" horiz-adv-x="403" d="M368 171q0 -6 -5 -9q-4 -2 -162 -80.5t-162 -81.5q-4 -2 -4 3v36q0 3 4 6q6 2 282 140q-46 22 -282 140q-4 3 -4 5v37q0 5 4 3q4 -3 162 -81.5t162 -80.5q5 -3 5 -9v-28z" />
<glyph unicode="?" horiz-adv-x="273" d="M236 469q0 -10 -2.5 -19.5t-7.5 -17.5t-8.5 -14t-12.5 -12.5t-14 -10t-17.5 -10t-17.5 -8.5t-20 -9t-20 -9q-29 -13 -39.5 -38.5t0.5 -53.5q4 -9 9.5 -10t15.5 1.5t14 2.5q12 0 20.5 -9.5t8.5 -23.5t-11.5 -24t-26.5 -10q-30 0 -46 30.5t-16 72.5q0 70 27 103 q16 17 60 38.5t61 41.5q11 13 17 93q1 17 13 17q11 0 13 -17q3 -45 0 -104zM107 -18q-6 0 -9 7q-15 38 -46 54q-7 3 -7 9t7 9q31 16 46 54q3 7 9 7t9 -7q15 -38 46 -54q7 -3 7 -9t-7 -9q-31 -16 -46 -54q-3 -7 -9 -7z" />
<glyph unicode="@" horiz-adv-x="763" d="M426 87q8 37 24 100t22 89q-9 19 -29.5 32t-38.5 13q-53 0 -96.5 -46t-44.5 -127q-2 -105 75 -105q42 0 88 44zM558 351l-62 -257q-6 -25 2 -39.5t29 -14.5q56 0 105.5 70t49.5 171q0 103 -70 170t-182 67q-99 0 -177 -54.5t-117.5 -138t-39.5 -176.5q0 -139 86 -224 t219 -85q128 0 217 69q4 4 7 1l12 -16q2 -3 -2 -7q-101 -82 -236 -82q-151 0 -251.5 99.5t-100.5 254.5q0 167 111.5 278.5t269.5 111.5q139 0 213.5 -80.5t74.5 -194.5q0 -63 -26 -126t-81 -109.5t-125 -46.5q-29 0 -45.5 17t-18.5 46q-76 -64 -134 -64q-48 0 -68.5 35.5 t-20.5 81.5q0 96 59 169.5t141 73.5q59 0 85 -30l8 30q2 6 6 6h58q6 0 4 -6z" />
<glyph unicode="A" horiz-adv-x="684" d="M218 252h219q-72 186 -111 290q-6 -16 -108 -290zM508 67q-1 4 -7.5 20.5t-20.5 52t-25 64.5h-255q-14 -36 -31 -83t-23 -61q-3 -5 -0.5 -8t5.5 -3.5t8 -0.5h41q5 0 5 -5v-38q0 -5 -5 -5h-165q-5 0 -5 5v38q0 5 5 5h40q13 0 18 14q6 17 105 275t108 281q2 3 4 3h57 q3 0 4 -3q10 -26 102 -262t116 -299q3 -9 12 -9h48q5 0 5 -5v-38q0 -5 -5 -5h-192q-4 0 -4 5v38q0 5 4 5h45q7 0 8.5 3t-2.5 16z" />
<glyph unicode="B" horiz-adv-x="548" d="M325 293q-44 7 -152 7q0 -149 2 -253q127 0 150 2q53 5 84.5 38t31.5 76q0 45 -30.5 83.5t-85.5 46.5zM303 564l-128 1q-2 -90 -2 -222q98 0 136 7q57 11 86 42.5t29 72.5q0 36 -29.5 66t-91.5 33zM301 0h-266q-5 0 -5 5v38q0 5 5 5h59q8 0 8 9q1 44 1 346q0 117 -1 152 q0 9 -8 9h-59q-5 0 -5 5v38q0 5 5 5q180 -2 258 -2q92 0 145 -39.5t53 -96.5q0 -50 -34 -90t-96 -60q70 -15 111 -57.5t41 -102.5q0 -67 -56 -115.5t-156 -48.5z" />
<glyph unicode="C" horiz-adv-x="609" d="M497 591q18 -9 27 -6.5t22 23.5q4 5 10 5q10 0 10 -8q4 -71 13 -145q1 -11 -10 -11q-9 0 -18 16q-29 50 -85 82t-124 32q-103 0 -168 -73t-65 -181q0 -116 69 -199t179 -83q111 0 173 85q10 14 23 39q5 9 14 9q11 0 9 -9q-6 -54 -14 -110q-1 -8 -8 -12q-36 -21 -98 -37 t-105 -16q-135 0 -226.5 89.5t-91.5 223.5q0 139 87 227.5t226 88.5q77 0 151 -30z" />
<glyph unicode="D" horiz-adv-x="719" d="M351 564l-176 1q-2 -105 -2 -162l2 -355h152q130 0 207 66.5t77 186.5q0 50 -14.5 94.5t-44 83.5t-81.5 62t-120 23zM34 48h59q9 0 9 8q1 33 1 347l-1 152q0 9 -7 9h-55q-4 0 -4 5v39q0 4 4 4h319q148 0 238 -83t90 -228q0 -141 -100 -221t-254 -80h-299q-4 0 -4 4v39 q0 5 4 5z" />
<glyph unicode="E" horiz-adv-x="565" d="M502 5q-1 -5 -8 -5h-459q-5 0 -5 5v38q0 5 5 5h61q7 0 7 9q0 11 0.5 139t0.5 207q0 116 -1 151q0 10 -8 10h-60q-5 0 -5 4v39q0 5 5 5h470q5 0 5 -6q0 -65 3 -125q1 -11 -10 -11q-10 0 -15.5 14.5t-8.5 32.5t-19.5 32.5t-45.5 14.5h-239v-237q37 0 121.5 1.5t105.5 1.5 l1 66q0 5 4 5h35q5 0 5 -5v-5q0 -5 -0.5 -14t-0.5 -20v-25.5v-27.5v-43v-35l1 -14q0 -5 -5 -5h-35q-4 0 -4 5q-1 9 -1 26v43q-20 0 -104.5 1t-122.5 1v-235h158q90 0 129 24q26 15 49 64q5 9 14 9q12 0 9 -12q-1 -5 -5 -20t-12 -48t-15 -60z" />
<glyph unicode="F" horiz-adv-x="502" d="M374 564h-199v-237q56 0 194 3l1 66q0 5 5 5h35q4 0 4 -5v-6v-14t-0.5 -20t-0.5 -25v-27v-27t0.5 -25t0.5 -20v-14v-6q0 -5 -4 -5h-35q-5 0 -5 5q0 46 -1 69q-86 2 -194 2v-80.5v-87v-58.5q0 -9 7 -9h76q4 0 4 -5v-38q0 -5 -4 -5h-223q-5 0 -5 5v38q0 5 5 5h60q8 0 8 9 q1 44 1 346q0 116 -1 151q0 10 -8 10h-60q-5 0 -5 4v39q0 5 5 5h430q5 0 5 -6q0 -65 3 -125q1 -11 -10 -11q-10 0 -15.5 14.5t-8.5 32.5t-19.5 32.5t-45.5 14.5z" />
<glyph unicode="G" horiz-adv-x="667" d="M499 590q10 -4 15.5 0.5t19.5 24.5q3 5 10 5q10 0 10 -8q0 -17 -0.5 -45.5t-0.5 -54.5t1 -54q0 -9 -10 -9t-13 10q-23 58 -78 89t-111 31q-94 0 -163.5 -67.5t-69.5 -186.5q0 -114 68 -198t180 -84q89 0 149 54v51.5v55v37.5q0 10 -7 10h-58q-5 0 -5 4v39q0 5 5 5h197 q4 0 4 -5v-39q0 -4 -4 -4h-53q-7 0 -7 -10v-170q0 -11 -5 -15q-41 -29 -101.5 -46.5t-120.5 -17.5q-140 0 -229 92t-89 221q0 146 90.5 231t222.5 85q80 0 153 -31z" />
<glyph unicode="H" horiz-adv-x="808" d="M173 345h461v58v61.5v63.5l-1 26q0 10 -7 10h-60q-5 0 -5 4v39q0 5 5 5h207q5 0 5 -5v-39q0 -4 -5 -4h-60q-7 0 -7 -10v-26q-1 -27 -1.5 -63.5t-0.5 -61.5q0 -258 2 -346q0 -9 7 -9h60q5 0 5 -5v-38q0 -5 -5 -5h-208q-4 0 -4 5v38q0 5 5 5h60q7 0 7 9q1 31 1 224h-461 q0 -162 2 -224q0 -9 7 -9h60q5 0 5 -5v-38q0 -5 -5 -5h-208q-4 0 -4 5v38q0 5 5 5h60q7 0 7 9q1 44 1 346q0 25 -0.5 61.5t-0.5 63.5v26q0 10 -7 10h-60q-5 0 -5 4v39q0 5 5 5h207q5 0 5 -5v-39q0 -4 -5 -4h-60q-7 0 -7 -10l-1 -26q0 -27 -0.5 -63.5t-0.5 -61.5v-58z" />
<glyph unicode="I" horiz-adv-x="277" d="M242 0h-208q-4 0 -4 5v38q0 5 5 5h60q7 0 7 9q1 44 1 346q0 25 -0.5 61.5t-0.5 63.5v26q0 10 -7 10h-60q-5 0 -5 4v39q0 5 5 5h207q5 0 5 -5v-39q0 -4 -5 -4h-60q-7 0 -7 -10l-1 -26q0 -27 -0.5 -63.5t-0.5 -61.5q0 -258 2 -346q0 -9 7 -9h60q5 0 5 -5v-38q0 -5 -5 -5z " />
<glyph unicode="J" horiz-adv-x="288" d="M113 403q0 33 -0.5 89t-0.5 62q0 10 -8 10h-77q-5 0 -5 5v38q0 5 5 5h226q4 0 4 -5v-38q0 -5 -4 -5h-61q-7 0 -7 -10q-2 -66 -2 -151q0 -79 1 -191.5t1 -123.5q0 -122 -66.5 -218t-185.5 -118q-8 -1 -10 6q-3 12 10 18q96 55 136.5 127t42.5 167q3 113 1 333z" />
<glyph unicode="K" horiz-adv-x="707" d="M173 324q52 39 170.5 128t129.5 97q21 15 8 15h-46q-5 0 -5 4v39q0 5 5 5h206q4 0 4 -5v-39q0 -4 -4 -4h-29q-33 0 -53 -13q-14 -11 -124.5 -91.5t-192.5 -140.5q136 -101 315 -232q53 -39 77 -39h37q5 0 5 -5v-38q0 -5 -5 -5h-255q-5 0 -5 5v38q0 5 5 5h57q8 0 8 4 q0 3 -10 11q-50 37 -156 116.5l-142 106.5q0 -165 2 -229q0 -9 7 -9h60q5 0 5 -5v-38q0 -5 -5 -5h-208q-4 0 -4 5v38q0 5 5 5h60q7 0 7 9q1 44 1 346q0 25 -0.5 61.5t-0.5 63.5v26q0 10 -7 10h-60q-5 0 -5 4v39q0 5 5 5h207q5 0 5 -5v-39q0 -4 -5 -4h-60q-7 0 -7 -10l-1 -26 q0 -27 -0.5 -63.5t-0.5 -61.5v-79z" />
<glyph unicode="L" horiz-adv-x="532" d="M473 5q-1 -5 -7 -5h-431q-5 0 -5 5v38q0 5 5 5h60q7 0 7 9q3 118 1 346q0 116 -1 151q0 10 -8 10h-59q-5 0 -5 4v39q0 5 5 5h223q4 0 4 -5v-39q0 -4 -4 -4h-76q-7 0 -7 -10q-2 -70 -2 -151q-1 -193 2 -355h128q93 0 129 24q22 14 49 64q5 9 14 9q13 0 9 -12 q-1 -4 -31 -128z" />
<glyph unicode="M" horiz-adv-x="868" d="M691 556q-3 0 -8 -11q-17 -36 -251 -537q-4 -8 -9.5 -8t-9.5 8q-14 28 -258 546v-151q0 -238 2 -346q0 -9 8 -9h56q4 0 4 -5v-38q0 -5 -4 -5h-186q-5 0 -5 5v38q0 5 5 5h59q7 0 7 9q0 12 0.5 139.5t0.5 206.5v151q0 10 -7 10h-59q-5 0 -5 4v39q0 5 5 5h245q4 0 4 -5v-39 q0 -4 -4 -4h-38q-9 0 -1 -19q110 -242 193 -413q113 245 194 416q7 16 -2 16h-51q-4 0 -4 4v39q0 5 4 5h257q5 0 5 -5v-39q0 -4 -5 -4h-59q-8 0 -8 -10q-2 -24 -2 -151q0 -82 0.5 -213.5t0.5 -132.5q0 -9 8 -9h60q5 0 5 -5v-38q0 -5 -5 -5h-207q-4 0 -4 5v38q0 5 4 5h59 q8 0 8 9q1 37 1 346v142q0 11 -3 11z" />
<glyph unicode="N" horiz-adv-x="792" d="M209 562q0 -1 3 -4q15 -15 91 -90t176 -174.5t155 -153.5q1 83 1 264q0 82 -2 150q0 10 -7 10h-61q-5 0 -5 4v39q0 5 5 5h192q5 0 5 -5v-39q0 -4 -5 -4h-61q-8 0 -8 -10q-1 -38 -1 -150q0 -63 0.5 -184.5t0.5 -214.5q0 -5 -4 -5h-45q-5 0 -5 5v32q0 5 -4 9 q-211 211 -471 469q-1 -32 -1 -112q0 -296 1 -346q0 -9 8 -9h61q4 0 4 -5v-38q0 -5 -4 -5h-193q-4 0 -4 5v38q0 5 4 5h61q8 0 8 9q1 48 1 346q0 116 -1 151q0 10 -8 10h-61q-5 0 -5 4v39q0 5 5 5h243q5 0 5 -5v-39q0 -4 -5 -4h-62q-7 0 -7 -2z" />
<glyph unicode="O" d="M346 -8q-136 0 -224.5 92.5t-88.5 227.5q0 136 89 222.5t219 86.5q135 0 224 -92.5t89 -227.5q0 -137 -87.5 -223t-220.5 -86zM353 43q109 0 167.5 71t58.5 176q0 113 -72 197.5t-191 84.5q-99 0 -153.5 -72t-54.5 -173q0 -110 67 -197t178 -87z" />
<glyph unicode="P" horiz-adv-x="531" d="M249 204h-76q0 -26 0.5 -61t1 -55.5t0.5 -30.5q0 -9 7 -9h73q5 0 5 -5v-38q0 -5 -5 -5h-220q-5 0 -5 5v38q0 5 5 5h60q7 0 7 9q3 118 1 346q0 116 -1 151q0 10 -7 10h-57q-5 0 -5 4v39q0 5 5 5q134 -2 217 -2q120 0 180.5 -60t60.5 -149q0 -78 -64 -137.5t-183 -59.5z M173 245q88 0 127 8q58 12 91.5 53.5t33.5 92.5q0 67 -37 114t-110 51l-103 1q-2 -72 -2 -162v-158z" />
<glyph unicode="Q" d="M430 2q39 -69 120.5 -116.5t179.5 -65.5q19 -3 19 -13q0 -11 -15 -11q-272 0 -397 196q-133 4 -218.5 95.5t-85.5 224.5q0 136 89 222.5t219 86.5q135 0 224 -92.5t89 -227.5q0 -114 -61.5 -194t-162.5 -105zM353 43q109 0 167.5 71t58.5 176q0 113 -72 197.5t-191 84.5 q-99 0 -153.5 -72t-54.5 -173q0 -110 67 -197t178 -87z" />
<glyph unicode="R" horiz-adv-x="622" d="M290 564q-14 1 -115 1q-2 -70 -2 -162v-100q100 0 129 6q110 22 110 132q0 48 -29.5 84t-92.5 39zM608 -12q-111 13 -194 90.5t-132 186.5q-38 -3 -109 -3q0 -139 2 -205q0 -9 7 -9h61q5 0 5 -5v-38q0 -5 -4 -5h-209q-5 0 -5 4v39q0 5 5 5h60q7 0 7 9q1 44 1 346 q0 117 -1 152q0 9 -7 9h-57q-5 0 -5 5v38q0 5 5 5q144 -2 227 -2q61 -1 105 -16t67.5 -41t34 -54.5t10.5 -61.5q0 -51 -33 -93t-93 -64q39 -89 103.5 -161.5t143.5 -103.5q22 -9 22 -18q0 -12 -17 -9z" />
<glyph unicode="S" horiz-adv-x="502" d="M385 593q14 -8 23 -4.5t23 26.5q4 5 10 5q10 0 10 -8v-152q0 -11 -9 -11q-11 0 -14 10q-15 46 -59 82.5t-121 36.5q-48 0 -79.5 -24t-31.5 -63q0 -50 35.5 -76.5t130.5 -64.5q169 -67 169 -197q0 -61 -59 -111t-156 -50q-53 0 -106 18q-24 11 -37.5 10t-26.5 -21 q-5 -7 -11 -7q-10 0 -12 13q-15 71 -38 156q-4 12 9 12q9 0 13 -9q56 -124 220 -124q61 0 96.5 32t35.5 70q0 55 -40.5 88.5t-120.5 65.5q-79 32 -120.5 72.5t-41.5 103.5q0 59 49.5 104t128.5 45q71 0 130 -28z" />
<glyph unicode="T" horiz-adv-x="638" d="M583 496q-10 0 -14 12q-5 14 -11.5 24t-20 16t-22 9.5t-31 5t-31.5 1.5h-39h-66q-2 -34 -2 -161q0 -258 2 -346q0 -9 7 -9h71q5 0 5 -5v-39q0 -4 -5 -4h-229q-5 0 -5 4v39q0 5 5 5h71q7 0 7 9q1 44 1 346q0 144 -1 161h-77q-70 0 -106 -11.5t-57 -47.5q-5 -9 -13 -9 q-12 0 -9 12q9 35 30 122q2 11 12 11q7 0 11 -7q12 -22 48 -22h207h240q25 0 41 23q4 6 12 6q12 0 9 -11q-3 -12 -30 -123q-2 -11 -10 -11z" />
<glyph unicode="U" horiz-adv-x="683" d="M580 554l-3 -147q0 -20 0.5 -76.5t-0.5 -95t-5 -57.5q-12 -65 -51 -108t-86.5 -60.5t-102.5 -17.5q-83 0 -148 49t-73 137q-2 25 -2 229q0 112 -1 147q0 10 -7 10h-61q-5 0 -5 4v39q0 5 5 5h211q4 0 4 -5v-39q0 -4 -4 -4h-62q-7 0 -7 -10q-2 -70 -2 -147q0 -179 6 -229 q6 -62 50.5 -99.5t108.5 -37.5q72 0 121.5 42t54.5 112q2 26 5 212q1 34 0 87.5t-1 59.5q0 10 -8 10h-61q-5 0 -5 4v39q0 5 5 5h192q5 0 5 -5v-39q0 -4 -5 -4h-61q-7 0 -7 -10z" />
<glyph unicode="V" horiz-adv-x="698" d="M90 559q-2 5 -7 5h-48q-5 0 -5 4v39q0 5 5 5h203q4 0 4 -5v-39q0 -4 -4 -4h-61q-9 0 -1 -19q63 -137 190 -420q21 47 54 124t73.5 170.5t56.5 131.5q5 13 -4 13h-52q-5 0 -5 4v39q0 5 5 5h169q5 0 5 -5v-39q0 -4 -5 -4h-36q-16 0 -19 -6q-2 -2 -3 -5q-132 -297 -242 -549 q-2 -4 -5 -4h-11q-3 0 -5 3z" />
<glyph unicode="W" horiz-adv-x="972" d="M635 116q138 321 187 435q5 13 -4 13h-52q-5 0 -5 4v39q0 5 5 5h171q5 0 5 -5v-39q0 -4 -5 -4h-38q-16 0 -19 -6q-2 -2 -3 -5q-55 -128 -240 -549q-2 -4 -4 -4h-19q-4 0 -5 3q-45 100 -116 266q-43 -94 -117 -265q-2 -4 -5 -4h-24q-3 0 -5 3l-256 556q-2 5 -7 5h-44 q-5 0 -5 4v39q0 5 5 5h186q4 0 4 -5v-39q0 -4 -4 -4h-48q-9 0 -1 -19q1 -3 200 -434q9 22 42 97t53 121l-101 230q-2 5 -7 5h-45q-5 0 -5 4v39q0 5 5 5h167q4 0 4 -5v-39q0 -4 -4 -4h-27q-9 0 -1 -19q1 -3 8.5 -20.5t20 -47t24.5 -57.5q33 77 57 131q5 13 -4 13h-39 q-5 0 -5 4v39q0 5 5 5h150q5 0 5 -5v-38q0 -5 -5 -5h-30q-17 0 -21 -7l-2 -4q-35 -82 -85 -195q56 -136 103 -242z" />
<glyph unicode="X" horiz-adv-x="739" d="M704 0h-234q-4 0 -4 4v39q0 5 4 5h62q12 0 5 9q-89 111 -174 215q-42 -46 -190 -211q-8 -11 -6 -12t20 -1h48q4 0 4 -5v-39q0 -4 -4 -4h-200q-5 0 -5 4v39q0 5 5 5h31q18 0 24.5 3t20.5 17q10 10 43.5 47.5t85 94t92.5 100.5q-153 188 -199 242q-8 9 -12 10.5t-21 1.5 h-34q-5 0 -5 5v39q0 4 5 4h225q4 0 4 -4v-39q0 -5 -4 -5h-68q-7 0 1 -9q51 -62 155 -192q138 151 169 187q6 6 7 9.5t-4 4.5h-67q-4 0 -4 5v39q0 4 4 4h200q5 0 5 -4v-39q0 -5 -5 -5h-43q-4 0 -7 -0.5t-5 -1t-4 -2.5t-3 -2.5t-4.5 -4.5t-4.5 -5q-50 -57 -202 -224 q105 -126 214 -255q12 -15 19 -18t23 -3h37q5 0 5 -5v-39q0 -4 -5 -4z" />
<glyph unicode="Y" horiz-adv-x="704" d="M326 194q-14 22 -56.5 93.5t-93.5 157t-66 110.5q-6 9 -19 9h-56q-5 0 -5 5v39q0 4 5 4h223q4 0 4 -4v-39q0 -5 -4 -5h-62q-7 0 -3 -6q89 -156 181 -312q116 204 173 303q6 11 4.5 13t-13.5 2h-49q-4 0 -4 5v39q0 4 4 4h180q5 0 5 -4v-39q0 -5 -5 -5h-38 q-13 0 -17.5 -2.5t-11.5 -14.5q-10 -17 -73.5 -125.5t-132.5 -227.5q0 -24 0.5 -56.5t1 -51.5t0.5 -29q0 -9 7 -9h60q5 0 5 -5v-38q0 -5 -5 -5h-208q-4 0 -4 5v38q0 5 5 5h60q7 0 7 9q0 74 1 137z" />
<glyph unicode="Z" horiz-adv-x="747" d="M664 -32q-4 0 -12 10q-11 18 -47 20l-177 2h-398q-5 0 -5 5v13q0 2 3 5q68 67 548 541h-215q-173 0 -220 -19q-48 -20 -72 -69q-5 -9 -13 -9q-6 0 -9 2t-2 6q9 26 38 153q2 14 12 14q6 0 11 -7q13 -20 34 -21q41 -2 202 -2h350q5 0 5 -5v-13q0 -2 -3 -5 q-158 -160 -539 -541h331q155 0 212 116q4 9 13 9q13 0 10 -12q-4 -13 -44 -181q-2 -12 -13 -12z" />
<glyph unicode="[" horiz-adv-x="199" d="M160 -216h-126q-4 0 -4 4v819q0 5 4 5h126q4 0 4 -5v-24q0 -4 -4 -4h-90v-762h90q4 0 4 -5v-24q0 -4 -4 -4z" />
<glyph unicode="\" horiz-adv-x="406" d="M63 671l315 -730q2 -4 -2 -6l-28 -14q-4 -2 -5 1l-315 730q-2 4 1 6l28 15q4 2 6 -2z" />
<glyph unicode="]" horiz-adv-x="199" d="M165 -216h-126q-4 0 -4 4v24q0 5 4 5h90v762h-90q-4 0 -4 4v24q0 5 4 5h126q4 0 4 -5v-819q0 -4 -4 -4z" />
<glyph unicode="^" horiz-adv-x="527" d="M252 612h30q6 0 9 -5q1 -3 87.5 -177t88.5 -177q1 -4 -3 -4h-33q-6 0 -8 4q0 1 -16.5 34t-39 77.5t-45 90t-38.5 78t-17 33.5q-1 -1 -17 -33.5t-38.5 -78t-45 -90t-39 -77.5t-16.5 -34q-2 -4 -7 -4h-34q-5 0 -3 4q1 3 87.5 177t88.5 177q3 5 9 5z" />
<glyph unicode="_" horiz-adv-x="526" d="M14 -77h497q5 0 5 -4v-32q0 -4 -5 -4h-497q-4 0 -4 4v32q0 4 4 4z" />
<glyph unicode="`" horiz-adv-x="216" d="M39 574h56q11 0 16 -10q1 -2 15.5 -30t31.5 -62l26 -52q4 -8 -1 -12q-6 -4 -13 3q-113 122 -135 146q-6 7 -4 12t8 5z" />
<glyph unicode="a" horiz-adv-x="371" d="M214 169q-50 -8 -92 -32q-37 -21 -37 -52q0 -17 12.5 -30t30.5 -13q44 0 85 43q1 65 1 84zM147 325q-45 0 -84 -39q-9 -9 -16 -3q-9 7 2 20q26 31 62 49.5t71 18.5q50 0 73.5 -36t23.5 -81q0 -36 0.5 -89.5t0.5 -75.5q0 -19 10 -31.5t29 -12.5q17 0 34 14q6 5 11 5 q10 0 5 -12q-11 -24 -37.5 -42t-56.5 -18q-25 0 -43 18.5t-21 47.5q-24 -23 -62.5 -44.5t-69.5 -21.5q-26 0 -44.5 19.5t-18.5 50.5q0 56 61 87q42 21 137 43l1 46q0 42 -18 64.5t-50 22.5z" />
<glyph unicode="b" horiz-adv-x="456" d="M67 13q4 132 4 346q0 150 -1 180q-1 25 -6.5 31.5t-30.5 10.5q-6 1 -6 11q0 8 5 11l86 47q8 4 12 2t4 -8v-99.5v-121.5v-64v-46q59 66 141 66q72 0 113 -55t41 -122q0 -83 -65 -146.5t-141 -63.5q-105 0 -146 8q-10 2 -10 13zM134 87q41 -57 115 -57q50 0 83 38t33 94 q0 65 -33.5 118t-94.5 53q-65 0 -103 -55v-191z" />
<glyph unicode="c" horiz-adv-x="352" d="M201 -8q-79 0 -130 56t-51 130q0 84 60.5 141.5t138.5 57.5q57 0 92 -27q17 -13 16 -30.5t-18 -31.5q-18 -15 -33 4q-36 47 -84 47q-55 0 -81.5 -38t-26.5 -90q0 -62 38.5 -110.5t105.5 -48.5q52 0 87 25q9 6 12 4q8 -3 3 -14q-17 -34 -53.5 -54.5t-75.5 -20.5z" />
<glyph unicode="d" horiz-adv-x="458" d="M316 84q2 100 2 188q-54 61 -136 61q-49 0 -77.5 -37.5t-28.5 -89.5q0 -60 42.5 -107t109.5 -47q49 0 88 32zM393 45h43q7 0 7 -8v-10q0 -12 -6 -13q-35 -6 -64 -12t-39 -8t-14 -2q-8 0 -7 13q2 40 2 51q-26 -23 -65.5 -43.5t-68.5 -20.5q-70 0 -115.5 54t-45.5 125 q0 83 56.5 142t135.5 59q57 0 106 -30v17q0 125 -1 181q-1 22 -7.5 28.5t-37.5 12.5q-5 1 -5 10q0 8 5 11q54 27 93 48q7 4 11.5 2t4.5 -8v-99.5v-121.5v-64q0 -238 1 -304q0 -10 11 -10z" />
<glyph unicode="e" horiz-adv-x="341" d="M199 -8q-76 0 -127.5 51t-51.5 134q0 88 44 141t103 53q103 0 146 -100q4 -9 -5 -12q-59 -21 -225 -66q8 -60 44.5 -100.5t95.5 -40.5q48 0 81 25q5 4 10 4q11 0 5 -14q-15 -33 -50.5 -54t-69.5 -21zM223 279q-6 25 -26 43.5t-43 18.5q-33 0 -55 -34.5t-19 -89.5 q84 23 121 36q18 6 21.5 10.5t0.5 15.5z" />
<glyph unicode="f" horiz-adv-x="278" d="M341 603q0 -20 -13.5 -29t-36.5 5q-32 23 -55.5 25t-51.5 -19q-21 -17 -30 -46t-9 -86v-83h109q4 0 4 -4v-37q0 -4 -5 -4h-108q0 -211 1 -270q0 -10 9 -10h59q5 0 5 -5v-36q0 -4 -5 -4h-190q-4 0 -4 4v36q0 5 4 5h47q8 0 8 10q3 174 3 270h-57q-4 0 -4 4v37q0 4 5 4h56 v62q0 92 56.5 151.5t137.5 59.5q65 0 65 -40z" />
<glyph unicode="g" horiz-adv-x="420" d="M270 -71q-23 3 -111 6q-33 -14 -56.5 -43.5t-23.5 -55.5q0 -28 27.5 -48.5t72.5 -20.5q63 0 111 32t48 71q0 50 -68 59zM180 349q-44 0 -71 -30t-27 -74q0 -49 34 -85.5t85 -37.5q45 0 68 26.5t23 71.5q0 51 -31.5 90t-80.5 39zM17 -190q0 36 33 70t75 59q-93 16 -93 61 q0 30 58 63q12 7 18 11t5 8t-1.5 5t-9.5 5.5t-12 6.5q-62 37 -62 121q0 69 51.5 117t124.5 48q49 0 96 -35q13 -10 29 -2q8 4 32.5 18t33.5 19q20 11 20 -7v-23q0 -16 -21 -22q-22 -5 -47 -13q-9 -3 -10.5 -5t2.5 -12q14 -26 14 -57q0 -66 -51.5 -114.5t-119.5 -48.5 q-23 0 -50 -18.5t-27 -38.5q0 -11 14 -16t51 -9q93 -8 104 -9q65 -4 100 -30.5t35 -69.5q0 -56 -76.5 -109.5t-187.5 -53.5q-60 0 -94 22.5t-34 58.5z" />
<glyph unicode="h" horiz-adv-x="461" d="M134 304q28 35 65.5 55t73.5 20q34 0 58 -12.5t35 -33t15 -39.5t4 -39q0 -31 0.5 -103.5t0.5 -96.5q0 -10 8 -10h36q4 0 4 -5v-36q0 -4 -4 -4h-155q-4 0 -4 4v36q0 5 4 5h37q7 0 7 12q2 104 2 172q0 104 -83 104q-65 0 -104 -68q0 -163 1 -210q0 -10 8 -10h34q6 0 6 -5 v-36q0 -4 -6 -4h-153q-4 0 -4 4v36q0 5 4 5h37q7 0 7 10q3 99 3 304q0 151 -1 181q-1 24 -7 30t-33 11q-6 1 -6 10q0 8 5 11q4 2 23 12t41 22t25 14q8 4 12 2t4 -8v-99.5v-121.5v-64v-55z" />
<glyph unicode="i" horiz-adv-x="212" d="M170 561q-14 0 -23.5 9.5t-9.5 23.5q0 15 10.5 26t25.5 11q14 0 24 -9.5t10 -22.5q0 -16 -11 -27t-26 -11zM134 377q0 -252 1 -321q0 -11 9 -11h47q5 0 5 -5v-36q0 -4 -5 -4h-166q-5 0 -5 4v36q0 5 5 5h35q8 0 8 12q2 100 2 215q0 25 -5.5 31.5t-28.5 11.5q-6 1 -6 10 t5 12l83 46q8 4 12 2t4 -8z" />
<glyph unicode="j" horiz-adv-x="220" d="M149 377q0 -55 0.5 -141.5t0.5 -160.5q0 -70 -20 -117q-15 -35 -46.5 -62.5t-69.5 -34.5q-10 -2 -10 9q0 4 8 10q64 48 70 159q2 34 3 123.5t0 107.5q-1 23 -7.5 30.5t-34.5 13.5q-6 1 -6 10q0 8 5 11q68 36 91 48q7 4 11.5 2t4.5 -8zM112 561q-14 0 -23.5 9.5t-9.5 23.5 q0 15 10.5 26t25.5 11q14 0 24 -9.5t10 -22.5q0 -16 -11 -27t-26 -11z" />
<glyph unicode="k" horiz-adv-x="453" d="M134 199q18 15 56 49.5t46 41.5q35 30 35 33q0 2 -6 2h-36q-5 0 -5 6v35q0 4 4 4h170q5 0 5 -4v-36q0 -5 -5 -5h-45q-24 0 -43 -16q-101 -85 -121 -103q151 -115 194 -146q16 -11 21.5 -13t20.5 -2h15q5 0 5 -5v-36q0 -4 -5 -4h-186q-5 0 -5 4v37q0 4 5 4h39q9 0 1 5 q-129 99 -160 122q0 -89 1 -117q0 -10 8 -10h34q6 0 6 -5v-36q0 -4 -6 -4h-153q-4 0 -4 4v36q0 5 4 5h37q7 0 7 10q3 99 3 304q0 151 -1 181q-1 23 -6.5 29t-33.5 12q-6 1 -6 10q0 8 5 11q11 6 89 48q8 4 12 2t4 -8v-99.5v-121.5v-64v-160z" />
<glyph unicode="l" horiz-adv-x="210" d="M70 540q-1 23 -7 29.5t-33 11.5q-6 1 -6 10q0 8 5 11l89 48q8 4 12 2t4 -8v-99.5v-121.5v-64q0 -238 1 -304q0 -10 7 -10h55q5 0 5 -5v-36q0 -4 -5 -4h-173q-4 0 -4 4v36q0 5 4 5h37q7 0 7 10q3 99 3 304q0 121 -1 181z" />
<glyph unicode="m" horiz-adv-x="697" d="M134 377v-74q60 74 143 74q75 0 95 -79q65 79 150 79q100 0 100 -123v-201q0 -8 9 -8h34q6 0 6 -4v-37q0 -4 -6 -4h-152q-6 0 -6 4v37q0 4 6 4h34q8 0 8 7q2 72 2 180q0 100 -84 100q-22 0 -49.5 -17t-47.5 -52v-8v-199q0 -11 8 -11h45q5 0 5 -5v-36q0 -4 -5 -4h-171 q-6 0 -6 4v37q0 4 6 4h46q6 0 6 6q2 72 2 180q0 42 -18.5 71.5t-61.5 29.5q-24 0 -51.5 -18t-46.5 -51q0 -44 0.5 -115t0.5 -91q0 -12 9 -12h34q5 0 5 -4v-37q0 -4 -5 -4h-154q-4 0 -4 4v36q0 5 4 5h36q8 0 8 7q2 100 2 218q0 25 -5.5 31t-35.5 14q-5 1 -5 9t4 10 q12 7 50.5 27.5t39.5 21.5q8 4 12 2t4 -8z" />
<glyph unicode="n" horiz-adv-x="461" d="M70 271q-1 25 -6.5 30.5t-34.5 13.5q-5 1 -5 9t4 10q12 7 50.5 27.5t39.5 21.5q8 4 12 2t4 -8v-74q60 74 145 74q107 0 107 -125q0 -149 1 -197q0 -10 7 -10h49q5 0 5 -5v-36q0 -4 -5 -4h-167q-5 0 -5 4v36q0 5 5 5h37q7 0 7 11q1 47 1 172q0 42 -15.5 67t-32.5 31t-37 6 q-61 0 -102 -69q0 -44 0.5 -118t0.5 -92q0 -8 9 -8h35q5 0 5 -5v-36q0 -4 -5 -4h-154q-5 0 -5 4v36q0 5 5 5h35q8 0 8 11q3 166 2 215z" />
<glyph unicode="o" horiz-adv-x="434" d="M192 339q-51 -1 -79.5 -35.5t-28.5 -88.5q0 -72 41 -128.5t111 -56.5q51 1 79 35.5t28 89.5q0 72 -40.5 128t-110.5 56zM204 -8q-82 0 -133 54.5t-51 134.5q0 79 60.5 137.5t142.5 58.5t133 -54.5t51 -134.5q0 -79 -61 -137.5t-142 -58.5z" />
<glyph unicode="p" horiz-adv-x="437" d="M212 320q-45 0 -78 -25v-234q49 -32 105 -32q52 0 88 32t36 99q0 58 -40 109t-111 51zM71 83l-1 190q0 22 -8 28t-37 12q-6 1 -6 11q0 8 5 10q6 3 46 24t48 25t12 2t4 -8v-53q60 53 120 53q74 0 115 -58t41 -129q0 -82 -48 -136t-124 -54q-54 0 -104 28q0 -67 0.5 -152.5 t0.5 -87.5q0 -10 9 -10h47q5 0 5 -5v-36q0 -4 -5 -4h-167q-4 0 -4 4v36q0 5 4 5h36q8 0 8 10q3 198 3 295z" />
<glyph unicode="q" horiz-adv-x="437" d="M320 345q5 -3 6 -3q3 0 30 37q4 7 12 5.5t8 -10.5v-286q0 -31 -1 -146.5t0 -153.5q0 -10 7 -10h50q5 0 5 -5v-36q0 -4 -5 -4h-235q-4 0 -4 4v36q0 5 4 5h104q7 0 7 10q3 168 3 248q-49 -44 -126 -44q-75 0 -120 54t-45 133q0 82 60 140t138 58q50 0 102 -32zM311 90v179 q-37 70 -126 70q-46 0 -73 -36t-29 -93q-2 -71 38.5 -125.5t96.5 -54.5q32 0 56.5 16.5t36.5 43.5z" />
<glyph unicode="r" horiz-adv-x="306" d="M134 377v-79q62 52 74 60q23 17 40 17q21 0 33.5 -18.5t12.5 -47.5q0 -10 -8 -15l-37 -20q-13 -8 -13 6q0 11 -7 23t-21 12q-11 0 -20 -5q-31 -17 -54 -44q0 -167 1 -214q0 -7 9 -7h48q5 0 5 -5v-35q0 -5 -5 -5h-167q-5 0 -5 5v35q0 5 4 5h36q8 0 8 11q2 102 2 216 q0 23 -7 30.5t-36 12.5q-5 1 -5 10q0 7 4 9q37 19 92 49q8 4 12 2t4 -8z" />
<glyph unicode="s" horiz-adv-x="314" d="M162 22q23 0 41 16.5t18 37.5q0 18 -10 29q-18 22 -72 61.5t-71 56.5q-29 29 -29 64q0 37 31 63.5t75 26.5q43 0 83 -19q6 -3 13 6q9 13 13 13h5q6 0 6 -7q0 -1 -0.5 -17.5t-0.5 -24.5q0 -31 1 -57q0 -6 -9 -6q-6 0 -8 5q-32 78 -99 78q-25 0 -41.5 -11.5t-16.5 -28.5 t17 -33q16 -15 35.5 -29.5t43 -31.5t36.5 -27q57 -43 57 -98q0 -41 -33 -69t-86 -28t-93 20q-6 3 -13 -6q-9 -14 -13 -14h-6q-6 0 -6 7q0 2 0.5 18.5t0.5 24.5q0 10 -2 62q0 7 9 7q7 0 9 -6q15 -40 48 -61.5t67 -21.5z" />
<glyph unicode="t" horiz-adv-x="294" d="M111 435q8 8 14 8q9 0 7 -12l-5 -61h147h3q7 0 8.5 -1t-0.5 -9l-13 -27q-4 -8 -13 -8h-132v-207q0 -35 17 -54t46 -19q40 0 75 27q6 5 10 5q5 0 6.5 -4.5t-1.5 -9.5q-18 -34 -53 -52.5t-74 -18.5q-44 0 -68 31t-23 76q1 181 1 226h-35q-8 0 -10 5.5t5 12.5q57 59 88 92z " />
<glyph unicode="u" horiz-adv-x="441" d="M301 272q0 24 -6.5 30.5t-36.5 12.5q-5 1 -5 10q0 8 4 10q8 4 29 15t39 20.5t24 12.5q7 4 11.5 2t4.5 -8q0 -238 1 -307q0 -9 9 -9h24q5 0 5 -6v-9q0 -4 -4 -6q-40 -20 -85 -45q-17 -9 -17 7l1 63q-87 -73 -151 -73q-49 0 -69 35.5t-19 81.5q2 110 2 163q0 24 -5.5 31 t-33.5 12q-5 1 -5 9q0 9 4 11q12 7 49 27t39 21q8 4 12 2t4 -8v-263q0 -70 76 -70q19 0 48 14.5t49 36.5q2 124 2 177z" />
<glyph unicode="v" horiz-adv-x="440" d="M431 325h-26q-12 0 -15.5 -2.5t-9.5 -15.5q-107 -239 -138 -311q-2 -4 -6 -4h-30q-4 0 -6 5q-80 180 -137 306q-7 16 -11.5 19t-17.5 3h-25q-4 0 -4 5v36q0 4 4 4h162q5 0 5 -4v-36q0 -5 -5 -5h-33q-10 0 -10.5 -2.5t6.5 -19.5q31 -74 104 -235q73 172 102 244 q4 10 3 11.5t-9 1.5h-34q-5 0 -5 5v36q0 4 5 4h131q4 0 4 -4v-36q0 -5 -4 -5z" />
<glyph unicode="w" horiz-adv-x="688" d="M233 81l93 216q-4 9 -9 19q-5 9 -15 9h-28q-4 0 -4 5v36q0 4 4 4h153q5 0 5 -5v-35q0 -5 -5 -5h-29q-7 0 -8.5 -1.5t0.5 -5.5l101 -233l97 233q2 5 0.5 6t-6.5 1h-35q-5 0 -5 5v36q0 4 5 4h132q4 0 4 -4v-36q0 -5 -4 -5h-27q-13 0 -17 -2t-8 -12l-139 -314q-2 -5 -7 -5 h-13q-5 0 -7 6l-116 257l-113 -258q-2 -5 -6 -5h-15q-5 0 -7 5l-141 313q-5 11 -8.5 13t-14.5 2h-31q-4 0 -4 5v36q0 4 4 4h162q4 0 4 -4v-36q0 -5 -4 -5h-32q-8 0 -9 -1.5t3 -9.5z" />
<glyph unicode="x" horiz-adv-x="399" d="M211 221l80 100q3 4 -4 4h-34q-4 0 -4 5v36q0 4 4 4h125q5 0 5 -4v-36q0 -5 -5 -5h-22q-17 0 -24 -8l-103 -123l95 -145q3 -4 12 -4h37q4 0 4 -5v-36q0 -4 -4 -4h-163q-4 0 -4 4v36q0 5 4 5h30q11 0 4 11l-58 88l-69 -88q-8 -11 3 -11h20q4 0 4 -5v-36q0 -4 -4 -4h-116 q-4 0 -4 4v36q0 5 4 5h20q13 0 20 8l103 119l-98 148q-3 5 -13 5h-30q-4 0 -4 5v36q0 4 5 4h155q5 0 5 -4v-36q0 -5 -5 -5h-35q-6 0 -3 -5z" />
<glyph unicode="y" horiz-adv-x="449" d="M179 0l-127 309q-4 12 -7 14t-13 2h-22q-5 0 -5 5v36q0 4 5 4h147q5 0 5 -4v-36q0 -5 -5 -5h-33q-6 0 -6.5 -1.5t2.5 -9.5l97 -244q48 87 128 245q3 7 1.5 8.5t-7.5 1.5h-37q-4 0 -4 5v36q0 4 4 4h138q4 0 4 -4v-36q0 -5 -5 -5h-31q-7 0 -11 -4.5t-13 -21.5 q-76 -136 -314 -564q-5 -8 -12 -8h-31q-12 0 -4 12q48 83 156 261z" />
<glyph unicode="z" horiz-adv-x="405" d="M169 0h-148q-13 0 -13 11q0 8 12 20l265 282h-168q-24 0 -36 -4.5t-24 -22.5q-4 -7 -12 -7q-4 0 -6.5 4t-0.5 8l45 110q4 10 13 10q8 0 8 -9q-3 -10 -1 -21t16 -11h236q11 0 11 -6t-14 -21l-262 -286l187 1q29 0 43.5 4.5t17.5 8.5t13 22q5 9 14 9q5 0 7 -4.5t0 -9.5 l-51 -132q-3 -8 -13 -8q-11 0 -7 9q8 27 8 30q0 13 -113 13h-27z" />
<glyph unicode="{" horiz-adv-x="199" d="M160 -216h-126q-4 0 -4 4v819q0 5 4 5h126q4 0 4 -5v-24q0 -4 -4 -4h-90v-762h90q4 0 4 -5v-24q0 -4 -4 -4z" />
<glyph unicode="|" horiz-adv-x="240" d="M100 -263v931q0 5 4 5h32q4 0 4 -5v-931q0 -4 -4 -4h-32q-4 0 -4 4z" />
<glyph unicode="}" horiz-adv-x="199" d="M165 -216h-126q-4 0 -4 4v24q0 5 4 5h90v762h-90q-4 0 -4 4v24q0 5 4 5h126q4 0 4 -5v-819q0 -4 -4 -4z" />
<glyph unicode="~" horiz-adv-x="648" d="M478 160q-28 0 -55.5 9t-142.5 55q-84 34 -114 34q-78 0 -94 -84q-1 -8 -8 -13t-13 -1.5t-6 14.5q0 50 39 99.5t86 49.5q28 0 55.5 -9t142.5 -55q83 -34 114 -34q78 0 94 84q1 9 8 13.5t13 1.5t6 -14q0 -55 -38.5 -102.5t-86.5 -47.5z" />
<glyph horiz-adv-x="459" />
<glyph unicode="&#xa1;" horiz-adv-x="219" d="M73 -206q4 100 24 363q2 16 13 16t13 -16q2 -17 14.5 -167.5t12.5 -161.5q0 -12 -10 -17q-34 -18 -52 -27q-7 -4 -11.5 -1.5t-3.5 11.5zM55 327q31 16 46 54q3 7 9 7t9 -7q15 -38 46 -54q7 -3 7 -9t-7 -9q-31 -16 -46 -54q-3 -7 -9 -7t-9 7q-15 38 -46 54q-7 3 -7 9t7 9z " />
<glyph unicode="&#xa2;" horiz-adv-x="352" d="M172 71l10 277q-50 -3 -74.5 -41.5t-24.5 -86.5t23 -90t66 -59zM330 79q-16 -33 -50.5 -54t-71.5 -23l-3 -83q0 -4 -4 -4h-31q-4 0 -4 4l3 85q-66 10 -107.5 59t-41.5 114q0 75 48 133.5t115 72.5l4 83q0 5 4 5h31q4 0 4 -5l-3 -80q53 0 87 -27q17 -13 16 -30.5 t-18 -31.5q-17 -15 -33 5q-24 27 -54 40l-11 -281h14q54 0 90 26q9 6 12 5q10 -2 4 -13z" />
<glyph unicode="&#xa3;" horiz-adv-x="712" d="M136 202q2 4 3.5 7.5t2.5 7.5t2 5q1 4 7 4h126q4 8 25 59.5t43.5 100.5t49.5 98q103 184 246 184q81 0 81 -51q0 -9 -9 -20t-29 -11q-24 0 -37 13q-25 25 -61 25q-30 0 -58.5 -30.5t-62.5 -99.5q-32 -68 -118 -268h123q8 0 6 -7q0 -1 -6.5 -18t-7.5 -19q-2 -4 -6 -4h-130 q-29 -61 -102 -157q8 -14 32 -14q35 0 54 -2q31 -3 57 -17q123 -62 180 -49q29 6 39.5 35.5t-4.5 44.5q-14 17 -62 31q-16 5 -25 29q0 1 -0.5 2t-1.5 3.5t-2 4.5q-7 16 12 16q25 0 63 -29q17 -13 30.5 -37.5t13.5 -50.5q0 -66 -69 -95q-41 -20 -110 -6.5t-116 57.5l-18 18 q-11 11 -17 14q-7 4 -25 8q-6 2 -20 4q-18 3 -25 16q-17 -30 -37 -49.5t-51 -37.5q-60 -35 -112 -29q-15 2 -19 13t-0.5 22t9.5 18q25 30 77.5 52.5t101.5 18.5q13 11 20 23q26 37 43 87q5 13 11.5 32t8.5 24h-126q-9 0 -7 7q4 8 7 17z" />
<glyph unicode="&#xa5;" horiz-adv-x="536" d="M340 40v-36q0 -4 -5 -4h-164q-5 0 -5 4v36q0 5 5 5h40q8 0 8 10q0 9 0.5 34t0.5 41h-149q-4 0 -4 4v32q0 4 4 4h150v44h-150q-4 0 -4 4v31q0 4 4 4h147q-10 18 -61.5 111.5t-87.5 159.5q-9 15 -13.5 18.5t-15.5 3.5h-26q-4 0 -4 4v36q0 4 4 4h165q5 0 5 -4v-36 q0 -4 -5 -4h-31q-8 0 -10.5 -2t-1.5 -7t7 -16q11 -21 129 -229q15 29 46.5 89t54.5 103.5t28 54.5q4 7 -5 7h-41q-5 0 -5 4v36q0 4 5 4h136q5 0 5 -4v-36q0 -4 -4 -4h-33q-8 0 -16 -13q-97 -177 -154 -280h142q5 0 5 -4v-31q0 -4 -5 -4h-146v-44h146q5 0 5 -4v-32 q0 -4 -5 -4h-146q0 -17 0.5 -42.5t0.5 -31.5q0 -11 8 -11h41q5 0 5 -5z" />
<glyph unicode="&#xa8;" horiz-adv-x="321" d="M130 481q0 -5 -8 -10q-21 -12 -33 -37q-3 -7 -9 -7t-9 7q-12 25 -33 37q-8 5 -8 10t8 10q21 12 33 37q3 7 9 7t9 -7q12 -25 33 -37q8 -5 8 -10zM291 481q0 -5 -8 -10q-21 -12 -33 -37q-4 -7 -9 -7t-9 7q-12 25 -33 37q-8 5 -8 10t8 10q21 12 33 37q4 7 9 7t9 -7 q12 -25 33 -37q8 -5 8 -10z" />
<glyph unicode="&#xa9;" horiz-adv-x="590" d="M299 423q103 0 172.5 -70t69.5 -171q0 -100 -70 -169.5t-173 -69.5q-105 0 -174 69t-69 170q0 102 70.5 171.5t173.5 69.5zM299 391q-91 0 -151.5 -60t-60.5 -149q0 -88 59.5 -148t151.5 -60q91 0 151.5 60.5t60.5 147.5q0 88 -60.5 148.5t-150.5 60.5zM389 313q6 0 6 -6 q2 -41 4 -60q1 -6 -5 -6q-7 0 -9 5q-27 48 -84 48q-41 0 -66.5 -29t-25.5 -72q0 -47 27.5 -79.5t72.5 -32.5q44 0 67 34q9 14 11.5 16.5t6.5 2.5q5 0 4 -6q-3 -30 -5 -43q0 -7 -4 -9q-46 -21 -84 -21q-56 0 -93.5 37t-37.5 93q0 57 36 93.5t92 36.5q34 0 62 -12q12 -5 19 7 q1 3 6 3z" />
<glyph unicode="&#xaa;" horiz-adv-x="268" d="M198 339q-17 0 -29.5 10.5t-15.5 29.5q-51 -40 -84 -40q-22 0 -35.5 14.5t-13.5 35.5q0 41 40 65q31 19 94 30v35q0 53 -43 53q-25 0 -50 -25q-11 -11 -18 -5q-11 7 1 21q42 49 89 49q39 0 54.5 -25t15.5 -57v-126q0 -24 17 -24q16 0 28 12q4 4 8 4q10 0 6 -13 q-6 -16 -24.5 -30t-39.5 -14zM95 443q-23 -16 -23 -38q0 -11 7.5 -18t18.5 -7q28 0 55 23l1 60q-42 -8 -59 -20z" />
<glyph unicode="&#xab;" horiz-adv-x="393" d="M180 38q4 -8 -2 -11q-6 -4 -12 2q-23 24 -137 148q-4 4 -4 9t4 9q27 29 72 78t65 70q6 6 12 2q5 -4 2 -12q-4 -8 -76 -147q5 -10 16.5 -32.5t26.5 -52t33 -63.5zM337 38q4 -8 -2 -11q-6 -4 -12 2q-23 24 -137 148q-4 4 -4 9t4 9q27 29 72 78t65 70q6 6 12 2q5 -4 2 -12 q-4 -8 -76 -147q5 -10 16.5 -32.5t26.5 -52t33 -63.5z" />
<glyph unicode="&#xad;" horiz-adv-x="313" d="M45 158q-6 0 -8.5 4t0.5 8q12 22 19 35q5 8 13 8h201q14 0 8 -11q-12 -24 -19 -36q-4 -8 -12 -8h-202z" />
<glyph unicode="&#xae;" horiz-adv-x="424" d="M180 558v-68q25 0 34 2q29 7 29 34t-33 31q-8 1 -30 1zM156 557h-16q-4 0 -4 5v11q0 4 4 4q41 -1 64 -1q63 0 63 -51q0 -33 -34 -46q27 -59 64 -71q9 -3 9 -7q0 -5 -8 -5q-55 1 -89 77q-8 -1 -29 -1v-54h18l3 -4v-11q0 -4 -3 -4h-59q-4 0 -4 4v12l2 3h19v97v42zM20 482 q0 79 54.5 133t134.5 54q79 0 133.5 -54t54.5 -133q0 -77 -54.5 -131t-133.5 -54q-82 0 -135.5 53t-53.5 132zM371 482q0 68 -46.5 115t-115.5 47t-116 -47t-47 -115t46 -114t117 -46q69 0 115.5 46.5t46.5 113.5z" />
<glyph unicode="&#xaf;" horiz-adv-x="223" d="M189 461h-154q-5 0 -5 4v32q0 4 5 4h154q4 0 4 -4v-32q0 -4 -4 -4z" />
<glyph unicode="&#xb0;" horiz-adv-x="265" d="M133 418q-48 0 -81.5 32t-33.5 83q0 52 33.5 85t81.5 33q49 0 81.5 -33t32.5 -85q0 -51 -32.5 -83t-81.5 -32zM132 622q-32 0 -49 -24.5t-17 -64.5t17 -63.5t49 -23.5t50 24t18 63q0 40 -18 64.5t-50 24.5z" />
<glyph unicode="&#xb1;" horiz-adv-x="474" d="M213 106v163h-170q-4 0 -4 4v32q0 4 4 4h170v175q0 5 4 5h31q4 0 4 -5v-175h169q5 0 5 -4v-32q0 -4 -5 -4h-169v-163q0 -4 -4 -4h-31q-4 0 -4 4zM43 40h378q5 0 5 -4v-31q0 -4 -5 -4h-378q-4 0 -4 4v31q0 4 4 4z" />
<glyph unicode="&#xb4;" horiz-adv-x="216" d="M177 574q6 0 8 -5t-4 -12q-22 -24 -135 -146q-7 -7 -13 -3q-5 4 -1 12l26 52t31.5 62t15.5 30q5 10 16 10h56z" />
<glyph unicode="&#xb6;" horiz-adv-x="795" d="M483 201v-354q0 -9 9 -9h199q4 0 4 -4v-39q0 -4 -4 -4q-202 3 -299 3q-67 0 -124 18q-140 46 -206.5 151t-66.5 238t66.5 238t206.5 151q57 18 124 18l299 3q4 0 4 -4v-39q0 -4 -4 -4h-199q-9 0 -9 -9v-354zM435 -153v708q0 9 -9 9h-46q-12 0 -24 -1.5t-35.5 -8t-38 -25 t-14.5 -46.5v-564q0 -28 14.5 -46.5t38 -25t35.5 -8t24 -1.5h46q9 0 9 9z" />
<glyph unicode="&#xb7;" horiz-adv-x="260" d="M185 309q-31 -16 -46 -54q-3 -7 -9 -7t-9 7q-15 38 -46 54q-7 3 -7 9t7 9q31 16 46 54q3 7 9 7t9 -7q15 -38 46 -54q7 -3 7 -9t-7 -9z" />
<glyph unicode="&#xb8;" horiz-adv-x="227" d="M134 9h25l-30 -54q68 -24 68 -74q0 -47 -43.5 -71.5t-108.5 -24.5q-15 0 -15 11q0 12 15 13q104 11 104 61q0 44 -69 48q-3 1 -4 4t1 4q13 25 57 83z" />
<glyph unicode="&#xba;" horiz-adv-x="319" d="M159 341q-55 0 -93.5 38.5t-38.5 93.5q0 56 39 97.5t93 41.5q55 0 94 -41.5t39 -97.5q0 -55 -39 -93.5t-94 -38.5zM161 581q-40 0 -62 -32.5t-22 -75.5q0 -42 22 -72t62 -30q37 0 57.5 30t20.5 72q0 43 -21 75.5t-57 32.5z" />
<glyph unicode="&#xbb;" horiz-adv-x="393" d="M213 38q18 34 33 63.5t26.5 52t16.5 32.5q-72 139 -76 147q-3 8 2 12q6 4 12 -2q16 -17 137 -148q4 -4 4 -9t-4 -9q-94 -104 -137 -148q-6 -6 -12 -2q-5 4 -2 11zM56 38q18 34 33 63.5t26.5 52t16.5 32.5q-72 139 -76 147q-3 8 2 12q6 4 12 -2q16 -17 137 -148q4 -4 4 -9 t-4 -9q-94 -104 -137 -148q-6 -6 -12 -2q-5 4 -2 11z" />
<glyph unicode="&#xbf;" horiz-adv-x="293" d="M50 -99q0 10 2.5 19.5t7.5 17.5t8.5 14t12.5 12.5t14 10t17.5 10t17.5 8.5t20 9t20 9q29 13 39.5 38.5t-0.5 53.5q-4 9 -9.5 10t-15.5 -1.5t-14 -2.5q-12 0 -20.5 9.5t-8.5 23.5t11.5 24t26.5 10q30 0 46 -30.5t16 -72.5q0 -70 -27 -103q-16 -17 -60 -38.5t-61 -41.5 q-11 -13 -17 -93q-1 -17 -13 -17q-11 0 -13 17q-3 45 0 104zM179 388q6 0 9 -7q15 -38 46 -54q7 -3 7 -9t-7 -9q-31 -16 -46 -54q-3 -7 -9 -7t-9 7q-15 38 -46 54q-7 3 -7 9t7 9q31 16 46 54q3 7 9 7z" />
<glyph unicode="&#xc0;" horiz-adv-x="684" d="M218 252h219q-72 186 -111 290q-6 -16 -108 -290zM508 67q-1 2 -53 137h-255q-14 -36 -31 -83t-23 -61q-3 -5 -0.5 -8t5.5 -3.5t8 -0.5h41q5 0 5 -5v-38q0 -5 -5 -5h-165q-5 0 -5 5v38q0 5 5 5h40q13 0 18 14q6 17 105 275t108 281q2 3 4 3h57q3 0 4 -3q10 -26 102 -262 t116 -299q3 -9 12 -9h48q5 0 5 -5v-38q0 -5 -5 -5h-192q-4 0 -4 5v38q0 5 4 5h45q8 0 9 3t-3 16zM257 817h56q11 0 16 -10q1 -2 15.5 -30t31.5 -62l26 -52q4 -8 -1 -12q-6 -4 -13 3q-113 122 -135 146q-6 7 -4 12t8 5z" />
<glyph unicode="&#xc1;" horiz-adv-x="684" d="M218 252h219q-72 186 -111 290q-6 -16 -108 -290zM508 67q-1 2 -53 137h-255q-14 -36 -31 -83t-23 -61q-3 -5 -0.5 -8t5.5 -3.5t8 -0.5h41q5 0 5 -5v-38q0 -5 -5 -5h-165q-5 0 -5 5v38q0 5 5 5h40q13 0 18 14q6 17 105 275t108 281q2 3 4 3h57q3 0 4 -3q10 -26 102 -262 t116 -299q3 -9 12 -9h48q5 0 5 -5v-38q0 -5 -5 -5h-192q-4 0 -4 5v38q0 5 4 5h45q8 0 9 3t-3 16zM418 817q6 0 8 -5t-4 -12q-22 -24 -135 -146q-7 -7 -13 -3q-5 4 -1 12l26 52t31.5 62t15.5 30q5 10 16 10h56z" />
<glyph unicode="&#xc2;" horiz-adv-x="684" d="M218 252h219q-72 186 -111 290q-6 -16 -108 -290zM508 67q-1 2 -53 137h-255q-14 -36 -31 -83t-23 -61q-3 -5 -0.5 -8t5.5 -3.5t8 -0.5h41q5 0 5 -5v-38q0 -5 -5 -5h-165q-5 0 -5 5v38q0 5 5 5h40q13 0 18 14q6 17 105 275t108 281q2 3 4 3h57q3 0 4 -3q10 -26 102 -262 t116 -299q3 -9 12 -9h48q5 0 5 -5v-38q0 -5 -5 -5h-192q-4 0 -4 5v38q0 5 4 5h45q8 0 9 3t-3 16zM339 738q-46 -40 -100 -85q-7 -6 -12 -1q-4 4 0 11q62 93 86 127q18 27 26 27t26 -27q24 -34 86 -127q4 -7 0 -11q-5 -5 -12 1q-54 45 -100 85z" />
<glyph unicode="&#xc3;" horiz-adv-x="684" d="M218 252h219q-72 186 -111 290q-6 -16 -108 -290zM508 67q-1 2 -53 137h-255q-14 -36 -31 -83t-23 -61q-3 -5 -0.5 -8t5.5 -3.5t8 -0.5h41q5 0 5 -5v-38q0 -5 -5 -5h-165q-5 0 -5 5v38q0 5 5 5h40q13 0 18 14q6 17 105 275t108 281q2 3 4 3h57q3 0 4 -3q10 -26 102 -262 t116 -299q3 -9 12 -9h48q5 0 5 -5v-38q0 -5 -5 -5h-192q-4 0 -4 5v38q0 5 4 5h45q8 0 9 3t-3 16zM356 747q31 -19 49 -19q27 0 36 33q3 11 10 11q9 0 6 -10q-10 -81 -68 -81q-25 0 -65 25q-21 13 -46 13q-29 0 -37 -34q-3 -11 -10 -11q-6 0 -6 10q1 34 18.5 57.5t49.5 23.5 q33 0 63 -18z" />
<glyph unicode="&#xc4;" horiz-adv-x="684" d="M218 252h219q-72 186 -111 290q-6 -16 -108 -290zM508 67q-1 2 -53 137h-255q-14 -36 -31 -83t-23 -61q-3 -5 -0.5 -8t5.5 -3.5t8 -0.5h41q5 0 5 -5v-38q0 -5 -5 -5h-165q-5 0 -5 5v38q0 5 5 5h40q13 0 18 14q6 17 105 275t108 281q2 3 4 3h57q3 0 4 -3q10 -26 102 -262 t116 -299q3 -9 12 -9h48q5 0 5 -5v-38q0 -5 -5 -5h-192q-4 0 -4 5v38q0 5 4 5h45q8 0 9 3t-3 16zM310 733q0 -5 -8 -10q-21 -12 -33 -37q-3 -7 -9 -7t-9 7q-12 25 -33 37q-8 5 -8 10t8 10q21 12 33 37q3 7 9 7t9 -7q12 -25 33 -37q8 -5 8 -10zM471 733q0 -5 -8 -10 q-21 -12 -33 -37q-4 -7 -9 -7t-9 7q-12 25 -33 37q-8 5 -8 10t8 10q21 12 33 37q4 7 9 7t9 -7q12 -25 33 -37q8 -5 8 -10z" />
<glyph unicode="&#xc5;" horiz-adv-x="684" d="M338 778q-19 0 -31.5 -13t-12.5 -32t13 -31.5t31 -12.5q19 0 32 12.5t13 31.5q0 18 -13 31.5t-32 13.5zM338 661q-29 0 -50 21.5t-21 50.5t21 50.5t50 21.5q30 0 51 -21.5t21 -50.5t-20.5 -50.5t-51.5 -21.5zM218 252h219q-72 186 -111 290q-6 -16 -108 -290zM508 67 q-1 2 -53 137h-255q-14 -36 -31 -83t-23 -61q-3 -5 -0.5 -8t5.5 -3.5t8 -0.5h41q5 0 5 -5v-38q0 -5 -5 -5h-165q-5 0 -5 5v38q0 5 5 5h40q13 0 18 14q6 17 105 275t108 281q2 3 4 3h57q3 0 4 -3q10 -26 102 -262t116 -299q3 -9 12 -9h48q5 0 5 -5v-38q0 -5 -5 -5h-192 q-4 0 -4 5v38q0 5 4 5h45q8 0 9 3t-3 16z" />
<glyph unicode="&#xc6;" horiz-adv-x="909" d="M474 281h-191l-126 -218q-6 -11 -4.5 -13t13.5 -2h49q4 0 4 -5v-39q0 -4 -4 -4h-180q-5 0 -5 4v39q0 5 5 5h38q13 0 17.5 2.5t11.5 14.5q233 396 293 499h-36q-5 0 -5 4v39q0 5 5 5h491q5 0 5 -6q0 -78 3 -125q1 -11 -10 -11q-10 0 -15.5 14.5t-8.5 32.5t-19.5 32.5 t-45.5 14.5h-214v-237q58 0 202 3l1 66q0 5 4 5h35q5 0 5 -5v-6v-14t-0.5 -20t-0.5 -25v-27v-27t0.5 -25t0.5 -20v-14v-6q0 -5 -5 -5h-35q-4 0 -4 5q-1 46 -1 69q-19 0 -92 1t-110 1v-235h133q93 0 129 24q22 14 49 64q4 9 14 9q12 0 9 -12q0 -1 -5 -20.5t-12 -47.5l-15 -60 q-1 -5 -7 -5h-433q-5 0 -5 5v38q0 5 5 5h59q7 0 7 9q1 31 1 224zM465 564h-18l-137 -237h164v76q0 116 -1 151q0 10 -8 10z" />
<glyph unicode="&#xc7;" horiz-adv-x="612" d="M328 -7q-129 6 -215 94t-86 218q0 139 87 227.5t226 88.5q77 0 151 -30q18 -9 27 -6.5t22 23.5q4 5 10 5q10 0 10 -8q4 -71 13 -145q1 -11 -10 -11q-9 0 -18 16q-29 50 -85 82t-124 32q-103 0 -168 -73t-65 -181q0 -116 69 -199t179 -83q111 0 173 85q10 14 23 39 q5 9 14 9q11 0 9 -9q-6 -54 -14 -110q-1 -8 -8 -12q-33 -20 -89.5 -35t-100.5 -17l-22 -40q69 -24 69 -74q0 -47 -44 -71.5t-110 -24.5q-14 0 -14 11t14 12q106 11 106 62q0 43 -70 49q-7 0 -4 7q23 36 45 69z" />
<glyph unicode="&#xc8;" horiz-adv-x="565" d="M221 817h56q11 0 16 -10q1 -2 15.5 -30t31.5 -62l26 -52q4 -8 -1 -12q-6 -4 -13 3q-113 122 -135 146q-6 7 -4 12t8 5zM502 5q-1 -5 -8 -5h-459q-5 0 -5 5v38q0 5 5 5h61q7 0 7 9q0 11 0.5 139t0.5 207q0 116 -1 151q0 10 -8 10h-60q-5 0 -5 4v39q0 5 5 5h470q5 0 5 -6 q0 -65 3 -125q1 -11 -10 -11q-10 0 -15.5 14.5t-8.5 32.5t-19.5 32.5t-45.5 14.5h-239v-237q37 0 121.5 1.5t105.5 1.5l1 66q0 5 4 5h35q5 0 5 -5v-5q0 -5 -0.5 -14t-0.5 -20v-25.5v-27.5v-43v-35l1 -14q0 -5 -5 -5h-35q-4 0 -4 5q-1 9 -1 26v43q-20 0 -104.5 1t-122.5 1 v-235h158q90 0 129 24q26 15 49 64q5 9 14 9q12 0 9 -12q-1 -5 -5 -20t-12 -48t-15 -60z" />
<glyph unicode="&#xc9;" horiz-adv-x="565" d="M391 817q6 0 8 -5t-4 -12q-22 -24 -135 -146q-7 -7 -13 -3q-5 4 -1 12l26 52t31.5 62t15.5 30q5 10 16 10h56zM502 5q-1 -5 -8 -5h-459q-5 0 -5 5v38q0 5 5 5h61q7 0 7 9q0 11 0.5 139t0.5 207q0 116 -1 151q0 10 -8 10h-60q-5 0 -5 4v39q0 5 5 5h470q5 0 5 -6 q0 -65 3 -125q1 -11 -10 -11q-10 0 -15.5 14.5t-8.5 32.5t-19.5 32.5t-45.5 14.5h-239v-237q37 0 121.5 1.5t105.5 1.5l1 66q0 5 4 5h35q5 0 5 -5v-5q0 -5 -0.5 -14t-0.5 -20v-25.5v-27.5v-43v-35l1 -14q0 -5 -5 -5h-35q-4 0 -4 5q-1 9 -1 26v43q-20 0 -104.5 1t-122.5 1 v-235h158q90 0 129 24q26 15 49 64q5 9 14 9q12 0 9 -12q-1 -5 -5 -20t-12 -48t-15 -60z" />
<glyph unicode="&#xca;" horiz-adv-x="565" d="M502 5q-1 -5 -8 -5h-459q-5 0 -5 5v38q0 5 5 5h61q7 0 7 9q0 11 0.5 139t0.5 207q0 116 -1 151q0 10 -8 10h-60q-5 0 -5 4v39q0 5 5 5h470q5 0 5 -6q0 -65 3 -125q1 -11 -10 -11q-10 0 -15.5 14.5t-8.5 32.5t-19.5 32.5t-45.5 14.5h-239v-237q37 0 121.5 1.5t105.5 1.5 l1 66q0 5 4 5h35q5 0 5 -5v-5q0 -5 -0.5 -14t-0.5 -20v-25.5v-27.5v-43v-35l1 -14q0 -5 -5 -5h-35q-4 0 -4 5q-1 9 -1 26v43q-20 0 -104.5 1t-122.5 1v-235h158q90 0 129 24q26 15 49 64q5 9 14 9q12 0 9 -12q-1 -5 -5 -20t-12 -48t-15 -60zM297 738q-46 -40 -100 -85 q-7 -6 -12 -1q-4 4 0 11q62 93 86 127q18 27 26 27t26 -27q24 -34 86 -127q4 -7 0 -11q-5 -5 -12 1q-54 45 -100 85z" />
<glyph unicode="&#xcb;" horiz-adv-x="565" d="M502 5q-1 -5 -8 -5h-459q-5 0 -5 5v38q0 5 5 5h61q7 0 7 9q0 11 0.5 139t0.5 207q0 116 -1 151q0 10 -8 10h-60q-5 0 -5 4v39q0 5 5 5h470q5 0 5 -6q0 -65 3 -125q1 -11 -10 -11q-10 0 -15.5 14.5t-8.5 32.5t-19.5 32.5t-45.5 14.5h-239v-237q37 0 121.5 1.5t105.5 1.5 l1 66q0 5 4 5h35q5 0 5 -5v-5q0 -5 -0.5 -14t-0.5 -20v-25.5v-27.5v-43v-35l1 -14q0 -5 -5 -5h-35q-4 0 -4 5q-1 9 -1 26v43q-20 0 -104.5 1t-122.5 1v-235h158q90 0 129 24q26 15 49 64q5 9 14 9q12 0 9 -12q-1 -5 -5 -20t-12 -48t-15 -60zM262 733q0 -5 -8 -10 q-21 -12 -33 -37q-3 -7 -9 -7t-9 7q-12 25 -33 37q-8 5 -8 10t8 10q21 12 33 37q3 7 9 7t9 -7q12 -25 33 -37q8 -5 8 -10zM423 733q0 -5 -8 -10q-21 -12 -33 -37q-4 -7 -9 -7t-9 7q-12 25 -33 37q-8 5 -8 10t8 10q21 12 33 37q4 7 9 7t9 -7q12 -25 33 -37q8 -5 8 -10z" />
<glyph unicode="&#xcc;" horiz-adv-x="277" d="M242 0h-208q-4 0 -4 5v38q0 5 5 5h60q7 0 7 9q1 44 1 346q0 25 -0.5 61.5t-0.5 63.5v26q0 10 -7 10h-60q-5 0 -5 4v39q0 5 5 5h207q5 0 5 -5v-39q0 -4 -5 -4h-60q-7 0 -7 -10q0 -1 -0.5 -27t-1 -62.5t-0.5 -61.5q0 -258 2 -346q0 -9 7 -9h60q5 0 5 -5v-38q0 -5 -5 -5z M71 817h56q11 0 16 -10q1 -2 15.5 -30t31.5 -62l26 -52q4 -8 -1 -12q-6 -4 -13 3q-113 122 -135 146q-6 7 -4 12t8 5z" />
<glyph unicode="&#xcd;" horiz-adv-x="277" d="M242 0h-208q-4 0 -4 5v38q0 5 5 5h60q7 0 7 9q1 44 1 346q0 25 -0.5 61.5t-0.5 63.5v26q0 10 -7 10h-60q-5 0 -5 4v39q0 5 5 5h207q5 0 5 -5v-39q0 -4 -5 -4h-60q-7 0 -7 -10q0 -1 -0.5 -27t-1 -62.5t-0.5 -61.5q0 -258 2 -346q0 -9 7 -9h60q5 0 5 -5v-38q0 -5 -5 -5z M226 817q6 0 8 -5t-4 -12q-22 -24 -135 -146q-7 -7 -13 -3q-5 4 -1 12l26 52t31.5 62t15.5 30q5 10 16 10h56z" />
<glyph unicode="&#xce;" horiz-adv-x="277" d="M242 0h-208q-4 0 -4 5v38q0 5 5 5h60q7 0 7 9q1 44 1 346q0 25 -0.5 61.5t-0.5 63.5v26q0 10 -7 10h-60q-5 0 -5 4v39q0 5 5 5h207q5 0 5 -5v-39q0 -4 -5 -4h-60q-7 0 -7 -10q0 -1 -0.5 -27t-1 -62.5t-0.5 -61.5q0 -258 2 -346q0 -9 7 -9h60q5 0 5 -5v-38q0 -5 -5 -5z M138 738q-46 -40 -100 -85q-7 -6 -12 -1q-4 4 0 11q62 93 86 127q18 27 26 27t26 -27q24 -34 86 -127q4 -7 0 -11q-5 -5 -12 1q-54 45 -100 85z" />
<glyph unicode="&#xcf;" horiz-adv-x="277" d="M242 0h-208q-4 0 -4 5v38q0 5 5 5h60q7 0 7 9q1 44 1 346q0 25 -0.5 61.5t-0.5 63.5v26q0 10 -7 10h-60q-5 0 -5 4v39q0 5 5 5h207q5 0 5 -5v-39q0 -4 -5 -4h-60q-7 0 -7 -10q0 -1 -0.5 -27t-1 -62.5t-0.5 -61.5q0 -258 2 -346q0 -9 7 -9h60q5 0 5 -5v-38q0 -5 -5 -5z M108 733q0 -5 -8 -10q-21 -12 -33 -37q-3 -7 -9 -7t-9 7q-12 25 -33 37q-8 5 -8 10t8 10q21 12 33 37q3 7 9 7t9 -7q12 -25 33 -37q8 -5 8 -10zM269 733q0 -5 -8 -10q-21 -12 -33 -37q-4 -7 -9 -7t-9 7q-12 25 -33 37q-8 5 -8 10t8 10q21 12 33 37q4 7 9 7t9 -7 q12 -25 33 -37q8 -5 8 -10z" />
<glyph unicode="&#xd0;" horiz-adv-x="719" d="M34 48h59q9 0 9 8q1 27 1 275h-68q-4 0 -4 4v31q0 4 4 4h68v33l-1 152q0 9 -7 9h-55q-4 0 -4 5v39q0 4 4 4h319q148 0 238 -83t90 -228q0 -141 -100 -221t-254 -80h-299q-4 0 -4 4v39q0 5 4 5zM351 564l-176 1q-2 -105 -2 -162v-33h134q5 0 5 -4v-31q0 -4 -5 -4h-134 l2 -283h152q130 0 207 66.5t77 186.5q0 50 -14.5 94.5t-44 83.5t-81.5 62t-120 23z" />
<glyph unicode="&#xd1;" horiz-adv-x="792" d="M757 564h-61q-8 0 -8 -10q0 -93 -1 -150q-1 -75 0 -200.5t1 -198.5q0 -5 -4 -5h-45q-5 0 -5 5v32q0 5 -4 9q-3 2 -90.5 89.5t-208 207.5t-172.5 172q-1 -33 -1 -112q0 -302 1 -346q0 -9 8 -9h61q4 0 4 -5v-38q0 -5 -4 -5h-193q-4 0 -4 5v38q0 5 4 5h61q8 0 8 9 q0 12 0.5 79.5t0.5 127v139.5q0 116 -1 151q0 10 -8 10h-61q-5 0 -5 4v39q0 5 5 5h243q5 0 5 -5v-39q0 -4 -5 -4h-56q-13 0 -13 -2q0 -1 3 -4l6 -6q15 -15 89.5 -88.5t173 -171.5t153.5 -152q1 83 1 264q0 82 -2 150q0 10 -7 10h-61q-5 0 -5 4v39q0 5 5 5h192q5 0 5 -5v-39 q0 -4 -5 -4zM432 747q31 -19 49 -19q27 0 36 33q3 11 10 11q9 0 6 -10q-10 -81 -68 -81q-25 0 -65 25q-21 13 -46 13q-29 0 -37 -34q-3 -11 -10 -11q-6 0 -6 10q1 34 18.5 57.5t49.5 23.5q33 0 63 -18z" />
<glyph unicode="&#xd2;" d="M346 -8q-136 0 -224.5 92.5t-88.5 227.5q0 136 89 222.5t219 86.5q135 0 224 -92.5t89 -227.5q0 -137 -87.5 -223t-220.5 -86zM353 43q109 0 167.5 71t58.5 176q0 113 -72 197.5t-191 84.5q-99 0 -153.5 -72t-54.5 -173q0 -110 67 -197t178 -87zM263 817h56q11 0 16 -10 q1 -2 15.5 -30t31.5 -62l26 -52q4 -8 -1 -12q-6 -4 -13 3q-113 122 -135 146q-6 7 -4 12t8 5z" />
<glyph unicode="&#xd3;" d="M346 -8q-136 0 -224.5 92.5t-88.5 227.5q0 136 89 222.5t219 86.5q135 0 224 -92.5t89 -227.5q0 -137 -87.5 -223t-220.5 -86zM353 43q109 0 167.5 71t58.5 176q0 113 -72 197.5t-191 84.5q-99 0 -153.5 -72t-54.5 -173q0 -110 67 -197t178 -87zM450 817q6 0 8 -5t-4 -12 q-22 -24 -135 -146q-7 -7 -13 -3q-5 4 -1 12l26 52t31.5 62t15.5 30q5 10 16 10h56z" />
<glyph unicode="&#xd4;" d="M346 -8q-136 0 -224.5 92.5t-88.5 227.5q0 136 89 222.5t219 86.5q135 0 224 -92.5t89 -227.5q0 -137 -87.5 -223t-220.5 -86zM353 43q109 0 167.5 71t58.5 176q0 113 -72 197.5t-191 84.5q-99 0 -153.5 -72t-54.5 -173q0 -110 67 -197t178 -87zM348 738 q-46 -40 -100 -85q-7 -6 -12 -1q-4 4 0 11q62 93 86 127q18 27 26 27t26 -27q24 -34 86 -127q4 -7 0 -11q-5 -5 -12 1q-54 45 -100 85z" />
<glyph unicode="&#xd5;" d="M346 -8q-136 0 -224.5 92.5t-88.5 227.5q0 136 89 222.5t219 86.5q135 0 224 -92.5t89 -227.5q0 -137 -87.5 -223t-220.5 -86zM353 43q109 0 167.5 71t58.5 176q0 113 -72 197.5t-191 84.5q-99 0 -153.5 -72t-54.5 -173q0 -110 67 -197t178 -87zM358 747q31 -19 49 -19 q27 0 36 33q3 11 10 11q9 0 6 -10q-10 -81 -68 -81q-25 0 -65 25q-21 13 -46 13q-29 0 -37 -34q-3 -11 -10 -11q-6 0 -6 10q1 34 18.5 57.5t49.5 23.5q33 0 63 -18z" />
<glyph unicode="&#xd6;" d="M346 -8q-136 0 -224.5 92.5t-88.5 227.5q0 136 89 222.5t219 86.5q135 0 224 -92.5t89 -227.5q0 -137 -87.5 -223t-220.5 -86zM353 43q109 0 167.5 71t58.5 176q0 113 -72 197.5t-191 84.5q-99 0 -153.5 -72t-54.5 -173q0 -110 67 -197t178 -87zM314 733q0 -5 -8 -10 q-21 -12 -33 -37q-3 -7 -9 -7t-9 7q-12 25 -33 37q-8 5 -8 10t8 10q21 12 33 37q3 7 9 7t9 -7q12 -25 33 -37q8 -5 8 -10zM475 733q0 -5 -8 -10q-21 -12 -33 -37q-4 -7 -9 -7t-9 7q-12 25 -33 37q-8 5 -8 10t8 10q21 12 33 37q4 7 9 7t9 -7q12 -25 33 -37q8 -5 8 -10z" />
<glyph unicode="&#xd7;" horiz-adv-x="587" d="M458 0l-164 165l-165 -165q-3 -3 -6 0l-22 22q-3 3 0 6l165 165l-164 163q-4 4 -1 7l22 22q3 3 7 -1l164 -164l163 164q4 4 7 1l22 -22q3 -3 -1 -7l-164 -163l165 -165q3 -3 0 -6l-22 -22q-3 -3 -6 0z" />
<glyph unicode="&#xd8;" d="M161 149l344 341q-75 82 -189 82q-99 0 -153.5 -72t-54.5 -173q0 -99 53 -178zM529 459l-344 -341q68 -75 168 -75q109 0 167.5 71t58.5 176q0 95 -50 169zM632 611l22 -22q3 -3 -1 -7l-72 -72q73 -89 73 -209q0 -137 -87.5 -223t-220.5 -86q-122 0 -209 77l-69 -68 q-3 -3 -6 0l-22 22q-3 3 0 6l70 69q-77 88 -77 214q0 136 89 222.5t219 86.5q125 0 213 -82l72 71q4 4 6 1z" />
<glyph unicode="&#xd9;" horiz-adv-x="683" d="M577 554q-1 -35 -3 -147q0 -20 0.5 -76.5t-0.5 -95t-5 -57.5q-12 -65 -51 -108t-86.5 -60.5t-102.5 -17.5q-83 0 -148 49t-73 137q-2 25 -2 229q0 112 -1 147q0 10 -7 10h-61q-5 0 -5 4v39q0 5 5 5h211q4 0 4 -5v-39q0 -4 -4 -4h-62q-7 0 -7 -10q-2 -70 -2 -147 q0 -179 6 -229q6 -62 50.5 -99.5t108.5 -37.5q72 0 121.5 42t54.5 112q2 26 5 212q1 34 0 87.5t-1 59.5q0 10 -8 10h-61q-5 0 -5 4v39q0 5 5 5h192q5 0 5 -5v-39q0 -4 -5 -4h-61q-7 0 -7 -10zM267 817h56q11 0 16 -10q1 -2 15.5 -30t31.5 -62l26 -52q4 -8 -1 -12 q-6 -4 -13 3q-113 122 -135 146q-6 7 -4 12t8 5z" />
<glyph unicode="&#xda;" horiz-adv-x="683" d="M577 554q-1 -35 -3 -147q0 -20 0.5 -76.5t-0.5 -95t-5 -57.5q-12 -65 -51 -108t-86.5 -60.5t-102.5 -17.5q-83 0 -148 49t-73 137q-2 25 -2 229q0 112 -1 147q0 10 -7 10h-61q-5 0 -5 4v39q0 5 5 5h211q4 0 4 -5v-39q0 -4 -4 -4h-62q-7 0 -7 -10q-2 -70 -2 -147 q0 -179 6 -229q6 -62 50.5 -99.5t108.5 -37.5q72 0 121.5 42t54.5 112q2 26 5 212q1 34 0 87.5t-1 59.5q0 10 -8 10h-61q-5 0 -5 4v39q0 5 5 5h192q5 0 5 -5v-39q0 -4 -5 -4h-61q-7 0 -7 -10zM419 817q6 0 8 -5t-4 -12q-22 -24 -135 -146q-7 -7 -13 -3q-5 4 -1 12l26 52 t31.5 62t15.5 30q5 10 16 10h56z" />
<glyph unicode="&#xdb;" horiz-adv-x="683" d="M577 554q-1 -35 -3 -147q0 -20 0.5 -76.5t-0.5 -95t-5 -57.5q-12 -65 -51 -108t-86.5 -60.5t-102.5 -17.5q-83 0 -148 49t-73 137q-2 25 -2 229q0 112 -1 147q0 10 -7 10h-61q-5 0 -5 4v39q0 5 5 5h211q4 0 4 -5v-39q0 -4 -4 -4h-62q-7 0 -7 -10q-2 -70 -2 -147 q0 -179 6 -229q6 -62 50.5 -99.5t108.5 -37.5q72 0 121.5 42t54.5 112q2 26 5 212q1 34 0 87.5t-1 59.5q0 10 -8 10h-61q-5 0 -5 4v39q0 5 5 5h192q5 0 5 -5v-39q0 -4 -5 -4h-61q-7 0 -7 -10zM352 738q-46 -40 -100 -85q-7 -6 -12 -1q-4 4 0 11q62 93 86 127q18 27 26 27 t26 -27q24 -34 86 -127q4 -7 0 -11q-5 -5 -12 1q-54 45 -100 85z" />
<glyph unicode="&#xdc;" horiz-adv-x="678" d="M580 554q-1 -35 -3 -147q0 -20 0.5 -76.5t-0.5 -95t-5 -57.5q-12 -65 -51 -108t-86.5 -60.5t-102.5 -17.5q-83 0 -148 49t-73 137q-2 25 -2 229q0 112 -1 147q0 10 -7 10h-61q-5 0 -5 4v39q0 5 5 5h211q4 0 4 -5v-39q0 -4 -4 -4h-62q-7 0 -7 -10q-2 -70 -2 -147 q0 -179 6 -229q6 -62 50.5 -99.5t108.5 -37.5q72 0 121.5 42t54.5 112q2 26 5 212q1 34 0 87.5t-1 59.5q0 10 -8 10h-61q-5 0 -5 4v39q0 5 5 5h192q5 0 5 -5v-39q0 -4 -5 -4h-61q-7 0 -7 -10zM324 733q0 -5 -8 -10q-21 -12 -33 -37q-3 -7 -9 -7t-9 7q-12 25 -33 37 q-8 5 -8 10t8 10q21 12 33 37q3 7 9 7t9 -7q12 -25 33 -37q8 -5 8 -10zM485 733q0 -5 -8 -10q-21 -12 -33 -37q-4 -7 -9 -7t-9 7q-12 25 -33 37q-8 5 -8 10t8 10q21 12 33 37q4 7 9 7t9 -7q12 -25 33 -37q8 -5 8 -10z" />
<glyph unicode="&#xdd;" horiz-adv-x="704" d="M443 817q6 0 8 -5t-4 -12q-22 -24 -135 -146q-7 -7 -13 -3q-5 4 -1 12l26 52t31.5 62t15.5 30q5 10 16 10h56zM326 194q-14 22 -57.5 95t-94 158t-64.5 108q-6 9 -19 9h-56q-5 0 -5 5v39q0 4 5 4h223q4 0 4 -4v-39q0 -5 -4 -5h-62q-7 0 -3 -6q111 -194 181 -312 q135 238 173 303q6 11 4.5 13t-13.5 2h-49q-4 0 -4 5v39q0 4 4 4h180q5 0 5 -4v-39q0 -5 -5 -5h-38q-13 0 -17.5 -2.5t-11.5 -14.5q-15 -25 -45.5 -77.5t-69.5 -119t-91 -156.5q0 -24 0.5 -56.5t1 -51.5t0.5 -29q0 -9 7 -9h60q5 0 5 -5v-38q0 -5 -5 -5h-208q-4 0 -4 5v38 q0 5 5 5h60q7 0 7 9q0 74 1 137z" />
<glyph unicode="&#xde;" horiz-adv-x="475" d="M173 443v-40q0 -137 1 -200q48 -5 75 -2q50 5 86 39.5t36 83.5t-35.5 82t-86.5 39q-12 2 -37.5 1t-38.5 -3zM247 43v-38q0 -5 -5 -5h-208q-4 0 -4 5v38q0 5 5 5h60q7 0 7 9q1 44 1 346q0 25 -0.5 61.5t-0.5 63.5v26q0 10 -7 10h-60q-5 0 -5 4v39q0 5 5 5h207q5 0 5 -5 v-39q0 -4 -5 -4h-60q-7 0 -7 -10l-1 -10v-26.5v-31.5q19 1 49 1q62 0 108 -16.5t69.5 -43t34 -53t10.5 -53.5q0 -25 -10.5 -51t-34 -52.5t-69.5 -43t-108 -16.5q-11 0 -49 2q0 -27 0.5 -62.5t0.5 -40.5q0 -9 7 -9h60q5 0 5 -5z" />
<glyph unicode="&#xdf;" horiz-adv-x="471" d="M399 85q0 68 -66 101q-28 14 -42.5 23t-33.5 24t-27 32.5t-8 40.5q0 26 11 49.5t33 51.5t23 30q25 41 25 96q0 30 -22 52.5t-53 22.5q-47 0 -66 -18q-39 -34 -39 -130v-90v-165t1 -150q0 -10 9 -10h44q4 0 4 -5v-36q0 -4 -4 -4h-164q-4 0 -4 4v36q0 5 4 5h37q8 0 8 10 q3 174 3 270h-41q-4 0 -4 4v37q0 4 5 4h40v69q0 90 57.5 152t134.5 62q45 0 77.5 -27t32.5 -72q0 -70 -53 -129q-47 -54 -47 -96q0 -12 4 -21t15 -18t17.5 -13.5t26.5 -15t27 -14.5q45 -25 66 -54t20 -80q-1 -50 -38 -85.5t-98 -35.5q-38 0 -74 26q-5 5 -5 13l-6 64 q-2 18 6 20q6 1 18 -20q34 -74 79 -74q24 0 45.5 16.5t21.5 47.5z" />
<glyph unicode="&#xe0;" horiz-adv-x="371" d="M81 574h56q11 0 16 -10q1 -2 15.5 -30t31.5 -62l26 -52q4 -8 -1 -12q-6 -4 -13 3q-113 122 -135 146q-6 7 -4 12t8 5zM214 169q-50 -8 -92 -32q-37 -21 -37 -52q0 -17 12.5 -30t30.5 -13q44 0 85 43q1 65 1 84zM147 325q-45 0 -84 -39q-9 -9 -16 -3q-9 7 2 20 q26 31 62 49.5t71 18.5q50 0 73.5 -36t23.5 -81q0 -36 0.5 -89.5t0.5 -75.5q0 -19 10 -31.5t29 -12.5q17 0 34 14q6 5 11 5q10 0 5 -12q-11 -24 -37.5 -42t-56.5 -18q-25 0 -43 18.5t-21 47.5q-24 -23 -62.5 -44.5t-69.5 -21.5q-26 0 -44.5 19.5t-18.5 50.5q0 56 61 87 q42 21 137 43l1 46q0 42 -18 64.5t-50 22.5z" />
<glyph unicode="&#xe1;" horiz-adv-x="371" d="M214 169q-50 -8 -92 -32q-37 -21 -37 -52q0 -17 12.5 -30t30.5 -13q44 0 85 43q1 65 1 84zM147 325q-45 0 -84 -39q-9 -9 -16 -3q-9 7 2 20q26 31 62 49.5t71 18.5q50 0 73.5 -36t23.5 -81q0 -36 0.5 -89.5t0.5 -75.5q0 -19 10 -31.5t29 -12.5q17 0 34 14q6 5 11 5 q10 0 5 -12q-11 -24 -37.5 -42t-56.5 -18q-25 0 -43 18.5t-21 47.5q-24 -23 -62.5 -44.5t-69.5 -21.5q-26 0 -44.5 19.5t-18.5 50.5q0 56 61 87q42 21 137 43l1 46q0 42 -18 64.5t-50 22.5zM270 574q6 0 8 -5t-4 -12q-22 -24 -135 -146q-7 -7 -13 -3q-5 4 -1 12l26 52 t31.5 62t15.5 30q5 10 16 10h56z" />
<glyph unicode="&#xe2;" horiz-adv-x="371" d="M214 169q-50 -8 -92 -32q-37 -21 -37 -52q0 -17 12.5 -30t30.5 -13q44 0 85 43q1 65 1 84zM147 325q-45 0 -84 -39q-9 -9 -16 -3q-9 7 2 20q26 31 62 49.5t71 18.5q50 0 73.5 -36t23.5 -81q0 -36 0.5 -89.5t0.5 -75.5q0 -19 10 -31.5t29 -12.5q17 0 34 14q6 5 11 5 q10 0 5 -12q-11 -24 -37.5 -42t-56.5 -18q-25 0 -43 18.5t-21 47.5q-24 -23 -62.5 -44.5t-69.5 -21.5q-26 0 -44.5 19.5t-18.5 50.5q0 56 61 87q42 21 137 43l1 46q0 42 -18 64.5t-50 22.5zM165 498q-46 -40 -100 -85q-7 -6 -12 -1q-4 4 0 11q62 93 86 127q18 27 26 27 t26 -27q24 -34 86 -127q4 -7 0 -11q-5 -5 -12 1q-54 45 -100 85z" />
<glyph unicode="&#xe3;" horiz-adv-x="371" d="M214 169q-50 -8 -92 -32q-37 -21 -37 -52q0 -17 12.5 -30t30.5 -13q44 0 85 43q1 65 1 84zM147 325q-45 0 -84 -39q-9 -9 -16 -3q-9 7 2 20q26 31 62 49.5t71 18.5q50 0 73.5 -36t23.5 -81q0 -36 0.5 -89.5t0.5 -75.5q0 -19 10 -31.5t29 -12.5q17 0 34 14q6 5 11 5 q10 0 5 -12q-11 -24 -37.5 -42t-56.5 -18q-25 0 -43 18.5t-21 47.5q-24 -23 -62.5 -44.5t-69.5 -21.5q-26 0 -44.5 19.5t-18.5 50.5q0 56 61 87q42 21 137 43l1 46q0 42 -18 64.5t-50 22.5zM186 504q31 -19 49 -19q27 0 36 33q3 11 10 11q9 0 6 -10q-10 -81 -68 -81 q-25 0 -65 25q-21 13 -46 13q-29 0 -37 -34q-3 -11 -10 -11q-6 0 -6 10q1 34 18.5 57.5t49.5 23.5q33 0 63 -18z" />
<glyph unicode="&#xe4;" horiz-adv-x="371" d="M214 169q-50 -8 -92 -32q-37 -21 -37 -52q0 -17 12.5 -30t30.5 -13q44 0 85 43q1 65 1 84zM147 325q-45 0 -84 -39q-9 -9 -16 -3q-9 7 2 20q26 31 62 49.5t71 18.5q50 0 73.5 -36t23.5 -81q0 -36 0.5 -89.5t0.5 -75.5q0 -19 10 -31.5t29 -12.5q17 0 34 14q6 5 11 5 q10 0 5 -12q-11 -24 -37.5 -42t-56.5 -18q-25 0 -43 18.5t-21 47.5q-24 -23 -62.5 -44.5t-69.5 -21.5q-26 0 -44.5 19.5t-18.5 50.5q0 56 61 87q42 21 137 43l1 46q0 42 -18 64.5t-50 22.5zM146 481q0 -5 -8 -10q-21 -12 -33 -37q-3 -7 -9 -7t-9 7q-12 25 -33 37q-8 5 -8 10 t8 10q21 12 33 37q3 7 9 7t9 -7q12 -25 33 -37q8 -5 8 -10zM307 481q0 -5 -8 -10q-21 -12 -33 -37q-4 -7 -9 -7t-9 7q-12 25 -33 37q-8 5 -8 10t8 10q21 12 33 37q4 7 9 7t9 -7q12 -25 33 -37q8 -5 8 -10z" />
<glyph unicode="&#xe5;" horiz-adv-x="371" d="M183 535q-19 0 -31.5 -13t-12.5 -32t13 -31.5t31 -12.5q19 0 32 12.5t13 31.5q0 18 -13 31.5t-32 13.5zM183 418q-29 0 -50 21.5t-21 50.5t21 50.5t50 21.5q30 0 51 -21.5t21 -50.5t-20.5 -50.5t-51.5 -21.5zM214 169q-50 -8 -92 -32q-37 -21 -37 -52q0 -17 12.5 -30 t30.5 -13q44 0 85 43q1 65 1 84zM147 325q-45 0 -84 -39q-9 -9 -16 -3q-9 7 2 20q26 31 62 49.5t71 18.5q50 0 73.5 -36t23.5 -81q0 -36 0.5 -89.5t0.5 -75.5q0 -19 10 -31.5t29 -12.5q17 0 34 14q6 5 11 5q10 0 5 -12q-11 -24 -37.5 -42t-56.5 -18q-25 0 -43 18.5t-21 47.5 q-24 -23 -62.5 -44.5t-69.5 -21.5q-26 0 -44.5 19.5t-18.5 50.5q0 56 61 87q42 21 137 43l1 46q0 42 -18 64.5t-50 22.5z" />
<glyph unicode="&#xe6;" horiz-adv-x="533" d="M264 323q40 48 94 48q106 0 149 -99q6 -13 -4 -15q-9 -3 -23 -7t-33 -9.5t-65.5 -18.5t-102.5 -29q5 -58 40.5 -100t100.5 -42q41 0 75 26q8 6 12 5q9 -2 4 -13q-14 -32 -50 -54.5t-71 -22.5q-46 0 -85 21.5t-63 60.5q-15 -17 -34 -33t-54 -32.5t-69 -16.5q-27 0 -48 21 t-21 51q0 59 54 88q23 13 106 37l39 11v38q1 41 -18 64t-49 23q-41 0 -77 -36q-14 -14 -22 -8q-11 8 0 21q60 69 128 69q60 0 87 -48zM418 281q-6 24 -25 42t-44 18q-38 0 -54.5 -38t-15.5 -84l119 35q17 5 20.5 11t-0.5 16zM215 175q-79 -24 -93 -32q-37 -19 -37 -54 q0 -16 14.5 -27t37.5 -11t50.5 12.5t44.5 31.5q-17 37 -17 80z" />
<glyph unicode="&#xe7;" horiz-adv-x="352" d="M136 -74q4 9 42 68q-70 8 -114 62t-44 122q0 84 60.5 141.5t138.5 57.5q57 0 92 -27q17 -13 16 -30.5t-18 -31.5q-18 -15 -33 4q-36 47 -84 47q-55 0 -81.5 -39t-26.5 -89q0 -62 38.5 -110.5t105.5 -48.5q52 0 87 25q9 6 12 4q8 -3 3 -14q-16 -33 -50 -53t-72 -22 l-20 -37q68 -24 68 -74q0 -47 -43.5 -71.5t-108.5 -24.5q-15 0 -15 11q0 12 15 13q104 11 104 61q0 44 -69 48q-3 1 -4 4t1 4z" />
<glyph unicode="&#xe8;" horiz-adv-x="341" d="M73 574h56q11 0 16 -10q1 -2 15.5 -30t31.5 -62l26 -52q4 -8 -1 -12q-6 -4 -13 3q-113 122 -135 146q-6 7 -4 12t8 5zM199 -8q-76 0 -127.5 51t-51.5 134q0 88 44 141t103 53q103 0 146 -100q4 -9 -5 -12q-59 -21 -225 -66q8 -60 44.5 -100.5t95.5 -40.5q48 0 81 25 q5 4 10 4q11 0 5 -14q-15 -33 -50.5 -54t-69.5 -21zM223 279q-6 25 -26 43.5t-43 18.5q-33 0 -55 -34.5t-19 -89.5q84 23 121 36q18 6 21.5 10.5t0.5 15.5z" />
<glyph unicode="&#xe9;" horiz-adv-x="341" d="M281 574q6 0 8 -5t-4 -12q-22 -24 -135 -146q-7 -7 -13 -3q-5 4 -1 12l26 52t31.5 62t15.5 30q5 10 16 10h56zM199 -8q-76 0 -127.5 51t-51.5 134q0 88 44 141t103 53q103 0 146 -100q4 -9 -5 -12q-59 -21 -225 -66q8 -60 44.5 -100.5t95.5 -40.5q48 0 81 25q5 4 10 4 q11 0 5 -14q-15 -33 -50.5 -54t-69.5 -21zM223 279q-6 25 -26 43.5t-43 18.5q-33 0 -55 -34.5t-19 -89.5q84 23 121 36q18 6 21.5 10.5t0.5 15.5z" />
<glyph unicode="&#xea;" horiz-adv-x="341" d="M171 495q-46 -40 -100 -85q-7 -6 -12 -1q-4 4 0 11q62 93 86 127q18 27 26 27t26 -27q24 -34 86 -127q4 -7 0 -11q-5 -5 -12 1q-54 45 -100 85zM199 -8q-76 0 -127.5 51t-51.5 134q0 88 44 141t103 53q103 0 146 -100q4 -9 -5 -12q-59 -21 -225 -66q8 -60 44.5 -100.5 t95.5 -40.5q48 0 81 25q5 4 10 4q11 0 5 -14q-15 -33 -50.5 -54t-69.5 -21zM223 279q-6 25 -26 43.5t-43 18.5q-33 0 -55 -34.5t-19 -89.5q84 23 121 36q18 6 21.5 10.5t0.5 15.5z" />
<glyph unicode="&#xeb;" horiz-adv-x="341" d="M138 481q0 -5 -8 -10q-21 -12 -33 -37q-3 -7 -9 -7t-9 7q-12 25 -33 37q-8 5 -8 10t8 10q21 12 33 37q3 7 9 7t9 -7q12 -25 33 -37q8 -5 8 -10zM299 481q0 -5 -8 -10q-21 -12 -33 -37q-4 -7 -9 -7t-9 7q-12 25 -33 37q-8 5 -8 10t8 10q21 12 33 37q4 7 9 7t9 -7 q12 -25 33 -37q8 -5 8 -10zM199 -8q-76 0 -127.5 51t-51.5 134q0 88 44 141t103 53q103 0 146 -100q4 -9 -5 -12q-59 -21 -225 -66q8 -60 44.5 -100.5t95.5 -40.5q48 0 81 25q5 4 10 4q11 0 5 -14q-15 -33 -50.5 -54t-69.5 -21zM223 279q-6 25 -26 43.5t-43 18.5 q-33 0 -55 -34.5t-19 -89.5q84 23 121 36q18 6 21.5 10.5t0.5 15.5z" />
<glyph unicode="&#xec;" horiz-adv-x="211" d="M9 574h56q11 0 16 -10q1 -2 15.5 -30t31.5 -62l26 -52q4 -8 -1 -12q-6 -4 -13 3q-113 122 -135 146q-6 7 -4 12t8 5zM134 377q0 -252 1 -321q0 -11 9 -11h47q5 0 5 -5v-36q0 -4 -5 -4h-166q-5 0 -5 4v36q0 5 5 5h35q8 0 8 12q2 100 2 215q0 25 -5.5 31.5t-28.5 11.5 q-6 1 -6 10t5 12l83 46q8 4 12 2t4 -8z" />
<glyph unicode="&#xed;" horiz-adv-x="211" d="M167 574q6 0 8 -5t-4 -12q-22 -24 -135 -146q-7 -7 -13 -3q-5 4 -1 12l26 52t31.5 62t15.5 30q5 10 16 10h56zM134 377q0 -252 1 -321q0 -11 9 -11h47q5 0 5 -5v-36q0 -4 -5 -4h-166q-5 0 -5 4v36q0 5 5 5h35q8 0 8 12q2 100 2 215q0 25 -5.5 31.5t-28.5 11.5q-6 1 -6 10 t5 12l83 46q8 4 12 2t4 -8z" />
<glyph unicode="&#xee;" horiz-adv-x="212" d="M134 377q0 -252 1 -321q0 -11 9 -11h47q5 0 5 -5v-36q0 -4 -5 -4h-166q-5 0 -5 4v36q0 5 5 5h35q8 0 8 12q2 100 2 215q0 25 -5.5 31.5t-28.5 11.5q-6 1 -6 10t5 12l83 46q8 4 12 2t4 -8zM102 495q-46 -40 -100 -85q-7 -6 -12 -1q-4 4 0 11q62 93 86 127q18 27 26 27 t26 -27q24 -34 86 -127q4 -7 0 -11q-5 -5 -12 1q-54 45 -100 85z" />
<glyph unicode="&#xef;" horiz-adv-x="212" d="M134 377q0 -252 1 -321q0 -11 9 -11h47q5 0 5 -5v-36q0 -4 -5 -4h-166q-5 0 -5 4v36q0 5 5 5h35q8 0 8 12q2 100 2 215q0 25 -5.5 31.5t-28.5 11.5q-6 1 -6 10t5 12l83 46q8 4 12 2t4 -8zM70 481q0 -5 -8 -10q-21 -12 -33 -37q-3 -7 -9 -7t-9 7q-12 25 -33 37q-8 5 -8 10 t8 10q21 12 33 37q3 7 9 7t9 -7q12 -25 33 -37q8 -5 8 -10zM231 481q0 -5 -8 -10q-21 -12 -33 -37q-4 -7 -9 -7t-9 7q-12 25 -33 37q-8 5 -8 10t8 10q21 12 33 37q4 7 9 7t9 -7q12 -25 33 -37q8 -5 8 -10z" />
<glyph unicode="&#xf0;" horiz-adv-x="414" d="M387 200q0 -84 -55 -146t-136 -62q-74 0 -125 51.5t-51 128.5q0 78 58.5 141.5t140.5 63.5q37 0 75 -21q-28 88 -86 156l-108 -70q-1 -1 -2.5 -0.5t-2.5 1.5l-17 26q-2 4 1 6l102 66q-49 47 -100 72q-9 4 -7 11l11 24q3 7 12 3q73 -30 130 -81l101 66q4 4 6 -1l17 -26 q2 -4 -2 -6l-94 -61q132 -140 132 -342zM324 178q0 71 -37 115.5t-97 44.5q-53 0 -80 -38.5t-27 -89.5q0 -69 39.5 -124t99.5 -55q45 0 73.5 38t28.5 109z" />
<glyph unicode="&#xf1;" horiz-adv-x="461" d="M70 270q1 -49 -2 -214q0 -11 -8 -11h-35q-5 0 -5 -5v-36q0 -4 5 -4h154q5 0 5 4v36q0 5 -5 5h-35q-9 0 -9 8q0 18 -0.5 92t-0.5 118q41 69 102 69q20 0 37 -6t32.5 -31t15.5 -67q0 -125 -1 -172q0 -11 -7 -11h-37q-5 0 -5 -5v-36q0 -4 5 -4h167q5 0 5 4v36q0 5 -5 5h-49 q-7 0 -7 10q-1 48 -1 197q0 125 -107 125q-85 0 -145 -74v74q0 6 -4 8t-12 -2q-4 -2 -41 -23t-49 -27q-4 -2 -4 -10t5 -9q29 -8 34.5 -13.5t6.5 -30.5zM250 504q31 -19 49 -19q27 0 36 33q3 11 10 11q9 0 6 -10q-10 -81 -68 -81q-25 0 -65 25q-21 13 -46 13q-29 0 -37 -34 q-3 -11 -10 -11q-6 0 -6 10q1 34 18.5 57.5t49.5 23.5q33 0 63 -18z" />
<glyph unicode="&#xf2;" horiz-adv-x="434" d="M132 574h56q11 0 16 -10q1 -2 15.5 -30t31.5 -62l26 -52q4 -8 -1 -12q-6 -4 -13 3q-113 122 -135 146q-6 7 -4 12t8 5zM192 339q-51 -1 -79.5 -35.5t-28.5 -88.5q0 -72 41 -128.5t111 -56.5q51 1 79 35.5t28 89.5q0 72 -40.5 128t-110.5 56zM204 -8q-82 0 -133 54.5 t-51 134.5q0 79 60.5 137.5t142.5 58.5t133 -54.5t51 -134.5q0 -79 -61 -137.5t-142 -58.5z" />
<glyph unicode="&#xf3;" horiz-adv-x="434" d="M301 574q6 0 8 -5t-4 -12q-22 -24 -135 -146q-7 -7 -13 -3q-5 4 -1 12l26 52t31.5 62t15.5 30q5 10 16 10h56zM192 339q-51 -1 -79.5 -35.5t-28.5 -88.5q0 -72 41 -128.5t111 -56.5q51 1 79 35.5t28 89.5q0 72 -40.5 128t-110.5 56zM204 -8q-82 0 -133 54.5t-51 134.5 q0 79 60.5 137.5t142.5 58.5t133 -54.5t51 -134.5q0 -79 -61 -137.5t-142 -58.5z" />
<glyph unicode="&#xf4;" horiz-adv-x="434" d="M192 339q-51 -1 -79.5 -35.5t-28.5 -88.5q0 -72 41 -128.5t111 -56.5q51 1 79 35.5t28 89.5q0 72 -40.5 128t-110.5 56zM204 -8q-82 0 -133 54.5t-51 134.5q0 79 60.5 137.5t142.5 58.5t133 -54.5t51 -134.5q0 -79 -61 -137.5t-142 -58.5zM218 495q-46 -40 -100 -85 q-7 -6 -12 -1q-4 4 0 11q62 93 86 127q18 27 26 27t26 -27q24 -34 86 -127q4 -7 0 -11q-5 -5 -12 1q-54 45 -100 85z" />
<glyph unicode="&#xf5;" horiz-adv-x="434" d="M192 339q-51 -1 -79.5 -35.5t-28.5 -88.5q0 -72 41 -128.5t111 -56.5q51 1 79 35.5t28 89.5q0 72 -40.5 128t-110.5 56zM204 -8q-82 0 -133 54.5t-51 134.5q0 79 60.5 137.5t142.5 58.5t133 -54.5t51 -134.5q0 -79 -61 -137.5t-142 -58.5zM239 504q31 -19 49 -19 q27 0 36 33q3 11 10 11q8 0 6 -10q-10 -81 -68 -81q-25 0 -65 25q-21 13 -46 13q-29 0 -37 -34q-3 -11 -10 -11q-6 0 -6 10q1 34 18.5 57.5t49.5 23.5q33 0 63 -18z" />
<glyph unicode="&#xf6;" horiz-adv-x="434" d="M192 339q-51 -1 -79.5 -35.5t-28.5 -88.5q0 -72 41 -128.5t111 -56.5q51 1 79 35.5t28 89.5q0 72 -40.5 128t-110.5 56zM204 -8q-82 0 -133 54.5t-51 134.5q0 79 60.5 137.5t142.5 58.5t133 -54.5t51 -134.5q0 -79 -61 -137.5t-142 -58.5zM183 481q0 -5 -8 -10 q-21 -12 -33 -37q-4 -7 -9 -7t-9 7q-12 25 -33 37q-8 5 -8 10t8 10q21 12 33 37q4 7 9 7t9 -7q12 -25 33 -37q8 -5 8 -10zM344 481q0 -5 -8 -10q-21 -12 -33 -37q-3 -7 -9 -7t-9 7q-12 25 -33 37q-8 5 -8 10t8 10q21 12 33 37q3 7 9 7t9 -7q12 -25 33 -37q8 -5 8 -10z" />
<glyph unicode="&#xf7;" horiz-adv-x="587" d="M292 293q-15 0 -25 10.5t-10 24.5q0 16 11 27.5t27 11.5q15 0 25 -10t10 -24q0 -17 -11 -28.5t-27 -11.5zM291 18q-15 0 -25 10.5t-10 24.5q0 16 11 27.5t27 11.5q15 0 25 -10t10 -24q0 -17 -11 -28.5t-27 -11.5zM104 209h378q5 0 5 -4v-31q0 -4 -5 -4h-378q-4 0 -4 4v31 q0 4 4 4z" />
<glyph unicode="&#xf8;" horiz-adv-x="435" d="M204 -8q-62 0 -108 33l-45 -46q-3 -3 -6 0l-22 22q-3 3 0 6l44 44q-47 53 -47 130q0 79 60.5 137.5t142.5 58.5q72 0 122 -45l43 44q4 4 7 1l21 -23q3 -3 0 -6l-45 -45q36 -50 36 -115q0 -79 -61 -137.5t-142 -58.5zM192 339q-51 -1 -79.5 -35.5t-28.5 -88.5 q0 -65 31 -115l184 186q-41 53 -107 53zM343 155q0 53 -22 97l-181 -183q41 -39 96 -39q51 1 79 35.5t28 89.5z" />
<glyph unicode="&#xf9;" horiz-adv-x="441" d="M137 574h56q11 0 16 -10q1 -2 15.5 -30t31.5 -62l26 -52q4 -8 -1 -12q-6 -4 -13 3q-113 122 -135 146q-6 7 -4 12t8 5zM301 272q0 24 -6.5 30.5t-36.5 12.5q-5 1 -5 10q0 8 4 10q8 4 29 15t39 20.5t24 12.5q7 4 11.5 2t4.5 -8q0 -238 1 -307q0 -9 9 -9h24q5 0 5 -6v-9 q0 -4 -4 -6q-40 -20 -85 -45q-17 -9 -17 7l1 63q-87 -73 -151 -73q-49 0 -69 35.5t-19 81.5q2 110 2 163q0 24 -5.5 31t-33.5 12q-5 1 -5 9q0 9 4 11q12 7 49 27t39 21q8 4 12 2t4 -8v-263q0 -70 76 -70q19 0 48 14.5t49 36.5q2 124 2 177z" />
<glyph unicode="&#xfa;" horiz-adv-x="441" d="M311 574q6 0 8 -5t-4 -12q-22 -24 -135 -146q-7 -7 -13 -3q-5 4 -1 12l26 52t31.5 62t15.5 30q5 10 16 10h56zM301 272q0 24 -6.5 30.5t-36.5 12.5q-5 1 -5 10q0 8 4 10q8 4 29 15t39 20.5t24 12.5q7 4 11.5 2t4.5 -8q0 -238 1 -307q0 -9 9 -9h24q5 0 5 -6v-9q0 -4 -4 -6 q-40 -20 -85 -45q-17 -9 -17 7l1 63q-87 -73 -151 -73q-49 0 -69 35.5t-19 81.5q2 110 2 163q0 24 -5.5 31t-33.5 12q-5 1 -5 9q0 9 4 11q12 7 49 27t39 21q8 4 12 2t4 -8v-263q0 -70 76 -70q19 0 48 14.5t49 36.5q2 124 2 177z" />
<glyph unicode="&#xfb;" horiz-adv-x="441" d="M301 272q0 24 -6.5 30.5t-36.5 12.5q-5 1 -5 10q0 8 4 10q8 4 29 15t39 20.5t24 12.5q7 4 11.5 2t4.5 -8q0 -238 1 -307q0 -9 9 -9h24q5 0 5 -6v-9q0 -4 -4 -6q-40 -20 -85 -45q-17 -9 -17 7l1 63q-87 -73 -151 -73q-49 0 -69 35.5t-19 81.5q2 110 2 163q0 24 -5.5 31 t-33.5 12q-5 1 -5 9q0 9 4 11q12 7 49 27t39 21q8 4 12 2t4 -8v-263q0 -70 76 -70q19 0 48 14.5t49 36.5q2 124 2 177zM212 495q-46 -40 -100 -85q-7 -6 -12 -1q-4 4 0 11q62 93 86 127q18 27 26 27t26 -27q24 -34 86 -127q4 -7 0 -11q-5 -5 -12 1q-54 45 -100 85z" />
<glyph unicode="&#xfc;" horiz-adv-x="441" d="M301 272q0 24 -6.5 30.5t-36.5 12.5q-5 1 -5 10q0 8 4 10q8 4 29 15t39 20.5t24 12.5q7 4 11.5 2t4.5 -8q0 -238 1 -307q0 -9 9 -9h24q5 0 5 -6v-9q0 -4 -4 -6q-40 -20 -85 -45q-17 -9 -17 7l1 63q-87 -73 -151 -73q-49 0 -69 35.5t-19 81.5q2 110 2 163q0 24 -5.5 31 t-33.5 12q-5 1 -5 9q0 9 4 11q12 7 49 27t39 21q8 4 12 2t4 -8v-263q0 -70 76 -70q19 0 48 14.5t49 36.5q2 124 2 177zM175 481q0 -5 -8 -10q-21 -12 -33 -37q-4 -7 -9 -7t-9 7q-12 25 -33 37q-8 5 -8 10t8 10q21 12 33 37q4 7 9 7t9 -7q12 -25 33 -37q8 -5 8 -10zM336 481 q0 -5 -8 -10q-21 -12 -33 -37q-3 -7 -9 -7t-9 7q-12 25 -33 37q-8 5 -8 10t8 10q21 12 33 37q3 7 9 7t9 -7q12 -25 33 -37q8 -5 8 -10z" />
<glyph unicode="&#xfd;" horiz-adv-x="455" d="M333 574q6 0 8 -5t-4 -12q-22 -24 -135 -146q-7 -7 -13 -3q-5 4 -1 12l26 52t31.5 62t15.5 30q5 10 16 10h56zM185 0l-127 309q-4 12 -7 14t-13 2h-28q-5 0 -5 5v36q0 4 5 4h153q5 0 5 -4v-36q0 -5 -5 -5h-35q-6 0 -6.5 -1.5t2.5 -9.5l99 -247q87 165 129 248q2 5 2.5 7 t-0.5 2.5t-5 0.5h-41q-4 0 -4 5v36q0 4 4 4h138q4 0 4 -4v-36q0 -5 -5 -5h-31q-7 0 -11 -4.5t-13 -21.5q-49 -86 -314 -564q-5 -8 -12 -8h-31q-12 0 -4 12q48 83 156 261z" />
<glyph unicode="&#xfe;" horiz-adv-x="436" d="M212 320q-45 0 -78 -25v-234q49 -32 105 -32q52 0 88 32t36 99q0 58 -40 109t-111 51zM71 83l-1 455q0 23 -6 29.5t-33 13.5q-5 1 -5 11q0 7 4 9q12 6 48 26.5t40 22.5q8 4 12 2t4 -8v-320q60 53 125 53q73 0 111.5 -56t38.5 -127q0 -82 -48 -138t-123 -56q-54 0 -104 28 q0 -67 0.5 -154.5t0.5 -89.5q0 -10 9 -10h44q5 0 5 -5v-36q0 -4 -5 -4h-164q-4 0 -4 4v36q0 5 4 5h36q8 0 8 10q3 198 3 299z" />
<glyph unicode="&#xff;" horiz-adv-x="455" d="M185 0l-127 309q-4 12 -7 14t-13 2h-28q-5 0 -5 5v36q0 4 5 4h153q5 0 5 -4v-36q0 -5 -5 -5h-35q-6 0 -6.5 -1.5t2.5 -9.5l99 -247q87 165 129 248q2 5 2.5 7t-0.5 2.5t-5 0.5h-41q-4 0 -4 5v36q0 4 4 4h138q4 0 4 -4v-36q0 -5 -5 -5h-31q-7 0 -11 -4.5t-13 -21.5 q-49 -86 -314 -564q-5 -8 -12 -8h-31q-12 0 -4 12q48 83 156 261zM208 481q0 -5 -8 -10q-21 -12 -33 -37q-3 -7 -9 -7t-9 7q-12 25 -33 37q-8 5 -8 10t8 10q21 12 33 37q3 7 9 7t9 -7q12 -25 33 -37q8 -5 8 -10zM369 481q0 -5 -8 -10q-21 -12 -33 -37q-4 -7 -9 -7t-9 7 q-12 25 -33 37q-8 5 -8 10t8 10q21 12 33 37q4 7 9 7t9 -7q12 -25 33 -37q8 -5 8 -10z" />
<glyph unicode="&#x100;" horiz-adv-x="684" d="M218 252h219q-72 186 -111 290q-6 -16 -108 -290zM508 67q-1 4 -7.5 20.5t-20.5 52t-25 64.5h-255q-14 -36 -31 -83t-23 -61q-3 -5 -0.5 -8t5.5 -3.5t8 -0.5h41q5 0 5 -5v-38q0 -5 -5 -5h-165q-5 0 -5 5v38q0 5 5 5h40q13 0 18 14q6 17 105 275t108 281q2 3 4 3h57 q3 0 4 -3q10 -26 102 -262t116 -299q3 -9 12 -9h48q5 0 5 -5v-38q0 -5 -5 -5h-192q-4 0 -4 5v38q0 5 4 5h45q7 0 8.5 3t-2.5 16zM415 674h-154q-5 0 -5 4v32q0 4 5 4h154q4 0 4 -4v-32q0 -4 -4 -4z" />
<glyph unicode="&#x101;" horiz-adv-x="371" d="M214 169q-50 -8 -92 -32q-37 -21 -37 -52q0 -17 12.5 -30t30.5 -13q44 0 85 43q1 65 1 84zM147 325q-45 0 -84 -39q-9 -9 -16 -3q-9 7 2 20q26 31 62 49.5t71 18.5q50 0 73.5 -36t23.5 -81q0 -36 0.5 -89.5t0.5 -75.5q0 -19 10 -31.5t29 -12.5q17 0 34 14q6 5 11 5 q10 0 5 -12q-11 -24 -37.5 -42t-56.5 -18q-25 0 -43 18.5t-21 47.5q-24 -23 -62.5 -44.5t-69.5 -21.5q-26 0 -44.5 19.5t-18.5 50.5q0 56 61 87q42 21 137 43l1 46q0 42 -18 64.5t-50 22.5zM255 461h-154q-5 0 -5 4v32q0 4 5 4h154q4 0 4 -4v-32q0 -4 -4 -4z" />
<glyph unicode="&#x102;" horiz-adv-x="684" d="M218 252h219q-72 186 -111 290q-6 -16 -108 -290zM508 67q-1 4 -7.5 20.5t-20.5 52t-25 64.5h-255q-14 -36 -31 -83t-23 -61q-3 -5 -0.5 -8t5.5 -3.5t8 -0.5h41q5 0 5 -5v-38q0 -5 -5 -5h-165q-5 0 -5 5v38q0 5 5 5h40q13 0 18 14q6 17 105 275t108 281q2 3 4 3h57 q3 0 4 -3q10 -26 102 -262t116 -299q3 -9 12 -9h48q5 0 5 -5v-38q0 -5 -5 -5h-192q-4 0 -4 5v38q0 5 4 5h45q7 0 8.5 3t-2.5 16zM339 708q58 0 80 80q3 12 10 12q10 0 10 -14q0 -71 -31 -100.5t-69 -29.5t-69 29.5t-31 100.5q0 14 10 14q7 0 10 -12q22 -80 80 -80z" />
<glyph unicode="&#x103;" horiz-adv-x="371" d="M172 470q58 0 80 80q3 12 10 12q10 0 10 -14q0 -71 -31 -100.5t-69 -29.5t-69 29.5t-31 100.5q0 14 10 14q7 0 10 -12q22 -80 80 -80zM214 169q-50 -8 -92 -32q-37 -21 -37 -52q0 -17 12.5 -28.5t30.5 -11.5q46 0 85 40q1 65 1 84zM147 325q-45 0 -84 -39q-9 -9 -16 -3 q-9 7 2 20q26 31 62 49.5t71 18.5q50 0 73.5 -36t23.5 -81q0 -121 1 -170q0 -39 25 -39q22 0 48 18q7 5 11 5q10 0 5 -12q-12 -25 -38 -44.5t-56 -19.5q-25 0 -43 18.5t-21 47.5q-24 -23 -62.5 -44.5t-69.5 -21.5q-26 0 -44.5 19.5t-18.5 50.5q0 56 61 87q42 21 137 43l1 46 q0 42 -18 64.5t-50 22.5z" />
<glyph unicode="&#x104;" horiz-adv-x="684" d="M570 -215q-50 0 -74 30.5t-24 65.5q0 53 64 119h-79q-4 0 -4 5v38q0 5 4 5h45q7 0 8.5 3t-2.5 16l-53 137h-255l-54 -144q-3 -5 -0.5 -8t5.5 -3.5t8 -0.5h41q5 0 5 -5v-38q0 -5 -5 -5h-165q-5 0 -5 5v38q0 5 5 5h40q13 0 18 14l213 556q2 3 4 3h57q3 0 4 -3l218 -561 q3 -9 12 -9h48q5 0 5 -5v-38q0 -5 -5 -5h-81q-44 -47 -44 -94q0 -44 22 -66.5t49 -22.5q15 0 38 9q15 7 19 -3q5 -9 -10 -17q-38 -21 -72 -21zM218 252h219q-72 186 -111 290z" />
<glyph unicode="&#x105;" horiz-adv-x="371" d="M147 325q-45 0 -84 -39q-9 -9 -16 -3q-9 7 2 20q26 31 62 49.5t71 18.5q50 0 73.5 -36t23.5 -81q0 -36 0.5 -89.5t0.5 -75.5q0 -19 10 -31.5t29 -12.5q17 0 34 14q6 5 11 5q10 0 5 -12q-11 -24 -36 -41.5t-55 -18.5q-36 -41 -36 -86q0 -44 22 -66.5t49 -22.5q18 0 38 8 q15 8 19 -2q4 -8 -10 -17q-33 -21 -72 -21q-50 0 -74 30.5t-24 65.5q0 53 60 117q-34 15 -39 60q-24 -23 -62.5 -44.5t-69.5 -21.5q-26 0 -44.5 19.5t-18.5 50.5q0 56 61 87q42 21 137 43l1 46q0 42 -18 64.5t-50 22.5zM214 169q-50 -8 -92 -32q-37 -21 -37 -52 q0 -17 12.5 -30t30.5 -13q44 0 85 43q1 65 1 84z" />
<glyph unicode="&#x106;" horiz-adv-x="609" d="M422 817q6 0 8 -5t-4 -12q-22 -24 -135 -146q-7 -7 -13 -3q-5 4 -1 12l26 52t31.5 62t15.5 30q5 10 16 10h56zM497 591q18 -9 27 -6.5t22 23.5q4 5 10 5q10 0 10 -8q4 -71 13 -145q1 -11 -10 -11q-9 0 -18 16q-29 50 -85 82t-124 32q-103 0 -168 -73t-65 -181 q0 -116 69 -199t179 -83q111 0 173 85q10 14 23 39q5 9 14 9q11 0 9 -9q-6 -54 -14 -110q-1 -8 -8 -12q-36 -21 -98 -37t-105 -16q-135 0 -226.5 89.5t-91.5 223.5q0 139 87 227.5t226 88.5q77 0 151 -30z" />
<glyph unicode="&#x107;" horiz-adv-x="352" d="M201 -8q-79 0 -130 56t-51 130q0 84 60.5 141.5t138.5 57.5q57 0 92 -27q17 -13 16 -30.5t-18 -31.5q-18 -15 -33 4q-36 47 -84 47q-55 0 -81.5 -38t-26.5 -90q0 -62 38.5 -110.5t105.5 -48.5q52 0 87 25q9 6 12 4q8 -3 3 -14q-17 -34 -53.5 -54.5t-75.5 -20.5zM269 574 q6 0 8 -5t-4 -12q-22 -24 -135 -146q-7 -7 -13 -3q-5 4 -1 12l26 52t31.5 62t15.5 30q5 10 16 10h56z" />
<glyph unicode="&#x10c;" horiz-adv-x="609" d="M327 747q12 8 35 23.5t43.5 29.5t21.5 14q7 6 12 1t0 -9q-43 -57 -86 -110q-18 -23 -26 -23t-26 23q-43 53 -86 110q-5 4 0 9t12 -1q75 -50 100 -67zM497 591q18 -9 27 -6.5t22 23.5q4 5 10 5q10 0 10 -8q4 -71 13 -145q1 -11 -10 -11q-9 0 -18 16q-29 50 -85 82t-124 32 q-103 0 -168 -73t-65 -181q0 -116 69 -199t179 -83q111 0 173 85q10 14 23 39q5 9 14 9q11 0 9 -9q-6 -54 -14 -110q-1 -8 -8 -12q-36 -21 -98 -37t-105 -16q-135 0 -226.5 89.5t-91.5 223.5q0 139 87 227.5t226 88.5q77 0 151 -30z" />
<glyph unicode="&#x10d;" horiz-adv-x="352" d="M201 -8q-79 0 -130 56t-51 130q0 84 60.5 141.5t138.5 57.5q57 0 92 -27q17 -13 16 -30.5t-18 -31.5q-18 -15 -33 4q-36 47 -84 47q-55 0 -81.5 -38t-26.5 -90q0 -62 38.5 -110.5t105.5 -48.5q52 0 87 25q9 6 12 4q8 -3 3 -14q-17 -34 -53.5 -54.5t-75.5 -20.5zM193 504 q12 8 35 23.5t43.5 29.5t21.5 14q7 6 12 1q5 -4 0 -9q-43 -57 -86 -110q-18 -23 -26 -23t-26 23q-43 53 -86 110q-5 5 0 9q5 5 12 -1q75 -50 100 -67z" />
<glyph unicode="&#x10e;" horiz-adv-x="719" d="M327 747q12 8 35 23.5t43.5 29.5t21.5 14q7 6 12 1t0 -9q-43 -57 -86 -110q-18 -23 -26 -23t-26 23q-43 53 -86 110q-5 4 0 9t12 -1q75 -50 100 -67zM351 564l-176 1q-2 -105 -2 -162l2 -355h152q130 0 207 66.5t77 186.5q0 50 -14.5 94.5t-44 83.5t-81.5 62t-120 23z M34 48h59q9 0 9 8q1 33 1 347l-1 152q0 9 -7 9h-55q-4 0 -4 5v39q0 4 4 4h319q148 0 238 -83t90 -228q0 -141 -100 -221t-254 -80h-299q-4 0 -4 4v39q0 5 4 5z" />
<glyph unicode="&#x10f;" horiz-adv-x="554" d="M316 84q2 100 2 188q-54 61 -136 61q-49 0 -77.5 -37.5t-28.5 -89.5q0 -60 42.5 -107t109.5 -47q49 0 88 32zM393 45h43q7 0 7 -8v-10q0 -12 -6 -13q-35 -6 -64 -12t-39 -8t-14 -2q-8 0 -7 13q2 40 2 51q-26 -23 -65.5 -43.5t-68.5 -20.5q-70 0 -115.5 54t-45.5 125 q0 83 56.5 142t135.5 59q57 0 106 -30v17q0 125 -1 181q-1 22 -7.5 28.5t-37.5 12.5q-5 1 -5 10q0 8 5 11q54 27 93 48q7 4 11.5 2t4.5 -8v-99.5v-121.5v-64q0 -238 1 -304q0 -10 11 -10zM517 547q-13 -53 -55 -81q-14 -10 -22 0q-7 9 6 19t22.5 24.5t9.5 24.5q0 26 -34 44 q-7 4 -7 9q0 7 7 10q24 11 37 36q4 8 10 8q7 0 10 -8q8 -18 36 -35q7 -4 7 -10t-7 -9q-14 -9 -20 -32z" />
<glyph unicode="&#x110;" horiz-adv-x="719" d="M34 48h59q9 0 9 8q1 27 1 275h-68q-4 0 -4 4v31q0 4 4 4h68v33l-1 152q0 9 -7 9h-55q-4 0 -4 5v39q0 4 4 4h319q148 0 238 -83t90 -228q0 -141 -100 -221t-254 -80h-299q-4 0 -4 4v39q0 5 4 5zM351 564l-176 1q-2 -105 -2 -162v-33h134q5 0 5 -4v-31q0 -4 -5 -4h-134 l2 -283h152q130 0 207 66.5t77 186.5q0 50 -14.5 94.5t-44 83.5t-81.5 62t-120 23z" />
<glyph unicode="&#x111;" horiz-adv-x="458" d="M393 45h43q7 0 7 -8v-10q0 -12 -6 -13q-35 -6 -64 -12t-39 -8t-14 -2q-8 0 -7 13q2 40 2 51q-26 -23 -65.5 -43.5t-68.5 -20.5q-70 0 -115.5 54t-45.5 125q0 83 56.5 142t135.5 59q57 0 106 -30v17v93h-103q-5 0 -5 4v31q0 4 5 4h103v49q-1 22 -8 28.5t-38 12.5 q-5 1 -5 10q0 8 5 11l93 48q7 4 11.5 2t4.5 -8q-1 -41 -1 -153h59q4 0 4 -4v-31q0 -4 -4 -4h-59q0 -26 0.5 -58t0.5 -35q0 -238 1 -304q0 -10 11 -10zM316 84q2 100 2 188q-54 61 -136 61q-49 0 -77.5 -37.5t-28.5 -89.5q0 -60 42.5 -107t109.5 -47q49 0 88 32z" />
<glyph unicode="&#x112;" horiz-adv-x="565" d="M502 5q-1 -5 -8 -5h-459q-5 0 -5 5v38q0 5 5 5h61q7 0 7 9q0 11 0.5 139t0.5 207q0 116 -1 151q0 10 -8 10h-60q-5 0 -5 4v39q0 5 5 5h470q5 0 5 -6q0 -65 3 -125q1 -11 -10 -11q-10 0 -15.5 14.5t-8.5 32.5t-19.5 32.5t-45.5 14.5h-239v-237q37 0 121.5 1.5t105.5 1.5 l1 66q0 5 4 5h35q5 0 5 -5v-5q0 -5 -0.5 -14t-0.5 -20v-25.5v-27.5v-43v-35l1 -14q0 -5 -5 -5h-35q-4 0 -4 5q-1 9 -1 26v43q-20 0 -104.5 1t-122.5 1v-235h158q90 0 129 24q26 15 49 64q5 9 14 9q12 0 9 -12q-1 -5 -5 -20t-12 -48t-15 -60zM368 674h-154q-5 0 -5 4v32 q0 4 5 4h154q4 0 4 -4v-32q0 -4 -4 -4z" />
<glyph unicode="&#x113;" horiz-adv-x="341" d="M243 461h-154q-5 0 -5 4v32q0 4 5 4h154q4 0 4 -4v-32q0 -4 -4 -4zM199 -8q-76 0 -127.5 51t-51.5 134q0 88 44 141t103 53q103 0 146 -100q4 -9 -5 -12q-59 -21 -225 -66q8 -60 44.5 -100.5t95.5 -40.5q48 0 81 25q5 4 10 4q11 0 5 -14q-15 -33 -50.5 -54t-69.5 -21z M223 279q-6 25 -26 43.5t-43 18.5q-33 0 -55 -34.5t-19 -89.5q84 23 121 36q18 6 21.5 10.5t0.5 15.5z" />
<glyph unicode="&#x116;" horiz-adv-x="565" d="M345 733q0 -5 -8 -10q-21 -12 -33 -37q-4 -7 -9 -7t-9 7q-12 25 -33 37q-8 5 -8 10t8 10q21 12 33 37q4 7 9 7t9 -7q12 -25 33 -37q8 -5 8 -10zM502 5q-1 -5 -8 -5h-459q-5 0 -5 5v38q0 5 5 5h61q7 0 7 9q0 11 0.5 139t0.5 207q0 116 -1 151q0 10 -8 10h-60q-5 0 -5 4v39 q0 5 5 5h470q5 0 5 -6q0 -65 3 -125q1 -11 -10 -11q-10 0 -15.5 14.5t-8.5 32.5t-19.5 32.5t-45.5 14.5h-239v-237q37 0 121.5 1.5t105.5 1.5l1 66q0 5 4 5h35q5 0 5 -5v-5q0 -5 -0.5 -14t-0.5 -20v-25.5v-27.5v-43v-35l1 -14q0 -5 -5 -5h-35q-4 0 -4 5q-1 9 -1 26v43 q-20 0 -104.5 1t-122.5 1v-235h158q90 0 129 24q26 15 49 64q5 9 14 9q12 0 9 -12q-1 -5 -5 -20t-12 -48t-15 -60z" />
<glyph unicode="&#x117;" horiz-adv-x="341" d="M218 472q0 -5 -8 -10q-21 -12 -33 -37q-3 -7 -9 -7t-9 7q-12 25 -33 37q-8 5 -8 10t8 10q21 12 33 37q3 7 9 7t9 -7q12 -25 33 -37q8 -5 8 -10zM199 -8q-76 0 -127.5 51t-51.5 134q0 88 44 141t103 53q103 0 146 -100q4 -9 -5 -12q-59 -21 -225 -66q8 -60 44.5 -100.5 t95.5 -40.5q48 0 81 25q5 4 10 4q11 0 5 -14q-15 -33 -50.5 -54t-69.5 -21zM223 279q-6 25 -26 43.5t-43 18.5q-33 0 -55 -34.5t-19 -89.5q84 23 121 36q18 6 21.5 10.5t0.5 15.5z" />
<glyph unicode="&#x118;" horiz-adv-x="565" d="M452 -215q-50 0 -74 30.5t-24 65.5q0 53 64 119h-383q-5 0 -5 5v38q0 5 5 5h61q7 0 7 9q0 11 0.5 139t0.5 207q0 116 -1 151q0 10 -8 10h-60q-5 0 -5 4v39q0 5 5 5h470q5 0 5 -6q0 -65 3 -125q1 -11 -10 -11q-10 0 -15.5 14.5t-8.5 32.5t-19.5 32.5t-45.5 14.5h-239v-237 q37 0 121.5 1.5t105.5 1.5l1 66q0 5 4 5h35q5 0 5 -5v-5q0 -5 -0.5 -14t-0.5 -20v-25.5v-27.5v-43v-35l1 -14q0 -5 -5 -5h-35q-4 0 -4 5q-1 9 -1 26v43q-20 0 -104.5 1t-122.5 1v-235h158q90 0 129 24q26 15 49 64q5 9 14 9q12 0 9 -12l-32 -128q-1 -5 -8 -5h-44 q-44 -47 -44 -94q0 -44 22 -66.5t49 -22.5q15 0 38 9q15 7 19 -3q5 -9 -10 -17q-38 -21 -72 -21z" />
<glyph unicode="&#x119;" horiz-adv-x="341" d="M236 -215q-50 0 -74 30.5t-24 65.5q0 52 57 111q-74 2 -124.5 52.5t-50.5 132.5q0 88 44 141t103 53q103 0 146 -100q4 -9 -5 -12q-59 -21 -225 -66q8 -60 44.5 -100.5t95.5 -40.5q48 0 81 25q5 4 10 4q11 0 5 -14q-12 -26 -37.5 -45t-53.5 -26q-38 -43 -38 -90 q0 -44 21.5 -66.5t49.5 -22.5q15 0 38 9q15 7 19 -3q4 -8 -10 -17q-33 -21 -72 -21zM223 279q-6 25 -26 43.5t-43 18.5q-33 0 -55 -34.5t-19 -89.5q84 23 121 36q18 6 21.5 10.5t0.5 15.5z" />
<glyph unicode="&#x11a;" horiz-adv-x="565" d="M288 747q12 8 35 23.5t43.5 29.5t21.5 14q7 6 12 1q4 -5 0 -9q-43 -57 -86 -110q-18 -23 -26 -23t-26 23q-43 53 -86 110q-4 4 0 9q5 5 12 -1q75 -50 100 -67zM502 5q-1 -5 -8 -5h-459q-5 0 -5 5v38q0 5 5 5h61q7 0 7 9q0 11 0.5 139t0.5 207q0 116 -1 151q0 10 -8 10 h-60q-5 0 -5 4v39q0 5 5 5h470q5 0 5 -6q0 -65 3 -125q1 -11 -10 -11q-10 0 -15.5 14.5t-8.5 32.5t-19.5 32.5t-45.5 14.5h-239v-237q37 0 121.5 1.5t105.5 1.5l1 66q0 5 4 5h35q5 0 5 -5v-5q0 -5 -0.5 -14t-0.5 -20v-25.5v-27.5v-43v-35l1 -14q0 -5 -5 -5h-35q-4 0 -4 5 q-1 9 -1 26v43q-20 0 -104.5 1t-122.5 1v-235h158q90 0 129 24q26 15 49 64q5 9 14 9q12 0 9 -12q-1 -5 -5 -20t-12 -48t-15 -60z" />
<glyph unicode="&#x11b;" horiz-adv-x="341" d="M167 504q12 8 35 23.5t43.5 29.5t21.5 14q7 6 12 1q5 -4 0 -9q-43 -57 -86 -110q-18 -23 -26 -23t-26 23q-43 53 -86 110q-5 5 0 9q5 5 12 -1q75 -50 100 -67zM199 -8q-76 0 -127.5 51t-51.5 134q0 88 44 141t103 53q103 0 146 -100q4 -9 -5 -12q-59 -21 -225 -66 q8 -60 44.5 -100.5t95.5 -40.5q48 0 81 25q5 4 10 4q11 0 5 -14q-15 -33 -50.5 -54t-69.5 -21zM223 279q-6 25 -26 43.5t-43 18.5q-33 0 -55 -34.5t-19 -89.5q84 23 121 36q18 6 21.5 10.5t0.5 15.5z" />
<glyph unicode="&#x11e;" horiz-adv-x="667" d="M499 590q10 -4 15.5 0.5t19.5 24.5q3 5 10 5q10 0 10 -8q0 -17 -0.5 -45.5t-0.5 -54.5t1 -54q0 -9 -10 -9t-13 10q-23 58 -78 89t-111 31q-94 0 -163.5 -67.5t-69.5 -186.5q0 -114 68 -198t180 -84q89 0 149 54v51.5v55v37.5q0 10 -7 10h-58q-5 0 -5 4v39q0 5 5 5h197 q4 0 4 -5v-39q0 -4 -4 -4h-53q-7 0 -7 -10v-170q0 -11 -5 -15q-41 -29 -101.5 -46.5t-120.5 -17.5q-140 0 -229 92t-89 221q0 146 90.5 231t222.5 85q80 0 153 -31zM339 708q58 0 80 80q3 12 10 12q10 0 10 -14q0 -71 -31 -100.5t-69 -29.5t-69 29.5t-31 100.5q0 14 10 14 q7 0 10 -12q22 -80 80 -80z" />
<glyph unicode="&#x11f;" horiz-adv-x="420" d="M270 -71q-23 3 -111 6q-33 -14 -56.5 -43.5t-23.5 -55.5q0 -28 27.5 -48.5t72.5 -20.5q63 0 111 32t48 71q0 50 -68 59zM180 349q-44 0 -71 -30t-27 -74q0 -49 34 -85.5t85 -37.5q45 0 68 26.5t23 71.5q0 51 -31.5 90t-80.5 39zM17 -190q0 36 33 70t75 59q-93 16 -93 61 q0 30 58 63q12 7 18 11t5 8t-1.5 5t-9.5 5.5t-12 6.5q-62 37 -62 121q0 69 51.5 117t124.5 48q49 0 96 -35q13 -10 29 -2q8 4 32.5 18t33.5 19q20 11 20 -7v-23q0 -16 -21 -22q-22 -5 -47 -13q-9 -3 -10.5 -5t2.5 -12q14 -26 14 -57q0 -66 -51.5 -114.5t-119.5 -48.5 q-23 0 -50 -18.5t-27 -38.5q0 -11 14 -16t51 -9q93 -8 104 -9q65 -4 100 -30.5t35 -69.5q0 -56 -76.5 -109.5t-187.5 -53.5q-60 0 -94 22.5t-34 58.5zM199 470q58 0 80 80q3 12 10 12q10 0 10 -14q0 -71 -31 -100.5t-69 -29.5t-69 29.5t-31 100.5q0 14 10 14q7 0 10 -12 q22 -80 80 -80z" />
<glyph unicode="&#x122;" horiz-adv-x="667" d="M305 -145q-6 3 -6 9q0 4 7 9q23 15 38 54q3 7 9 7t9 -7q16 -39 46 -54q7 -3 7 -9t-7 -9q-22 -10 -29 -39q-6 -27 -22 -54.5t-41 -38.5q-14 -5 -18 3q-4 9 5 16q34 27 34 62q0 11 -7.5 27t-24.5 24zM499 590q10 -4 15.5 0.5t19.5 24.5q3 5 10 5q10 0 10 -8 q0 -17 -0.5 -45.5t-0.5 -54.5t1 -54q0 -9 -10 -9t-13 10q-23 58 -78 89t-111 31q-94 0 -163.5 -67.5t-69.5 -186.5q0 -114 68 -198t180 -84q89 0 149 54v51.5v55v37.5q0 10 -7 10h-58q-5 0 -5 4v39q0 5 5 5h197q4 0 4 -5v-39q0 -4 -4 -4h-53q-7 0 -7 -10v-170q0 -11 -5 -15 q-41 -29 -101.5 -46.5t-120.5 -17.5q-140 0 -229 92t-89 221q0 146 90.5 231t222.5 85q80 0 153 -31z" />
<glyph unicode="&#x123;" horiz-adv-x="428" d="M268 -71q-23 3 -111 6q-33 -14 -56.5 -43.5t-23.5 -55.5q0 -28 27.5 -48.5t72.5 -20.5q63 0 111 32t48 71q0 50 -68 59zM178 349q-44 0 -71 -30t-27 -74q0 -49 34 -85.5t85 -37.5q45 0 68 26.5t23 71.5q0 51 -31.5 90t-80.5 39zM15 -190q0 36 33 70t75 59q-86 15 -86 64 q0 19 16 35t35 21q10 3 17 11t7 15q0 3 -5 5l-3 2q-4 1 -8.5 3t-7.5 4q-62 37 -62 121q0 69 51.5 117t124.5 48q51 0 96 -35q9 -8 17 -6t21.5 9t32 18t24.5 14q11 6 15.5 3t4.5 -18v-15q0 -7 -1 -10q-3 -8 -20 -12q-19 -5 -47 -13q-9 -3 -10.5 -5t2.5 -12q14 -26 14 -57 q0 -68 -52 -115.5t-125 -47.5h-9q-20 -11 -39 -28t-19 -30q0 -18 61 -24q94 -8 104 -9q65 -4 100 -30.5t35 -69.5q0 -56 -76.5 -109.5t-187.5 -53.5q-60 0 -94 22.5t-34 58.5zM243 497q6 -3 6 -9q0 -4 -7 -9q-23 -15 -38 -54q-3 -7 -9 -7t-9 7q-16 39 -46 54q-7 3 -7 9t7 9 q22 10 29 39q6 27 22 54.5t41 38.5q14 5 18 -3q4 -9 -5 -16q-34 -27 -34 -62q0 -11 7.5 -27t24.5 -24z" />
<glyph unicode="&#x12a;" horiz-adv-x="277" d="M242 0h-208q-4 0 -4 5v38q0 5 5 5h60q7 0 7 9q1 44 1 346q0 25 -0.5 61.5t-0.5 63.5v26q0 10 -7 10h-60q-5 0 -5 4v39q0 5 5 5h207q5 0 5 -5v-39q0 -4 -5 -4h-60q-7 0 -7 -10l-1 -26q0 -27 -0.5 -63.5t-0.5 -61.5q0 -258 2 -346q0 -9 7 -9h60q5 0 5 -5v-38q0 -5 -5 -5z M218 674h-154q-5 0 -5 4v32q0 4 5 4h154q4 0 4 -4v-32q0 -4 -4 -4z" />
<glyph unicode="&#x12b;" horiz-adv-x="211" d="M134 377q0 -252 1 -321q0 -11 9 -11h47q5 0 5 -5v-36q0 -4 -5 -4h-166q-5 0 -5 4v36q0 5 5 5h35q8 0 8 12q2 100 2 215q0 25 -5.5 31.5t-28.5 11.5q-6 1 -6 10t5 12l83 46q8 4 12 2t4 -8zM182 461h-154q-5 0 -5 4v32q0 4 5 4h154q4 0 4 -4v-32q0 -4 -4 -4z" />
<glyph unicode="&#x12e;" horiz-adv-x="277" d="M163 -215q-50 0 -74 30.5t-24 65.5q0 53 64 119h-95q-4 0 -4 5v38q0 5 5 5h60q7 0 7 9q1 44 1 346q0 25 -0.5 61.5t-0.5 63.5v26q0 10 -7 10h-60q-5 0 -5 4v39q0 5 5 5h207q5 0 5 -5v-39q0 -4 -5 -4h-60q-7 0 -7 -10l-1 -26q0 -27 -0.5 -63.5t-0.5 -61.5q0 -258 2 -346 q0 -9 7 -9h60q5 0 5 -5v-38q0 -5 -5 -5h-81q-44 -47 -44 -94q0 -44 22 -66.5t49 -22.5q16 0 38 9q15 7 19 -3q5 -9 -10 -17q-38 -21 -72 -21z" />
<glyph unicode="&#x12f;" horiz-adv-x="217" d="M139 377q0 -252 1 -321q0 -11 9 -11h47q5 0 5 -5v-36q0 -4 -5 -4h-79q-45 -48 -45 -94q0 -44 22 -66.5t49 -22.5q15 0 38 9q15 7 19 -3q5 -9 -10 -17q-38 -21 -72 -21q-50 0 -74 30.5t-24 65.5q0 52 65 119h-55q-5 0 -5 4v36q0 5 5 5h35q8 0 8 12q2 100 2 215 q0 25 -5.5 31.5t-28.5 11.5q-6 1 -6 10t5 12l83 46q7 4 11.5 2t4.5 -8zM175 561q-14 0 -23.5 9.5t-9.5 23.5q0 15 10.5 26t25.5 11q14 0 24 -9.5t10 -22.5q0 -16 -11 -27t-26 -11z" />
<glyph unicode="&#x130;" horiz-adv-x="277" d="M194 733q0 -5 -8 -10q-21 -12 -33 -37q-3 -7 -9 -7t-9 7q-12 25 -33 37q-8 5 -8 10t8 10q21 12 33 37q3 7 9 7t9 -7q12 -25 33 -37q8 -5 8 -10zM242 0h-208q-4 0 -4 5v38q0 5 5 5h60q7 0 7 9q1 44 1 346q0 25 -0.5 61.5t-0.5 63.5v26q0 10 -7 10h-60q-5 0 -5 4v39 q0 5 5 5h207q5 0 5 -5v-39q0 -4 -5 -4h-60q-7 0 -7 -10l-1 -26q0 -27 -0.5 -63.5t-0.5 -61.5q0 -258 2 -346q0 -9 7 -9h60q5 0 5 -5v-38q0 -5 -5 -5z" />
<glyph unicode="&#x131;" horiz-adv-x="211" d="M134 377q0 -252 1 -321q0 -11 9 -11h47q5 0 5 -5v-36q0 -4 -5 -4h-166q-5 0 -5 4v36q0 5 5 5h35q8 0 8 12q2 100 2 215q0 25 -5.5 31.5t-28.5 11.5q-6 1 -6 10t5 12l83 46q8 4 12 2t4 -8z" />
<glyph unicode="&#x136;" horiz-adv-x="707" d="M173 324q52 39 170.5 128t129.5 97q21 15 8 15h-46q-5 0 -5 4v39q0 5 5 5h206q4 0 4 -5v-39q0 -4 -4 -4h-29q-33 0 -53 -13q-14 -11 -124.5 -91.5t-192.5 -140.5q136 -101 315 -232q53 -39 77 -39h37q5 0 5 -5v-38q0 -5 -5 -5h-255q-5 0 -5 5v38q0 5 5 5h57q8 0 8 4 q0 3 -10 11q-50 37 -156 116.5l-142 106.5q0 -165 2 -229q0 -9 7 -9h60q5 0 5 -5v-38q0 -5 -5 -5h-208q-4 0 -4 5v38q0 5 5 5h60q7 0 7 9q1 44 1 346q0 25 -0.5 61.5t-0.5 63.5v26q0 10 -7 10h-60q-5 0 -5 4v39q0 5 5 5h207q5 0 5 -5v-39q0 -4 -5 -4h-60q-7 0 -7 -10l-1 -26 q0 -27 -0.5 -63.5t-0.5 -61.5v-79zM281 -145q-6 3 -6 9q0 4 7 9q23 15 38 54q3 7 9 7t9 -7q16 -39 46 -54q7 -3 7 -9t-7 -9q-22 -10 -29 -39q-6 -27 -22 -54.5t-41 -38.5q-14 -5 -18 3q-4 9 5 16q34 27 34 62q0 11 -7.5 27t-24.5 24z" />
<glyph unicode="&#x137;" horiz-adv-x="453" d="M172 -145q-6 3 -6 9q0 4 7 9q23 15 38 54q3 7 9 7t9 -7q16 -39 46 -54q7 -3 7 -9t-7 -9q-22 -10 -29 -39q-6 -27 -22 -54.5t-41 -38.5q-14 -5 -18 3q-4 9 5 16q34 27 34 62q0 11 -7.5 27t-24.5 24zM134 199q18 15 56 49.5t46 41.5q35 30 35 33q0 2 -6 2h-36q-5 0 -5 6v35 q0 4 4 4h170q5 0 5 -4v-36q0 -5 -5 -5h-45q-24 0 -43 -16q-101 -85 -121 -103q151 -115 194 -146q16 -11 21.5 -13t20.5 -2h15q5 0 5 -5v-36q0 -4 -5 -4h-186q-5 0 -5 4v37q0 4 5 4h39q9 0 1 5q-129 99 -160 122q0 -89 1 -117q0 -10 8 -10h34q6 0 6 -5v-36q0 -4 -6 -4h-153 q-4 0 -4 4v36q0 5 4 5h37q7 0 7 10q3 99 3 304q0 151 -1 181q-1 23 -6.5 29t-33.5 12q-6 1 -6 10q0 8 5 11q11 6 89 48q8 4 12 2t4 -8v-99.5v-121.5v-64v-160z" />
<glyph unicode="&#x139;" horiz-adv-x="532" d="M290 817q6 0 8 -5t-4 -12q-22 -24 -135 -146q-7 -7 -13 -3q-5 4 -1 12l26 52t31.5 62t15.5 30q5 10 16 10h56zM473 5q-1 -5 -7 -5h-431q-5 0 -5 5v38q0 5 5 5h60q7 0 7 9q3 118 1 346q0 116 -1 151q0 10 -8 10h-59q-5 0 -5 4v39q0 5 5 5h223q4 0 4 -5v-39q0 -4 -4 -4h-76 q-7 0 -7 -10q-2 -70 -2 -151q-1 -193 2 -355h128q93 0 129 24q22 14 49 64q5 9 14 9q13 0 9 -12q-1 -4 -31 -128z" />
<glyph unicode="&#x13a;" horiz-adv-x="217" d="M148 817q6 0 8 -5t-4 -12q-22 -24 -135 -146q-7 -7 -13 -3q-5 4 -1 12l26 52t31.5 62t15.5 30q5 10 16 10h56zM70 540q-1 23 -7 29.5t-33 11.5q-6 1 -6 10q0 8 5 11l89 48q8 4 12 2t4 -8v-99.5v-121.5v-64q0 -238 1 -304q0 -10 7 -10h55q5 0 5 -5v-36q0 -4 -5 -4h-173 q-4 0 -4 4v36q0 5 4 5h37q7 0 7 10q3 99 3 304q0 121 -1 181z" />
<glyph unicode="&#x13b;" horiz-adv-x="532" d="M473 5q-1 -5 -7 -5h-431q-5 0 -5 5v38q0 5 5 5h60q7 0 7 9q3 118 1 346q0 116 -1 151q0 10 -8 10h-59q-5 0 -5 4v39q0 5 5 5h223q4 0 4 -5v-39q0 -4 -4 -4h-76q-7 0 -7 -10q-2 -70 -2 -151q-1 -193 2 -355h128q93 0 129 24q22 14 49 64q5 9 14 9q13 0 9 -12 q-1 -4 -31 -128zM214 -145q-6 3 -6 9q0 4 7 9q23 15 38 54q3 7 9 7t9 -7q16 -39 46 -54q7 -3 7 -9t-7 -9q-22 -10 -29 -39q-6 -27 -22 -54.5t-41 -38.5q-14 -5 -18 3q-4 9 5 16q34 27 34 62q0 11 -7.5 27t-24.5 24z" />
<glyph unicode="&#x13c;" horiz-adv-x="210" d="M59 -145q-6 3 -6 9q0 4 7 9q23 15 38 54q3 7 9 7t9 -7q16 -39 46 -54q7 -3 7 -9t-7 -9q-22 -10 -29 -39q-6 -27 -22 -54.5t-41 -38.5q-14 -5 -18 3q-4 9 5 16q34 27 34 62q0 11 -7.5 27t-24.5 24zM70 540q-1 23 -7 29.5t-33 11.5q-6 1 -6 10q0 8 5 11l89 48q8 4 12 2 t4 -8v-99.5v-121.5v-64q0 -238 1 -304q0 -10 7 -10h55q5 0 5 -5v-36q0 -4 -5 -4h-173q-4 0 -4 4v36q0 5 4 5h37q7 0 7 10q3 99 3 304q0 121 -1 181z" />
<glyph unicode="&#x13d;" horiz-adv-x="532" d="M473 5q-1 -5 -7 -5h-431q-5 0 -5 5v38q0 5 5 5h60q7 0 7 9q3 118 1 346q0 116 -1 151q0 10 -8 10h-59q-5 0 -5 4v39q0 5 5 5h223q4 0 4 -5v-39q0 -4 -4 -4h-76q-7 0 -7 -10q-2 -70 -2 -151q-1 -193 2 -355h128q93 0 129 24q22 14 49 64q5 9 14 9q13 0 9 -12 q-1 -4 -31 -128zM437 547q-13 -53 -55 -81q-14 -10 -22 0q-7 9 6 19t22.5 24.5t9.5 24.5q0 26 -34 44q-7 4 -7 9q0 7 7 10q24 11 37 36q4 8 10 8q7 0 10 -8q8 -18 36 -35q7 -4 7 -10t-7 -9q-14 -9 -20 -32z" />
<glyph unicode="&#x13e;" horiz-adv-x="317" d="M70 540q-1 23 -7 29.5t-33 11.5q-6 1 -6 10q0 8 5 11l89 48q8 4 12 2t4 -8v-99.5v-121.5v-64q0 -238 1 -304q0 -10 7 -10h55q5 0 5 -5v-36q0 -4 -5 -4h-173q-4 0 -4 4v36q0 5 4 5h37q7 0 7 10q3 99 3 304q0 121 -1 181zM278 547q-13 -53 -55 -81q-14 -10 -22 0q-7 9 6 19 t22.5 24.5t9.5 24.5q0 26 -34 44q-7 4 -7 9q0 7 7 10q24 11 37 36q4 8 10 8q7 0 10 -8q8 -18 36 -35q7 -4 7 -10t-7 -9q-14 -9 -20 -32z" />
<glyph unicode="&#x141;" horiz-adv-x="532" d="M293 409l16 -27q2 -4 -2 -6l-132 -78q0 -178 2 -250h128q93 0 129 24q30 19 49 64q4 9 14 9q12 0 9 -12q-14 -56 -31 -128q-1 -5 -7 -5h-433q-5 0 -5 5v38q0 5 5 5h61q7 0 7 9q1 30 1 200l-66 -39q-1 -1 -2.5 0t-2.5 2l-16 27q-2 3 2 5l85 50v101q0 116 -1 151 q0 10 -8 10h-60q-5 0 -5 4v39q0 5 5 5h225q4 0 4 -5v-39q0 -4 -4 -4h-76q-7 0 -7 -10q-2 -70 -2 -151v-59l112 66q4 3 6 -1z" />
<glyph unicode="&#x142;" horiz-adv-x="221" d="M78 540q-1 23 -7 29.5t-33 11.5q-6 1 -6 10q0 8 5 11l89 48q8 4 12 2t4 -8v-262l48 30q4 2 6 -1l16 -26q1 -3 -2 -5l-68 -42q0 -221 1 -283q0 -10 8 -10h54q5 0 5 -5v-36q0 -4 -5 -4h-173q-4 0 -4 4v36q0 5 4 5h35q9 0 9 10q1 22 3 245l-36 -22q-4 -2 -6 1l-15 25 q-3 4 1 6l56 34v15q0 151 -1 181z" />
<glyph unicode="&#x143;" horiz-adv-x="792" d="M513 817q6 0 8 -5t-4 -12q-22 -24 -135 -146q-7 -7 -13 -3q-5 4 -1 12l26 52t31.5 62t15.5 30q5 10 16 10h56zM209 562q0 -1 3 -4q15 -15 91 -90t176 -174.5t155 -153.5q1 83 1 264q0 82 -2 150q0 10 -7 10h-61q-5 0 -5 4v39q0 5 5 5h192q5 0 5 -5v-39q0 -4 -5 -4h-61 q-8 0 -8 -10q-1 -38 -1 -150q0 -63 0.5 -184.5t0.5 -214.5q0 -5 -4 -5h-45q-5 0 -5 5v32q0 5 -4 9q-211 211 -471 469q-1 -32 -1 -112q0 -296 1 -346q0 -9 8 -9h61q4 0 4 -5v-38q0 -5 -4 -5h-193q-4 0 -4 5v38q0 5 4 5h61q8 0 8 9q1 48 1 346q0 116 -1 151q0 10 -8 10h-61 q-5 0 -5 4v39q0 5 5 5h243q5 0 5 -5v-39q0 -4 -5 -4h-62q-7 0 -7 -2z" />
<glyph unicode="&#x144;" horiz-adv-x="461" d="M70 271q1 -49 -2 -215q0 -11 -8 -11h-35q-5 0 -5 -5v-36q0 -4 5 -4h154q5 0 5 4v36q0 5 -5 5h-35q-9 0 -9 8q0 18 -0.5 92t-0.5 118q41 69 102 69q20 0 37 -6t32.5 -31t15.5 -67q0 -125 -1 -172q0 -11 -7 -11h-37q-5 0 -5 -5v-36q0 -4 5 -4h167q5 0 5 4v36q0 5 -5 5h-49 q-7 0 -7 10q-1 48 -1 197q0 125 -107 125q-85 0 -145 -74v74q0 6 -4 8t-12 -2q-1 -1 -39.5 -21.5t-50.5 -27.5q-4 -2 -4 -10t5 -9q29 -8 34.5 -13.5t6.5 -30.5zM286 574q6 0 8 -5t-4 -12q-22 -24 -135 -146q-7 -7 -13 -3q-5 4 -1 12l26 52t31.5 62t15.5 30q5 10 16 10h56z " />
<glyph unicode="&#x145;" horiz-adv-x="792" d="M209 562q0 -1 3 -4q15 -15 91 -90t176 -174.5t155 -153.5q1 83 1 264q0 82 -2 150q0 10 -7 10h-61q-5 0 -5 4v39q0 5 5 5h192q5 0 5 -5v-39q0 -4 -5 -4h-61q-8 0 -8 -10q-1 -38 -1 -150q0 -63 0.5 -184.5t0.5 -214.5q0 -5 -4 -5h-45q-5 0 -5 5v32q0 5 -4 9 q-211 211 -471 469q-1 -32 -1 -112q0 -296 1 -346q0 -9 8 -9h61q4 0 4 -5v-38q0 -5 -4 -5h-193q-4 0 -4 5v38q0 5 4 5h61q8 0 8 9q1 48 1 346q0 116 -1 151q0 10 -8 10h-61q-5 0 -5 4v39q0 5 5 5h243q5 0 5 -5v-39q0 -4 -5 -4h-62q-7 0 -7 -2zM360 -145q-6 3 -6 9q0 4 7 9 q23 15 38 54q3 7 9 7t9 -7q16 -39 46 -54q7 -3 7 -9t-7 -9q-22 -10 -29 -39q-6 -27 -22 -54.5t-41 -38.5q-14 -5 -18 3q-4 9 5 16q34 27 34 62q0 11 -7.5 27t-24.5 24z" />
<glyph unicode="&#x146;" horiz-adv-x="461" d="M185 -145q-6 3 -6 9q0 4 7 9q23 15 38 54q3 7 9 7t9 -7q16 -39 46 -54q7 -3 7 -9t-7 -9q-22 -10 -29 -39q-6 -27 -22 -54.5t-41 -38.5q-14 -5 -18 3q-4 9 5 16q34 27 34 62q0 11 -7.5 27t-24.5 24zM70 271q-1 25 -6.5 30.5t-34.5 13.5q-5 1 -5 9t4 10q12 7 50.5 27.5 t39.5 21.5q8 4 12 2t4 -8v-74q60 74 145 74q107 0 107 -125q0 -149 1 -197q0 -10 7 -10h49q5 0 5 -5v-36q0 -4 -5 -4h-167q-5 0 -5 4v36q0 5 5 5h37q7 0 7 11q1 47 1 172q0 42 -15.5 67t-32.5 31t-37 6q-61 0 -102 -69q0 -44 0.5 -118t0.5 -92q0 -8 9 -8h35q5 0 5 -5v-36 q0 -4 -5 -4h-154q-5 0 -5 4v36q0 5 5 5h35q8 0 8 11q3 166 2 215z" />
<glyph unicode="&#x147;" horiz-adv-x="792" d="M409 747q12 8 35 23.5t43.5 29.5t21.5 14q7 6 12 1t0 -9q-43 -57 -86 -110q-18 -23 -26 -23t-26 23q-43 53 -86 110q-5 4 0 9t12 -1q75 -50 100 -67zM209 562q0 -1 3 -4q15 -15 91 -90t176 -174.5t155 -153.5q1 83 1 264q0 82 -2 150q0 10 -7 10h-61q-5 0 -5 4v39 q0 5 5 5h192q5 0 5 -5v-39q0 -4 -5 -4h-61q-8 0 -8 -10q-1 -38 -1 -150q0 -63 0.5 -184.5t0.5 -214.5q0 -5 -4 -5h-45q-5 0 -5 5v32q0 5 -4 9q-211 211 -471 469q-1 -32 -1 -112q0 -296 1 -346q0 -9 8 -9h61q4 0 4 -5v-38q0 -5 -4 -5h-193q-4 0 -4 5v38q0 5 4 5h61q8 0 8 9 q1 48 1 346q0 116 -1 151q0 10 -8 10h-61q-5 0 -5 4v39q0 5 5 5h243q5 0 5 -5v-39q0 -4 -5 -4h-62q-7 0 -7 -2z" />
<glyph unicode="&#x148;" horiz-adv-x="461" d="M70 271q1 -49 -2 -215q0 -11 -8 -11h-35q-5 0 -5 -5v-36q0 -4 5 -4h154q5 0 5 4v36q0 5 -5 5h-35q-9 0 -9 8q0 18 -0.5 92t-0.5 118q41 69 102 69q20 0 37 -6t32.5 -31t15.5 -67q0 -125 -1 -172q0 -11 -7 -11h-37q-5 0 -5 -5v-36q0 -4 5 -4h167q5 0 5 4v36q0 5 -5 5h-49 q-7 0 -7 10q-1 48 -1 197q0 125 -107 125q-85 0 -145 -74v74q0 6 -4 8t-12 -2q-1 -1 -39.5 -21.5t-50.5 -27.5q-4 -2 -4 -10t5 -9q29 -8 34.5 -13.5t6.5 -30.5zM218 504q12 8 35 23.5t43.5 29.5t21.5 14q7 6 12 1q4 -4 0 -9q-43 -57 -86 -110q-18 -23 -26 -23t-26 23 q-43 53 -86 110q-4 5 0 9q5 5 12 -1q75 -50 100 -67z" />
<glyph unicode="&#x14c;" d="M346 -8q-136 0 -224.5 92.5t-88.5 227.5q0 136 89 222.5t219 86.5q135 0 224 -92.5t89 -227.5q0 -137 -87.5 -223t-220.5 -86zM353 43q109 0 167.5 71t58.5 176q0 113 -72 197.5t-191 84.5q-99 0 -153.5 -72t-54.5 -173q0 -110 67 -197t178 -87zM419 674h-154q-5 0 -5 4 v32q0 4 5 4h154q4 0 4 -4v-32q0 -4 -4 -4z" />
<glyph unicode="&#x14d;" horiz-adv-x="434" d="M192 339q-51 -1 -79.5 -35.5t-28.5 -88.5q0 -72 41 -128.5t111 -56.5q51 1 79 35.5t28 89.5q0 72 -40.5 128t-110.5 56zM204 -8q-82 0 -133 54.5t-51 134.5q0 79 60.5 137.5t142.5 58.5t133 -54.5t51 -134.5q0 -79 -61 -137.5t-142 -58.5zM295 461h-154q-5 0 -5 4v32 q0 4 5 4h154q4 0 4 -4v-32q0 -4 -4 -4z" />
<glyph unicode="&#x150;" d="M346 -8q-136 0 -224.5 92.5t-88.5 227.5q0 136 89 222.5t219 86.5q135 0 224 -92.5t89 -227.5q0 -137 -87.5 -223t-220.5 -86zM353 43q109 0 167.5 71t58.5 176q0 113 -72 197.5t-191 84.5q-99 0 -153.5 -72t-54.5 -173q0 -110 67 -197t178 -87zM379 817q6 0 8 -5t-4 -12 q-22 -24 -135 -146q-7 -7 -13 -3q-5 4 -1 12l26 52t31.5 62t15.5 30q5 10 16 10h56zM494 817q6 0 8 -5t-4 -12q-22 -24 -135 -146q-7 -7 -13 -3q-5 4 -1 12l26 52t31.5 62t15.5 30q5 10 16 10h56z" />
<glyph unicode="&#x151;" horiz-adv-x="434" d="M192 339q-51 -1 -79.5 -35.5t-28.5 -88.5q0 -72 41 -128.5t111 -56.5q51 1 79 35.5t28 89.5q0 72 -40.5 128t-110.5 56zM204 -8q-82 0 -133 54.5t-51 134.5q0 79 60.5 137.5t142.5 58.5t133 -54.5t51 -134.5q0 -79 -61 -137.5t-142 -58.5zM261 574q6 0 8 -5t-4 -12 q-22 -24 -135 -146q-7 -7 -13 -3q-5 4 -1 12l26 52t31.5 62t15.5 30q5 10 16 10h56zM376 574q6 0 8 -5t-4 -12q-22 -24 -135 -146q-7 -7 -13 -3q-5 4 -1 12l26 52t31.5 62t15.5 30q5 10 16 10h56z" />
<glyph unicode="&#x152;" horiz-adv-x="936" d="M866 0h-363q-7 0 -61.5 -4t-95.5 -4q-136 0 -224.5 92.5t-88.5 227.5q0 136 89 222.5t219 86.5q34 0 92.5 -4.5t66.5 -4.5h377q5 0 5 -6q0 -94 3 -125q1 -11 -10 -11q-10 0 -15.5 14.5t-8.5 32.5t-19.5 32.5t-45.5 14.5h-239v-237q83 0 227 3l1 66q0 5 4 5h35q5 0 5 -5 v-6q0 -5 -0.5 -14t-0.5 -20v-25v-27v-27v-25t0.5 -20t0.5 -14v-6q0 -5 -5 -5h-35q-4 0 -4 5q-1 46 -1 69q-20 0 -105 1t-122 1v-235h158q91 0 129 24q26 17 49 64q5 9 14 9q13 0 9 -12q-5 -14 -32 -128q-1 -5 -8 -5zM475 518l-1 1q-70 53 -158 53q-99 0 -153.5 -72 t-54.5 -173q0 -110 67 -197t178 -87q78 0 122 30q0 22 0.5 141.5t0.5 188.5q0 21 -0.5 60t-0.5 55z" />
<glyph unicode="&#x153;" horiz-adv-x="665" d="M204 -8q-82 0 -133 54.5t-51 134.5q0 79 60.5 137.5t142.5 58.5q96 0 150 -80q44 74 118 74q103 0 146 -100q4 -9 -5 -12q-59 -21 -225 -66q8 -60 44.5 -100.5t95.5 -40.5q48 0 81 25q5 4 10 4q11 0 5 -14q-15 -33 -50 -54t-70 -21q-49 0 -89.5 22.5t-64.5 62.5 q-28 -39 -72 -62t-93 -23zM192 339q-51 -1 -79.5 -35.5t-28.5 -88.5q0 -72 41 -128.5t111 -56.5q51 1 79 35.5t28 89.5q0 72 -40.5 128t-110.5 56zM547 279q-6 25 -26 43.5t-43 18.5q-33 0 -54 -34.5t-18 -89.5q82 23 119 36q18 6 21.5 10.5t0.5 15.5z" />
<glyph unicode="&#x154;" horiz-adv-x="622" d="M370 817q6 0 8 -5t-4 -12q-22 -24 -135 -146q-7 -7 -13 -3q-5 4 -1 12l26 52t31.5 62t15.5 30q5 10 16 10h56zM290 564q-14 1 -115 1q-2 -70 -2 -162v-100q100 0 129 6q110 22 110 132q0 48 -29.5 84t-92.5 39zM608 -12q-111 13 -194 90.5t-132 186.5q-38 -3 -109 -3 q0 -139 2 -205q0 -9 7 -9h61q5 0 5 -5v-38q0 -5 -4 -5h-209q-5 0 -5 4v39q0 5 5 5h60q7 0 7 9q1 44 1 346q0 117 -1 152q0 9 -7 9h-57q-5 0 -5 5v38q0 5 5 5q144 -2 227 -2q61 -1 105 -16t67.5 -41t34 -54.5t10.5 -61.5q0 -51 -33 -93t-93 -64q39 -89 103.5 -161.5 t143.5 -103.5q22 -9 22 -18q0 -12 -17 -9z" />
<glyph unicode="&#x155;" horiz-adv-x="306" d="M134 377v-79q62 52 74 60q23 17 40 17q21 0 33.5 -18.5t12.5 -47.5q0 -10 -8 -15l-37 -20q-13 -8 -13 6q0 11 -7 23t-21 12q-11 0 -20 -5q-31 -17 -54 -44q0 -167 1 -214q0 -7 9 -7h48q5 0 5 -5v-35q0 -5 -5 -5h-167q-5 0 -5 5v35q0 5 4 5h36q8 0 8 11q2 102 2 216 q0 23 -7 30.5t-36 12.5q-5 1 -5 10q0 7 4 9q37 19 92 49q8 4 12 2t4 -8zM243 574q6 0 8 -5t-4 -12q-22 -24 -135 -146q-7 -7 -13 -3q-5 4 -1 12l26 52t31.5 62t15.5 30q5 10 16 10h56z" />
<glyph unicode="&#x156;" horiz-adv-x="622" d="M290 564q-14 1 -115 1q-2 -70 -2 -162v-100q100 0 129 6q110 22 110 132q0 48 -29.5 84t-92.5 39zM614 -12q-112 13 -198 91.5t-134 185.5q-38 -3 -109 -3q0 -139 2 -205q0 -9 7 -9h61q5 0 5 -5v-38q0 -5 -4 -5h-209q-5 0 -5 4v39q0 5 5 5h60q7 0 7 9q1 44 1 346 q0 117 -1 152q0 9 -7 9h-57q-5 0 -5 5v38q0 5 5 5q144 -2 227 -2q61 -1 105 -16t67.5 -41t34 -54.5t10.5 -61.5q0 -51 -33 -93t-93 -64q38 -88 105.5 -161t147.5 -104q22 -9 22 -18q0 -12 -17 -9zM267 -145q-6 3 -6 9q0 4 7 9q23 15 38 54q3 7 9 7t9 -7q16 -39 46 -54 q7 -3 7 -9t-7 -9q-22 -10 -29 -39q-6 -27 -22 -54.5t-41 -38.5q-14 -5 -18 3q-4 9 5 16q34 27 34 62q0 11 -7.5 27t-24.5 24z" />
<glyph unicode="&#x157;" horiz-adv-x="306" d="M57 -145q-6 3 -6 9q0 4 7 9q23 15 38 54q3 7 9 7t9 -7q16 -39 46 -54q7 -3 7 -9t-7 -9q-22 -10 -29 -39q-6 -27 -22 -54.5t-41 -38.5q-14 -5 -18 3q-4 9 5 16q34 27 34 62q0 11 -7.5 27t-24.5 24zM134 377v-79q62 52 74 60q23 17 40 17q21 0 33.5 -18.5t12.5 -47.5 q0 -10 -8 -15l-37 -20q-13 -8 -13 6q0 11 -7 23t-21 12q-11 0 -20 -5q-31 -17 -54 -44q0 -167 1 -214q0 -7 9 -7h48q5 0 5 -5v-35q0 -5 -5 -5h-167q-5 0 -5 5v35q0 5 4 5h36q8 0 8 11q2 102 2 216q0 23 -7 30.5t-36 12.5q-5 1 -5 10q0 7 4 9q37 19 92 49q8 4 12 2t4 -8z" />
<glyph unicode="&#x158;" horiz-adv-x="622" d="M264 747q12 8 35 23.5t43.5 29.5t21.5 14q7 6 12 1q4 -5 0 -9q-43 -57 -86 -110q-18 -23 -26 -23t-26 23q-43 53 -86 110q-4 4 0 9q5 5 12 -1q75 -50 100 -67zM290 564q-14 1 -115 1q-2 -70 -2 -162v-100q100 0 129 6q110 22 110 132q0 48 -29.5 84t-92.5 39zM608 -12 q-111 13 -194 90.5t-132 186.5q-38 -3 -109 -3q0 -139 2 -205q0 -9 7 -9h61q5 0 5 -5v-38q0 -5 -4 -5h-209q-5 0 -5 4v39q0 5 5 5h60q7 0 7 9q1 44 1 346q0 117 -1 152q0 9 -7 9h-57q-5 0 -5 5v38q0 5 5 5q144 -2 227 -2q61 -1 105 -16t67.5 -41t34 -54.5t10.5 -61.5 q0 -51 -33 -93t-93 -64q39 -89 103.5 -161.5t143.5 -103.5q22 -9 22 -18q0 -12 -17 -9z" />
<glyph unicode="&#x159;" horiz-adv-x="306" d="M134 377v-79q62 52 74 60q23 17 40 17q21 0 33.5 -18.5t12.5 -47.5q0 -10 -8 -15l-37 -20q-13 -8 -13 6q0 11 -7 23t-21 12q-11 0 -20 -5q-31 -17 -54 -44q0 -167 1 -214q0 -7 9 -7h48q5 0 5 -5v-35q0 -5 -5 -5h-167q-5 0 -5 5v35q0 5 4 5h36q8 0 8 11q2 102 2 216 q0 23 -7 30.5t-36 12.5q-5 1 -5 10q0 7 4 9q37 19 92 49q8 4 12 2t4 -8zM153 504q12 8 35 23.5t43.5 29.5t21.5 14q7 6 12 1q5 -4 0 -9q-43 -57 -86 -110q-18 -23 -26 -23t-26 23q-43 53 -86 110q-5 5 0 9q5 5 12 -1q75 -50 100 -67z" />
<glyph unicode="&#x15a;" horiz-adv-x="502" d="M345 817q6 0 8 -5t-4 -12q-22 -24 -135 -146q-7 -7 -13 -3q-5 4 -1 12l26 52t31.5 62t15.5 30q5 10 16 10h56zM385 593q14 -8 23 -4.5t23 26.5q4 5 10 5q10 0 10 -8v-152q0 -11 -9 -11q-11 0 -14 10q-15 46 -59 82.5t-121 36.5q-48 0 -79.5 -24t-31.5 -63 q0 -50 35.5 -76.5t130.5 -64.5q169 -67 169 -197q0 -61 -59 -111t-156 -50q-53 0 -106 18q-24 11 -37.5 10t-26.5 -21q-5 -7 -11 -7q-10 0 -12 13q-15 71 -38 156q-4 12 9 12q9 0 13 -9q56 -124 220 -124q61 0 96.5 32t35.5 70q0 55 -40.5 88.5t-120.5 65.5 q-79 32 -120.5 72.5t-41.5 103.5q0 59 49.5 104t128.5 45q71 0 130 -28z" />
<glyph unicode="&#x15b;" horiz-adv-x="314" d="M162 22q23 0 41 16.5t18 37.5q0 18 -10 29q-18 22 -72 61.5t-71 56.5q-29 29 -29 64q0 37 31 63.5t75 26.5q43 0 83 -19q6 -3 13 6q9 13 13 13h5q6 0 6 -7q0 -1 -0.5 -17.5t-0.5 -24.5q0 -31 1 -57q0 -6 -9 -6q-6 0 -8 5q-32 78 -99 78q-25 0 -41.5 -11.5t-16.5 -28.5 t17 -33q16 -15 35.5 -29.5t43 -31.5t36.5 -27q57 -43 57 -98q0 -41 -33 -69t-86 -28t-93 20q-6 3 -13 -6q-9 -14 -13 -14h-6q-6 0 -6 7q0 2 0.5 18.5t0.5 24.5q0 10 -2 62q0 7 9 7q7 0 9 -6q15 -40 48 -61.5t67 -21.5zM229 574q6 0 8 -5t-4 -12q-22 -24 -135 -146 q-7 -7 -13 -3q-5 4 -1 12l26 52t31.5 62t15.5 30q5 10 16 10h56z" />
<glyph unicode="&#x15e;" horiz-adv-x="502" d="M385 593q14 -8 23 -4.5t23 26.5q4 5 10 5q10 0 10 -8v-152q0 -11 -9 -11q-11 0 -14 10q-15 46 -59 82.5t-121 36.5q-48 0 -79.5 -24t-31.5 -63q0 -50 35.5 -76.5t130.5 -64.5q169 -67 169 -197q0 -56 -50.5 -103.5t-134.5 -55.5l-21 -39q68 -24 68 -74q0 -47 -43.5 -71.5 t-108.5 -24.5q-15 0 -15 11q0 12 15 13q104 11 104 61q0 44 -69 48q-3 1 -4 4t1 4q2 6 44 66h-1q-53 0 -106 18q-24 11 -37.5 10t-26.5 -21q-5 -7 -11 -7q-10 0 -12 13q-15 71 -38 156q-4 12 9 12q9 0 13 -9q56 -124 220 -124q61 0 96.5 32t35.5 70q0 55 -40.5 88.5 t-120.5 65.5q-79 32 -120.5 72.5t-41.5 103.5q0 59 49.5 104t128.5 45q71 0 130 -28z" />
<glyph unicode="&#x15f;" horiz-adv-x="314" d="M162 22q23 0 41 16.5t18 37.5q0 18 -10 29q-18 22 -72 61.5t-71 56.5q-29 29 -29 64q0 37 31 63.5t75 26.5q43 0 83 -19q6 -3 13 6q9 13 13 13h5q6 0 6 -7q0 -1 -0.5 -17.5t-0.5 -24.5q0 -31 1 -57q0 -6 -9 -6q-6 0 -8 5q-32 78 -99 78q-25 0 -41.5 -11.5t-16.5 -28.5 t17 -33q16 -15 35.5 -29.5t43 -31.5t36.5 -27q57 -43 57 -98q0 -35 -25 -61t-66 -33l-21 -40q68 -24 68 -74q0 -47 -43.5 -71.5t-108.5 -24.5q-15 0 -15 11q0 12 15 13q104 11 104 61q0 44 -69 48q-3 1 -4 4t1 4q2 6 44 66q-52 0 -92 20q-6 3 -13 -6q-9 -14 -13 -14h-6 q-6 0 -6 7q0 2 0.5 18.5t0.5 24.5q0 10 -2 62q0 7 9 7q7 0 9 -6q15 -40 48 -61.5t67 -21.5z" />
<glyph unicode="&#x160;" horiz-adv-x="502" d="M281 747q12 8 35 23.5t43.5 29.5t21.5 14q7 6 12 1t0 -9q-43 -57 -86 -110q-18 -23 -26 -23t-26 23q-43 53 -86 110q-5 4 0 9t12 -1q75 -50 100 -67zM385 593q14 -8 23 -4.5t23 26.5q4 5 10 5q10 0 10 -8v-152q0 -11 -9 -11q-11 0 -14 10q-15 46 -59 82.5t-121 36.5 q-48 0 -79.5 -24t-31.5 -63q0 -50 35.5 -76.5t130.5 -64.5q169 -67 169 -197q0 -61 -59 -111t-156 -50q-53 0 -106 18q-24 11 -37.5 10t-26.5 -21q-5 -7 -11 -7q-10 0 -12 13q-15 71 -38 156q-4 12 9 12q9 0 13 -9q56 -124 220 -124q61 0 96.5 32t35.5 70q0 55 -40.5 88.5 t-120.5 65.5q-79 32 -120.5 72.5t-41.5 103.5q0 59 49.5 104t128.5 45q71 0 130 -28z" />
<glyph unicode="&#x161;" horiz-adv-x="314" d="M164 504l100 67q7 6 12 1q4 -4 0 -9q-43 -57 -86 -110q-18 -23 -26 -23t-26 23q-43 53 -86 110q-4 5 0 9q5 5 12 -1zM162 22q23 0 41 16.5t18 37.5q0 18 -10 29q-18 22 -72 61.5t-71 56.5q-29 29 -29 64q0 37 31 63.5t75 26.5q43 0 83 -19q6 -3 13 6q9 13 13 13h5 q6 0 6 -7q0 -1 -0.5 -17.5t-0.5 -24.5q0 -31 1 -57q0 -6 -9 -6q-6 0 -8 5q-32 78 -99 78q-25 0 -41.5 -11.5t-16.5 -28.5t17 -33q16 -15 35.5 -29.5t43 -31.5t36.5 -27q57 -43 57 -98q0 -41 -33 -69t-86 -28t-93 20q-6 3 -13 -6q-9 -14 -13 -14h-6q-6 0 -6 7q0 2 0.5 18.5 t0.5 24.5q0 10 -2 62q0 7 9 7q7 0 9 -6q15 -40 48 -61.5t67 -21.5z" />
<glyph unicode="&#x162;" horiz-adv-x="638" d="M583 496q-10 0 -14 12q-5 14 -11.5 24t-20 16t-22 9.5t-31 5t-31.5 1.5h-39h-66q-2 -34 -2 -161q0 -258 2 -346q0 -9 7 -9h71q5 0 5 -5v-39q0 -4 -5 -4h-229q-5 0 -5 4v39q0 5 5 5h71q7 0 7 9q1 44 1 346q0 144 -1 161h-77q-70 0 -106 -11.5t-57 -47.5q-5 -9 -13 -9 q-12 0 -9 12q9 35 30 122q2 11 12 11q7 0 11 -7q12 -22 48 -22h207h240q25 0 41 23q4 6 12 6q12 0 9 -11q-3 -12 -30 -123q-2 -11 -10 -11zM267 -145q-6 3 -6 9q0 4 7 9q23 15 38 54q3 7 9 7t9 -7q16 -39 46 -54q7 -3 7 -9t-7 -9q-22 -10 -29 -39q-6 -27 -22 -54.5 t-41 -38.5q-14 -5 -18 3q-4 9 5 16q34 27 34 62q0 11 -7.5 27t-24.5 24z" />
<glyph unicode="&#x163;" horiz-adv-x="296" d="M97 -145q-6 3 -6 9q0 4 7 9q23 15 38 54q3 7 9 7t9 -7q16 -39 46 -54q7 -3 7 -9t-7 -9q-22 -10 -29 -39q-6 -27 -22 -54.5t-41 -38.5q-14 -5 -18 3q-4 9 5 16q34 27 34 62q0 11 -7.5 27t-24.5 24zM101 428q8 8 13 5.5t5 -8.5v-55h147q14 0 8 -15q-5 -13 -9 -22 q-4 -8 -13 -8h-133v-207q0 -35 17 -54t46 -19q38 0 78 32q7 5 10 5q4 0 6 -4t0 -8q-17 -35 -55 -56.5t-76 -21.5q-44 0 -68 31t-23 76q1 181 1 226h-27q-9 0 -10 5.5t5 12.5q4 4 78 85z" />
<glyph unicode="&#x164;" horiz-adv-x="638" d="M319 747q12 8 35 23.5t43.5 29.5t21.5 14q7 6 12 1t0 -9q-43 -57 -86 -110q-18 -23 -26 -23t-26 23q-43 53 -86 110q-5 4 0 9t12 -1q75 -50 100 -67zM583 496q-10 0 -14 12q-5 14 -11.5 24t-20 16t-22 9.5t-31 5t-31.5 1.5h-39h-66q-2 -34 -2 -161q0 -258 2 -346 q0 -9 7 -9h71q5 0 5 -5v-39q0 -4 -5 -4h-229q-5 0 -5 4v39q0 5 5 5h71q7 0 7 9q1 44 1 346q0 144 -1 161h-77q-70 0 -106 -11.5t-57 -47.5q-5 -9 -13 -9q-12 0 -9 12q9 35 30 122q2 11 12 11q7 0 11 -7q12 -22 48 -22h207h240q25 0 41 23q4 6 12 6q12 0 9 -11 q-3 -12 -30 -123q-2 -11 -10 -11z" />
<glyph unicode="&#x165;" horiz-adv-x="299" d="M266 545q-17 -56 -56 -80q-4 -3 -12 -3t-11 5q-3 8 5 16q34 26 34 51q0 26 -34 44q-7 4 -7 9q0 8 7 10q28 17 37 36q5 8 10 8q6 0 9 -8q1 -2 4 -6.5l4 -6t4 -5t6 -5.5t7.5 -5.5t11.5 -7.5q7 -2 7 -10q0 -3 -8 -11q-12 -8 -18 -31zM111 435q8 8 14 8q9 0 7 -12l-5 -61h147 h3q7 0 8.5 -1t-0.5 -9l-13 -27q-4 -8 -13 -8h-132v-207q0 -35 17 -54t46 -19q40 0 75 27q6 5 10 5q5 0 6.5 -4.5t-1.5 -9.5q-18 -34 -53 -52.5t-74 -18.5q-44 0 -68 31t-23 76q1 181 1 226h-35q-8 0 -10 5.5t5 12.5q57 59 88 92z" />
<glyph unicode="&#x16a;" horiz-adv-x="683" d="M580 554l-3 -147q0 -20 0.5 -76.5t-0.5 -95t-5 -57.5q-12 -65 -51 -108t-86.5 -60.5t-102.5 -17.5q-83 0 -148 49t-73 137q-2 25 -2 229q0 112 -1 147q0 10 -7 10h-61q-5 0 -5 4v39q0 5 5 5h211q4 0 4 -5v-39q0 -4 -4 -4h-62q-7 0 -7 -10q-2 -70 -2 -147q0 -179 6 -229 q6 -62 50.5 -99.5t108.5 -37.5q72 0 121.5 42t54.5 112q2 26 5 212q1 34 0 87.5t-1 59.5q0 10 -8 10h-61q-5 0 -5 4v39q0 5 5 5h192q5 0 5 -5v-39q0 -4 -5 -4h-61q-7 0 -7 -10zM429 674h-154q-5 0 -5 4v32q0 4 5 4h154q4 0 4 -4v-32q0 -4 -4 -4z" />
<glyph unicode="&#x16b;" horiz-adv-x="441" d="M287 461h-154q-5 0 -5 4v32q0 4 5 4h154q4 0 4 -4v-32q0 -4 -4 -4zM301 272q0 24 -6.5 30.5t-36.5 12.5q-5 1 -5 10q0 8 4 10q8 4 29 15t39 20.5t24 12.5q7 4 11.5 2t4.5 -8q0 -238 1 -307q0 -9 9 -9h24q5 0 5 -6v-9q0 -4 -4 -6q-40 -20 -85 -45q-17 -9 -17 7l1 63 q-87 -73 -151 -73q-49 0 -69 35.5t-19 81.5q2 110 2 163q0 24 -5.5 31t-33.5 12q-5 1 -5 9q0 9 4 11q12 7 49 27t39 21q8 4 12 2t4 -8v-263q0 -70 76 -70q19 0 48 14.5t49 36.5q2 124 2 177z" />
<glyph unicode="&#x16e;" horiz-adv-x="683" d="M352 778q-19 0 -31.5 -13t-12.5 -32t13 -31.5t31 -12.5q19 0 32 12.5t13 31.5q0 18 -13 31.5t-32 13.5zM352 661q-29 0 -50 21.5t-21 50.5t21 50.5t50 21.5q30 0 51 -21.5t21 -50.5t-20.5 -50.5t-51.5 -21.5zM580 554l-3 -147q0 -20 0.5 -76.5t-0.5 -95t-5 -57.5 q-12 -65 -51 -108t-86.5 -60.5t-102.5 -17.5q-83 0 -148 49t-73 137q-2 25 -2 229q0 112 -1 147q0 10 -7 10h-61q-5 0 -5 4v39q0 5 5 5h211q4 0 4 -5v-39q0 -4 -4 -4h-62q-7 0 -7 -10q-2 -70 -2 -147q0 -179 6 -229q6 -62 50.5 -99.5t108.5 -37.5q72 0 121.5 42t54.5 112 q2 26 5 212q1 34 0 87.5t-1 59.5q0 10 -8 10h-61q-5 0 -5 4v39q0 5 5 5h192q5 0 5 -5v-39q0 -4 -5 -4h-61q-7 0 -7 -10z" />
<glyph unicode="&#x16f;" horiz-adv-x="441" d="M210 535q-19 0 -31.5 -13t-12.5 -32t13 -31.5t31 -12.5q19 0 32 12.5t13 31.5q0 18 -13 31.5t-32 13.5zM210 418q-29 0 -50 21.5t-21 50.5t21 50.5t50 21.5q30 0 51 -21.5t21 -50.5t-20.5 -50.5t-51.5 -21.5zM301 272q0 24 -6.5 30.5t-36.5 12.5q-5 1 -5 10q0 8 4 10 q8 4 29 15t39 20.5t24 12.5q7 4 11.5 2t4.5 -8q0 -238 1 -307q0 -9 9 -9h24q5 0 5 -6v-9q0 -4 -4 -6q-40 -20 -85 -45q-17 -9 -17 7l1 63q-87 -73 -151 -73q-49 0 -69 35.5t-19 81.5q2 110 2 163q0 24 -5.5 31t-33.5 12q-5 1 -5 9q0 9 4 11q12 7 49 27t39 21q8 4 12 2t4 -8 v-263q0 -70 76 -70q19 0 48 14.5t49 36.5q2 124 2 177z" />
<glyph unicode="&#x170;" horiz-adv-x="683" d="M580 554l-3 -147q0 -20 0.5 -76.5t-0.5 -95t-5 -57.5q-12 -65 -51 -108t-86.5 -60.5t-102.5 -17.5q-83 0 -148 49t-73 137q-2 25 -2 229q0 112 -1 147q0 10 -7 10h-61q-5 0 -5 4v39q0 5 5 5h211q4 0 4 -5v-39q0 -4 -4 -4h-62q-7 0 -7 -10q-2 -70 -2 -147q0 -179 6 -229 q6 -62 50.5 -99.5t108.5 -37.5q72 0 121.5 42t54.5 112q2 26 5 212q1 34 0 87.5t-1 59.5q0 10 -8 10h-61q-5 0 -5 4v39q0 5 5 5h192q5 0 5 -5v-39q0 -4 -5 -4h-61q-7 0 -7 -10zM379 817q6 0 8 -5t-4 -12q-22 -24 -135 -146q-7 -7 -13 -3q-5 4 -1 12l26 52t31.5 62t15.5 30 q5 10 16 10h56zM494 817q6 0 8 -5t-4 -12q-22 -24 -135 -146q-7 -7 -13 -3q-5 4 -1 12l26 52t31.5 62t15.5 30q5 10 16 10h56z" />
<glyph unicode="&#x171;" horiz-adv-x="441" d="M267 574q6 0 8 -5t-4 -12q-22 -24 -135 -146q-7 -7 -13 -3q-5 4 -1 12l26 52t31.5 62t15.5 30q5 10 16 10h56zM382 574q6 0 8 -5t-4 -12q-22 -24 -135 -146q-7 -7 -13 -3q-5 4 -1 12l26 52t31.5 62t15.5 30q5 10 16 10h56zM301 272q0 24 -6.5 30.5t-36.5 12.5q-5 1 -5 10 q0 8 4 10q8 4 29 15t39 20.5t24 12.5q7 4 11.5 2t4.5 -8q0 -238 1 -307q0 -9 9 -9h24q5 0 5 -6v-9q0 -4 -4 -6q-40 -20 -85 -45q-17 -9 -17 7l1 63q-87 -73 -151 -73q-49 0 -69 35.5t-19 81.5q2 110 2 163q0 24 -5.5 31t-33.5 12q-5 1 -5 9q0 9 4 11q12 7 49 27t39 21 q8 4 12 2t4 -8v-263q0 -70 76 -70q19 0 48 14.5t49 36.5q2 124 2 177z" />
<glyph unicode="&#x172;" horiz-adv-x="683" d="M358 -220q-50 0 -74 30.5t-24 65.5q0 54 62 116q-80 3 -142 52t-69 134q-2 25 -2 229q0 112 -1 147q0 10 -7 10h-61q-5 0 -5 4v39q0 5 5 5h211q4 0 4 -5v-39q0 -4 -4 -4h-62q-7 0 -7 -10q-2 -70 -2 -147q0 -179 6 -229q6 -62 50.5 -99.5t108.5 -37.5q72 0 121.5 42 t54.5 112q2 26 5 212q1 34 0 87.5t-1 59.5q0 10 -8 10h-61q-5 0 -5 4v39q0 5 5 5h192q5 0 5 -5v-39q0 -4 -5 -4h-61q-7 0 -7 -10l-3 -147q0 -20 0.5 -76.5t-0.5 -95t-5 -57.5q-16 -88 -77 -133.5t-141 -51.5q-42 -47 -42 -92q0 -44 22 -66.5t49 -22.5q16 0 38 9q15 7 19 -3 q5 -9 -10 -17q-38 -21 -72 -21z" />
<glyph unicode="&#x173;" horiz-adv-x="441" d="M301 272q0 24 -6.5 30.5t-36.5 12.5q-5 1 -5 10q0 8 4 10l92 48q7 4 11.5 2t4.5 -8q0 -238 1 -307q0 -9 9 -9h24q5 0 5 -6v-9q0 -4 -4 -6q-56 -23 -91 -53.5t-35 -80.5t31 -74t78 -6q16 6 19 -2q4 -9 -10 -18q-32 -21 -72 -21q-50 0 -74 30.5t-24 65.5q0 58 76 130l1 54 q-87 -73 -151 -73q-49 0 -69 35.5t-19 81.5q2 110 2 163q0 24 -5.5 31t-33.5 12q-5 1 -5 9q0 9 4 11l88 48q8 4 12 2t4 -8v-263q0 -70 76 -70q19 0 48 14.5t49 36.5q2 124 2 177z" />
<glyph unicode="&#x174;" horiz-adv-x="972" d="M635 116q138 321 187 435q5 13 -4 13h-52q-5 0 -5 4v39q0 5 5 5h171q5 0 5 -5v-39q0 -4 -5 -4h-38q-16 0 -19 -6q-2 -2 -3 -5q-55 -128 -240 -549q-2 -4 -4 -4h-19q-4 0 -5 3q-45 100 -116 266q-43 -94 -117 -265q-2 -4 -5 -4h-24q-3 0 -5 3l-256 556q-2 5 -7 5h-44 q-5 0 -5 4v39q0 5 5 5h186q4 0 4 -5v-39q0 -4 -4 -4h-48q-9 0 -1 -19q1 -3 200 -434q9 22 42 97t53 121l-101 230q-2 5 -7 5h-45q-5 0 -5 4v39q0 5 5 5h167q4 0 4 -5v-39q0 -4 -4 -4h-27q-9 0 -1 -19q1 -3 8.5 -20.5t20 -47t24.5 -57.5q33 77 57 131q5 13 -4 13h-39 q-5 0 -5 4v39q0 5 5 5h150q5 0 5 -5v-38q0 -5 -5 -5h-30q-17 0 -21 -7l-2 -4q-35 -82 -85 -195q56 -136 103 -242zM493 738q-46 -40 -100 -85q-7 -6 -12 -1q-4 4 0 11q62 93 86 127q18 27 26 27t26 -27q24 -34 86 -127q4 -7 0 -11q-5 -5 -12 1q-54 45 -100 85z" />
<glyph unicode="&#x175;" horiz-adv-x="688" d="M233 81l93 216q-4 9 -9 19q-5 9 -15 9h-28q-4 0 -4 5v36q0 4 4 4h153q5 0 5 -5v-35q0 -5 -5 -5h-29q-7 0 -8.5 -1.5t0.5 -5.5l101 -233l97 233q2 5 0.5 6t-6.5 1h-35q-5 0 -5 5v36q0 4 5 4h132q4 0 4 -4v-36q0 -5 -4 -5h-27q-13 0 -17 -2t-8 -12l-139 -314q-2 -5 -7 -5 h-13q-5 0 -7 6l-116 257l-113 -258q-2 -5 -6 -5h-15q-5 0 -7 5l-141 313q-5 11 -8.5 13t-14.5 2h-31q-4 0 -4 5v36q0 4 4 4h162q4 0 4 -4v-36q0 -5 -4 -5h-32q-8 0 -9 -1.5t3 -9.5zM347 495q-46 -40 -100 -85q-7 -6 -12 -1q-4 4 0 11q62 93 86 127q18 27 26 27t26 -27 q24 -34 86 -127q4 -7 0 -11q-5 -5 -12 1q-54 45 -100 85z" />
<glyph unicode="&#x176;" horiz-adv-x="704" d="M326 194q-14 22 -56.5 93.5t-93.5 157t-66 110.5q-6 9 -19 9h-56q-5 0 -5 5v39q0 4 5 4h223q4 0 4 -4v-39q0 -5 -4 -5h-62q-7 0 -3 -6q89 -156 181 -312q116 204 173 303q6 11 4.5 13t-13.5 2h-49q-4 0 -4 5v39q0 4 4 4h180q5 0 5 -4v-39q0 -5 -5 -5h-38 q-13 0 -17.5 -2.5t-11.5 -14.5q-10 -17 -73.5 -125.5t-132.5 -227.5q0 -24 0.5 -56.5t1 -51.5t0.5 -29q0 -9 7 -9h60q5 0 5 -5v-38q0 -5 -5 -5h-208q-4 0 -4 5v38q0 5 5 5h60q7 0 7 9q0 74 1 137zM369 738q-46 -40 -100 -85q-7 -6 -12 -1q-4 4 0 11q62 93 86 127 q18 27 26 27t26 -27q24 -34 86 -127q4 -7 0 -11q-5 -5 -12 1q-54 45 -100 85z" />
<glyph unicode="&#x177;" horiz-adv-x="449" d="M179 0l-127 309q-4 12 -7 14t-13 2h-22q-5 0 -5 5v36q0 4 5 4h147q5 0 5 -4v-36q0 -5 -5 -5h-33q-6 0 -6.5 -1.5t2.5 -9.5l97 -244q48 87 128 245q3 7 1.5 8.5t-7.5 1.5h-37q-4 0 -4 5v36q0 4 4 4h138q4 0 4 -4v-36q0 -5 -5 -5h-31q-7 0 -11 -4.5t-13 -21.5 q-76 -136 -314 -564q-5 -8 -12 -8h-31q-12 0 -4 12q48 83 156 261zM224 495q-46 -40 -100 -85q-7 -6 -12 -1q-4 4 0 11q62 93 86 127q18 27 26 27t26 -27q24 -34 86 -127q4 -7 0 -11q-5 -5 -12 1q-54 45 -100 85z" />
<glyph unicode="&#x178;" horiz-adv-x="626" d="M308 194q-14 22 -57.5 95t-94 158t-64.5 108q-6 9 -19 9h-56q-5 0 -5 5v39q0 4 5 4h223q4 0 4 -4v-39q0 -5 -4 -5h-62q-7 0 -3 -6q111 -194 181 -312q135 238 173 303q6 11 4.5 13t-13.5 2h-49q-4 0 -4 5v39q0 4 4 4h180q5 0 5 -4v-39q0 -5 -5 -5h-38q-13 0 -17.5 -2.5 t-11.5 -14.5q-15 -25 -45.5 -77.5t-69.5 -119t-91 -156.5q0 -24 0.5 -56.5t1 -51.5t0.5 -29q0 -9 7 -9h60q5 0 5 -5v-38q0 -5 -5 -5h-208q-4 0 -4 5v38q0 5 5 5h60q7 0 7 9q0 74 1 137zM497 841q16 -31 54 -46q7 -3 7 -9t-7 -9q-38 -15 -54 -46q-3 -7 -9 -7t-9 7 q-16 31 -54 46q-7 3 -7 9t7 9q38 15 54 46q3 7 9 7t9 -7zM231 841q16 -31 54 -46q7 -3 7 -9t-7 -9q-38 -15 -54 -46q-3 -7 -9 -7t-9 7q-16 31 -54 46q-7 3 -7 9t7 9q38 15 54 46q3 7 9 7t9 -7z" />
<glyph unicode="&#x179;" horiz-adv-x="747" d="M481 817q6 0 8 -5t-4 -12q-22 -24 -135 -146q-7 -7 -13 -3q-5 4 -1 12l26 52t31.5 62t15.5 30q5 10 16 10h56zM664 -32q-4 0 -12 10q-11 18 -47 20l-177 2h-398q-5 0 -5 5v13q0 2 3 5q68 67 548 541h-215q-173 0 -220 -19q-48 -20 -72 -69q-5 -9 -13 -9q-6 0 -9 2t-2 6 q9 26 38 153q2 14 12 14q6 0 11 -7q13 -20 34 -21q41 -2 202 -2h350q5 0 5 -5v-13q0 -2 -3 -5q-158 -160 -539 -541h331q155 0 212 116q4 9 13 9q13 0 10 -12q-4 -13 -44 -181q-2 -12 -13 -12z" />
<glyph unicode="&#x17a;" horiz-adv-x="405" d="M169 0h-148q-13 0 -13 11q0 8 12 20l265 282h-168q-24 0 -36 -4.5t-24 -22.5q-4 -7 -12 -7q-4 0 -6.5 4t-0.5 8l45 110q4 10 13 10q8 0 8 -9q-3 -10 -1 -21t16 -11h236q11 0 11 -6t-14 -21l-262 -286l187 1q29 0 43.5 4.5t17.5 8.5t13 22q5 9 14 9q5 0 7 -4.5t0 -9.5 l-51 -132q-3 -8 -13 -8q-11 0 -7 9q8 27 8 30q0 13 -113 13h-27zM304 574q6 0 8 -5t-4 -12q-22 -24 -135 -146q-7 -7 -13 -3q-5 4 -1 12l26 52t31.5 62t15.5 30q5 10 16 10h56z" />
<glyph unicode="&#x17b;" horiz-adv-x="747" d="M430 733q0 -5 -8 -10q-21 -12 -33 -37q-3 -7 -9 -7t-9 7q-12 25 -33 37q-8 5 -8 10t8 10q21 12 33 37q3 7 9 7t9 -7q12 -25 33 -37q8 -5 8 -10zM664 -32q-4 0 -12 10q-11 18 -47 20l-177 2h-398q-5 0 -5 5v13q0 2 3 5q68 67 548 541h-215q-173 0 -220 -19 q-48 -20 -72 -69q-5 -9 -13 -9q-6 0 -9 2t-2 6q9 26 38 153q2 14 12 14q6 0 11 -7q13 -20 34 -21q41 -2 202 -2h350q5 0 5 -5v-13q0 -2 -3 -5q-158 -160 -539 -541h331q155 0 212 116q4 9 13 9q13 0 10 -12q-4 -13 -44 -181q-2 -12 -13 -12z" />
<glyph unicode="&#x17c;" horiz-adv-x="405" d="M169 0h-148q-13 0 -13 11q0 8 12 20l265 282h-168q-24 0 -36 -4.5t-24 -22.5q-4 -7 -12 -7q-4 0 -6.5 4t-0.5 8l45 110q4 10 13 10q8 0 8 -9q-3 -10 -1 -21t16 -11h236q11 0 11 -6t-14 -21l-262 -286l187 1q29 0 43.5 4.5t17.5 8.5t13 22q5 9 14 9q5 0 7 -4.5t0 -9.5 l-51 -132q-3 -8 -13 -8q-11 0 -7 9q8 27 8 30q0 13 -113 13h-27zM253 472q0 -5 -8 -10q-21 -12 -33 -37q-4 -7 -9 -7t-9 7q-12 25 -33 37q-8 5 -8 10t8 10q21 12 33 37q4 7 9 7t9 -7q12 -25 33 -37q8 -5 8 -10z" />
<glyph unicode="&#x17d;" horiz-adv-x="747" d="M664 -32q-4 0 -12 10q-11 18 -47 20l-177 2h-398q-5 0 -5 5v13q0 2 3 5q68 67 548 541h-215q-173 0 -220 -19q-48 -20 -72 -69q-5 -9 -13 -9q-6 0 -9 2t-2 6q2 6 8.5 32.5t16 65t13.5 55.5q3 14 12 14q6 0 11 -7q13 -20 34 -21q41 -2 202 -2h350q5 0 5 -5v-13q0 -2 -3 -5 q-158 -160 -539 -541h331q155 0 212 116q4 9 13 9q13 0 10 -12q-4 -13 -44 -181q-2 -12 -13 -12zM373 747q12 8 35 23.5t43.5 29.5t21.5 14q7 6 12 1t0 -9q-43 -57 -86 -110q-18 -23 -26 -23t-26 23q-43 53 -86 110q-5 4 0 9t12 -1q75 -50 100 -67z" />
<glyph unicode="&#x17e;" horiz-adv-x="405" d="M216 504q12 8 35 23.5t43.5 29.5t21.5 14q7 6 12 1q4 -4 0 -9q-43 -57 -86 -110q-18 -23 -26 -23t-26 23q-43 53 -86 110q-4 5 0 9q5 5 12 -1q75 -50 100 -67zM169 0h-148q-13 0 -13 11q0 8 12 20l265 282h-168q-24 0 -36 -4.5t-24 -22.5q-4 -7 -12 -7q-4 0 -6.5 4 t-0.5 8l45 110q4 10 13 10q8 0 8 -9q-3 -10 -1 -21t16 -11h236q11 0 11 -6t-14 -21l-262 -286l187 1q29 0 43.5 4.5t17.5 8.5t13 22q5 9 14 9q5 0 7 -4.5t0 -9.5l-51 -132q-3 -8 -13 -8q-11 0 -7 9q8 27 8 30q0 13 -113 13h-27z" />
<glyph unicode="&#x192;" horiz-adv-x="465" d="M112 373h96q19 53 44 100t62 93.5t87.5 74t107.5 27.5q81 0 81 -51q0 -9 -9 -19.5t-29 -10.5q-21 0 -37 12q-31 25 -61 25q-18 0 -35.5 -9.5t-33 -29.5t-28 -38t-26 -48t-20.5 -46t-18.5 -46t-13.5 -34h121q7 0 5 -7q-11 -30 -14 -37q-1 -4 -7 -4h-123q-39 -100 -75 -183 q-52 -121 -127 -190.5t-163 -69.5q-37 0 -59 19t-21 43q1 14 9.5 25t23.5 11q26 0 44 -33q12 -22 43 -22q90 0 170 184q15 35 28 70t28 77t25 69h-89q-10 0 -6 7q4 10 13 37q1 4 7 4z" />
<glyph unicode="&#x219;" horiz-adv-x="314" d="M113 -145q-6 3 -6 9q0 4 7 9q23 15 38 54q3 7 9 7t9 -7q16 -39 46 -54q7 -3 7 -9t-7 -9q-22 -10 -29 -39q-6 -27 -22 -54.5t-41 -38.5q-14 -5 -18 3q-4 9 5 16q34 27 34 62q0 11 -7.5 27t-24.5 24zM162 22q23 0 41 16.5t18 37.5q0 18 -10 29q-18 22 -72 61.5t-71 56.5 q-29 29 -29 64q0 37 31 63.5t75 26.5q43 0 83 -19q6 -3 13 6q9 13 13 13h5q6 0 6 -7q0 -1 -0.5 -17.5t-0.5 -24.5q0 -31 1 -57q0 -6 -9 -6q-6 0 -8 5q-32 78 -99 78q-25 0 -41.5 -11.5t-16.5 -28.5t17 -33q16 -15 35.5 -29.5t43 -31.5t36.5 -27q57 -43 57 -98q0 -41 -33 -69 t-86 -28t-93 20q-6 3 -13 -6q-9 -14 -13 -14h-6q-6 0 -6 7q0 2 0.5 18.5t0.5 24.5q0 10 -2 62q0 7 9 7q7 0 9 -6q15 -40 48 -61.5t67 -21.5z" />
<glyph unicode="&#x21a;" horiz-adv-x="638" d="M583 496q-10 0 -14 12q-5 14 -11.5 24t-20 16t-22 9.5t-31 5t-31.5 1.5h-39h-66q-2 -34 -2 -161q0 -258 2 -346q0 -9 7 -9h71q5 0 5 -5v-39q0 -4 -5 -4h-229q-5 0 -5 4v39q0 5 5 5h71q7 0 7 9q1 44 1 346q0 144 -1 161h-77q-70 0 -106 -11.5t-57 -47.5q-5 -9 -13 -9 q-12 0 -9 12q9 35 30 122q2 11 12 11q7 0 11 -7q12 -22 48 -22h207h240q25 0 41 23q4 6 12 6q12 0 9 -11q-3 -12 -30 -123q-2 -11 -10 -11zM267 -145q-6 3 -6 9q0 4 7 9q23 15 38 54q3 7 9 7t9 -7q16 -39 46 -54q7 -3 7 -9t-7 -9q-22 -10 -29 -39q-6 -27 -22 -54.5 t-41 -38.5q-14 -5 -18 3q-4 9 5 16q34 27 34 62q0 11 -7.5 27t-24.5 24z" />
<glyph unicode="&#x21b;" horiz-adv-x="294" d="M97 -145q-6 3 -6 9q0 4 7 9q23 15 38 54q3 7 9 7t9 -7q16 -39 46 -54q7 -3 7 -9t-7 -9q-22 -10 -29 -39q-6 -27 -22 -54.5t-41 -38.5q-14 -5 -18 3q-4 9 5 16q34 27 34 62q0 11 -7.5 27t-24.5 24zM111 435q8 8 14 8q9 0 7 -12l-5 -61h147h3q7 0 8.5 -1t-0.5 -9l-13 -27 q-4 -8 -13 -8h-132v-207q0 -35 17 -54t46 -19q40 0 75 27q6 5 10 5q5 0 6.5 -4.5t-1.5 -9.5q-18 -34 -53 -52.5t-74 -18.5q-44 0 -68 31t-23 76q1 181 1 226h-35q-8 0 -10 5.5t5 12.5q57 59 88 92z" />
<glyph unicode="&#x2c6;" horiz-adv-x="288" d="M144 495q-46 -40 -100 -85q-7 -6 -12 -1q-4 4 0 11q62 93 86 127q18 27 26 27t26 -27q24 -34 86 -127q4 -7 0 -11q-5 -5 -12 1q-54 45 -100 85z" />
<glyph unicode="&#x2c7;" horiz-adv-x="298" d="M149 504q12 8 35 23.5t43.5 29.5t21.5 14q7 6 12 1q5 -4 0 -9q-43 -57 -86 -110q-18 -23 -26 -23t-26 23q-43 53 -86 110q-5 5 0 9q5 5 12 -1q75 -50 100 -67z" />
<glyph unicode="&#x2d8;" horiz-adv-x="270" d="M135 470q58 0 80 80q3 12 10 12q10 0 10 -14q0 -71 -31 -100.5t-69 -29.5t-69 29.5t-31 100.5q0 14 10 14q7 0 10 -12q22 -80 80 -80z" />
<glyph unicode="&#x2d9;" horiz-adv-x="160" d="M130 472q0 -5 -8 -10q-21 -12 -33 -37q-3 -7 -9 -7t-9 7q-12 25 -33 37q-8 5 -8 10t8 10q21 12 33 37q3 7 9 7t9 -7q12 -25 33 -37q8 -5 8 -10z" />
<glyph unicode="&#x2da;" horiz-adv-x="203" d="M101 535q-19 0 -31.5 -13t-12.5 -32t13 -31.5t31 -12.5q19 0 32 12.5t13 31.5q0 18 -13 31.5t-32 13.5zM101 418q-29 0 -50 21.5t-21 50.5t21 50.5t50 21.5q30 0 51 -21.5t21 -50.5t-20.5 -50.5t-51.5 -21.5z" />
<glyph unicode="&#x2db;" horiz-adv-x="241" d="M128 -215q-50 0 -74 30.5t-24 65.5q0 56 75 129h31q-29 -29 -41.5 -52t-12.5 -52q0 -44 22 -66.5t49 -22.5q15 0 38 9q15 7 19 -3q5 -9 -10 -17q-38 -21 -72 -21z" />
<glyph unicode="&#x2dc;" horiz-adv-x="292" d="M161 504q31 -19 49 -19q27 0 36 33q3 11 10 11q8 0 6 -10q-10 -81 -68 -81q-25 0 -65 25q-21 13 -46 13q-29 0 -37 -34q-3 -11 -10 -11q-6 0 -6 10q1 34 18.5 57.5t49.5 23.5q33 0 63 -18z" />
<glyph unicode="&#x2dd;" horiz-adv-x="332" d="M177 574q6 0 8 -5t-4 -12q-22 -24 -135 -146q-7 -7 -13 -3q-5 4 -1 12l26 52t31.5 62t15.5 30q5 10 16 10h56zM292 574q6 0 8 -5t-4 -12q-22 -24 -135 -146q-7 -7 -13 -3q-5 4 -1 12l26 52t31.5 62t15.5 30q5 10 16 10h56z" />
<glyph unicode="&#x2013;" horiz-adv-x="559" d="M45 158q-6 0 -8.5 4t0.5 8q12 22 19 35q5 8 13 8h446q13 0 8 -11q-12 -24 -19 -36q-4 -8 -12 -8h-447z" />
<glyph unicode="&#x2014;" horiz-adv-x="1059" d="M45 158q-6 0 -8.5 4t0.5 8q12 22 19 35q5 8 13 8h947q14 0 8 -11q-12 -24 -19 -36q-4 -8 -12 -8h-948z" />
<glyph unicode="&#x2018;" horiz-adv-x="215" d="M129 328q6 -3 6 -9q0 -4 -7 -9q-23 -15 -38 -54q-3 -7 -9 -7t-9 7q-16 39 -46 54q-7 4 -7 9t7 9q22 10 29 39q6 27 22 54.5t41 38.5q14 6 18 -3t-5 -16q-34 -27 -34 -62q0 -11 7.5 -27t24.5 -24z" />
<glyph unicode="&#x2019;" horiz-adv-x="184" d="M123 547q-13 -53 -55 -81q-14 -10 -22 0q-7 9 6 19t22.5 24.5t9.5 24.5q0 26 -34 44q-7 4 -7 9q0 7 7 10q24 11 37 36q4 8 10 8q7 0 10 -8q8 -18 36 -35q7 -4 7 -10t-7 -9q-14 -9 -20 -32z" />
<glyph unicode="&#x201a;" horiz-adv-x="190" d="M73 43q-6 3 -6 9q0 4 7 9q23 15 38 54q3 7 9 7t9 -7q16 -39 46 -54q7 -3 7 -9t-7 -9q-22 -10 -29 -39q-6 -27 -22 -54.5t-41 -38.5q-14 -5 -18 3q-4 9 5 16q34 27 34 62q0 11 -7.5 27t-24.5 24z" />
<glyph unicode="&#x201c;" horiz-adv-x="448" d="M365 328q6 -3 6 -9q0 -4 -7 -9q-23 -15 -38 -54q-3 -7 -9 -7t-9 7q-16 39 -46 54q-7 4 -7 9t7 9q22 10 29 39q6 27 22 54.5t41 38.5q14 6 18 -3t-5 -16q-34 -27 -34 -62q0 -11 7.5 -27t24.5 -24zM129 328q6 -3 6 -9q0 -4 -7 -9q-23 -15 -38 -54q-3 -7 -9 -7t-9 7 q-16 39 -46 54q-7 4 -7 9t7 9q22 10 29 39q6 27 22 54.5t41 38.5q14 6 18 -3t-5 -16q-34 -27 -34 -62q0 -11 7.5 -27t24.5 -24z" />
<glyph unicode="&#x201d;" horiz-adv-x="377" d="M124 545q-17 -58 -56 -80q-15 -9 -22 1q-6 9 6 19q32 26 32 49q0 26 -34 44q-7 4 -7 9t7 10q26 17 37 36q5 8 10 8t9 -8q9 -19 37 -36q7 -5 7 -10q0 -4 -7 -9q-13 -8 -19 -33zM317 545q-17 -58 -56 -80q-15 -9 -22 1q-6 9 6 19q32 26 32 49q0 26 -34 44q-7 4 -7 9t7 10 q26 17 37 36q5 8 10 8t9 -8q9 -19 37 -36q7 -5 7 -10q0 -4 -7 -9q-13 -8 -19 -33z" />
<glyph unicode="&#x201e;" horiz-adv-x="391" d="M52 43q-6 3 -6 9q0 4 7 9q23 15 38 54q3 7 9 7t9 -7q16 -39 46 -54q7 -3 7 -9t-7 -9q-22 -10 -29 -39q-6 -27 -22 -54.5t-41 -38.5q-14 -5 -18 3q-4 9 5 16q34 27 34 62q0 11 -7.5 27t-24.5 24zM247 43q-6 3 -6 9q0 4 7 9q23 15 38 54q3 7 9 7t9 -7q16 -39 46 -54 q7 -3 7 -9t-7 -9q-22 -10 -29 -39q-6 -27 -22 -54.5t-41 -38.5q-14 -5 -18 3q-4 9 5 16q34 27 34 62q0 11 -7.5 27t-24.5 24z" />
<glyph unicode="&#x2022;" horiz-adv-x="375" d="M188 222q-55 0 -93 38.5t-38 92.5t38 92.5t93 38.5q54 0 92 -38.5t38 -92.5t-38 -92.5t-92 -38.5z" />
<glyph unicode="&#x2026;" horiz-adv-x="689" d="M175 43q-31 -16 -46 -54q-3 -7 -9 -7t-9 7q-15 38 -46 54q-7 3 -7 9t7 9q31 16 46 54q3 7 9 7t9 -7q15 -38 46 -54q7 -3 7 -9t-7 -9zM405 43q-31 -16 -46 -54q-3 -7 -9 -7t-9 7q-15 38 -46 54q-7 3 -7 9t7 9q31 16 46 54q3 7 9 7t9 -7q15 -38 46 -54q7 -3 7 -9t-7 -9z M635 43q-31 -16 -46 -54q-3 -7 -9 -7t-9 7q-15 38 -46 54q-7 3 -7 9t7 9q31 16 46 54q3 7 9 7t9 -7q15 -38 46 -54q7 -3 7 -9t-7 -9z" />
<glyph unicode="&#x2030;" horiz-adv-x="924" d="M495 -1q-49 0 -82.5 32.5t-33.5 83.5q0 52 33.5 84.5t82.5 32.5t81 -32.5t32 -84.5t-32 -84t-81 -32zM164 307q-48 0 -82 33t-34 84q0 52 33.5 84.5t82.5 32.5q48 0 81 -32.5t33 -84.5t-33 -84.5t-81 -32.5zM494 203q-33 0 -50 -24t-17 -64t17 -64t50 -24q32 0 50 24.5 t18 63.5q0 40 -18 64t-50 24zM162 513q-32 0 -49 -24.5t-17 -64.5t17 -64t49 -24t50 24.5t18 63.5q0 40 -18 64.5t-50 24.5zM89 20q1 1 114.5 130t229.5 260t120 136q4 6 8 2l23 -20q3 -3 -1 -7q-68 -79 -465 -527q-4 -4 -6 -1l-24 21q-2 2 1 6zM776 -1q-49 0 -82.5 32.5 t-33.5 83.5q0 52 33.5 84.5t82.5 32.5t81 -32.5t32 -84.5t-32 -84t-81 -32zM775 203q-33 0 -50 -24t-17 -64t17 -64t50 -24q32 0 50 24.5t18 63.5q0 40 -18 64t-50 24z" />
<glyph unicode="&#x2039;" horiz-adv-x="236" d="M180 38q4 -8 -2 -11q-6 -4 -12 2q-23 24 -137 148q-4 4 -4 9t4 9q27 29 72 78t65 70q6 6 12 2q5 -4 2 -12q-4 -8 -76 -147q5 -10 16.5 -32.5t26.5 -52t33 -63.5z" />
<glyph unicode="&#x203a;" horiz-adv-x="236" d="M56 38q18 34 33 63.5t26.5 52t16.5 32.5q-72 139 -76 147q-3 8 2 12q6 4 12 -2q16 -17 137 -148q4 -4 4 -9t-4 -9q-94 -104 -137 -148q-6 -6 -12 -2q-5 4 -2 11z" />
<glyph unicode="&#x2044;" horiz-adv-x="308" d="M-49 -20l373 696q2 4 6 2l28 -15q3 -1 1 -6l-373 -696q-1 -1 -2.5 -2t-2.5 0l-28 15q-4 2 -2 6z" />
<glyph unicode="&#x20ac;" horiz-adv-x="565" d="M200 371h224q8 0 4 -7l-14 -28q-2 -4 -7 -4h-209q0 -40 1 -59h195q8 0 4 -7l-14 -28q-2 -4 -7 -4h-175q17 -203 136 -204q41 -1 72.5 32t58.5 100q5 9 13 9q10 0 8 -10q-2 -18 -6 -51.5t-8 -61.5q-2 -12 -8 -16q-59 -40 -133 -40q-97 0 -149 64t-61 178h-56q-6 0 -3 6 t8 17t6 12q2 4 7 4h36v59h-54q-6 0 -3 6q2 5 6.5 14l7.5 15q2 4 6 4h41q14 97 70 158.5t133 61.5q56 0 104 -25q6 -4 14 -4q7 0 16 15.5t15 15.5q12 0 12 -8v-156q0 -7 -9 -7q-10 0 -13 9q-13 46 -31 68q-23 29 -46 43t-63 14q-65 0 -94 -47.5t-35 -137.5z" />
<glyph unicode="&#x2122;" horiz-adv-x="658" d="M471 362q-5 -11 -11 0l-104 220v-58v-44.5v-39t0.5 -29.5t0.5 -21v-8q0 -3 2 -3h23q3 0 3 -3v-15q0 -4 -3 -4h-77q-3 0 -3 4v15q0 3 3 3h23q4 0 4 3v142v63q0 3 -2 3h-24q-3 0 -3 3v16q0 3 3 3h101q3 0 3 -3v-16q0 -3 -3 -3h-15q-3 0 0 -6q16 -36 79 -168l79 170q2 4 0 4 h-21q-3 0 -3 3v16q0 3 3 3h106q3 0 3 -3v-16q0 -3 -3 -3h-24q-3 0 -3 -3v-10.5t-0.5 -24t-0.5 -28.5q0 -24 0.5 -57t0.5 -57.5v-27.5t2 -3h25q3 0 3 -3v-15q0 -4 -3 -4h-85q-3 0 -3 4v15q0 3 3 3h24q3 0 3 3v142v65q-52 -112 -106 -227zM250 568q-6 22 -39 22h-50v-208 q0 -3 2 -3h30q3 0 3 -3v-16q0 -3 -3 -3h-95q-3 0 -3 3v16q0 3 3 3h30q2 0 2 3v208h-32q-52 0 -66 -23q-2 -5 -6 -5q-6 0 -5 6q4 11 5 17q6 26 8 33q1 6 6 6q4 0 5 -3q5 -9 19 -9h85h100q9 0 16 9q3 3 5 3q6 0 5 -6l-12 -51q-1 -5 -6 -5q-6 0 -7 6z" />
<glyph unicode="&#x25fc;" horiz-adv-x="370" d="M0 370h370v-370h-370v370z" />
<glyph unicode="&#xe220;" horiz-adv-x="645" d="M414 325h-35q-10 0 -10 8q0 5 9.5 14t20.5 19t20.5 30.5t9.5 45.5q0 45 -26.5 74.5t-67.5 29.5q-60 0 -89 -36t-29 -76q0 -28 32 -41q20 -8 25.5 -24t-4.5 -35q-11 -21 -33 -7q-35 28 -69 28q-42 0 -63.5 -41t-21.5 -91q0 -72 38.5 -121.5t108.5 -49.5q56 0 99 26 q8 5 11 5q12 0 6 -14q-16 -32 -55.5 -54.5t-78.5 -22.5q-91 0 -141.5 55t-50.5 137q0 77 49.5 140t122.5 73q-6 18 -6 36q0 62 46.5 109t108.5 47q66 0 102.5 -39.5t36.5 -119.5v-60h145h3q7 0 8.5 -1t-0.5 -9l-13 -27q-4 -8 -13 -8h-132v-207q0 -35 17 -54t46 -19 q40 0 75 27q6 5 10 5q5 0 6.5 -4.5t-1.5 -9.5q-18 -34 -53 -52.5t-74 -18.5q-44 0 -68 31t-23 76q1 181 1 226z" />
<glyph unicode="&#xfb01;" horiz-adv-x="476" d="M434 561q-14 0 -23.5 9.5t-9.5 23.5q0 15 10.5 26t25.5 11q14 0 24 -9.5t10 -22.5q0 -16 -11 -27t-26 -11zM398 377q0 -252 1 -321q0 -11 9 -11h47q5 0 5 -5v-36q0 -4 -5 -4h-166q-5 0 -5 4v36q0 5 5 5h35q8 0 8 12q2 100 2 232q0 18 -8.5 25.5t-28.5 10.5q-6 1 -6 11 q0 9 5 11l88 37q14 6 14 -7zM341 603q0 -20 -13.5 -29t-36.5 5q-32 23 -55.5 25t-51.5 -19q-21 -17 -30 -46t-9 -86v-83h109q4 0 4 -4v-37q0 -4 -5 -4h-108q0 -211 1 -270q0 -10 9 -10h59q5 0 5 -5v-36q0 -4 -5 -4h-190q-4 0 -4 4v36q0 5 4 5h47q8 0 8 10q3 174 3 270h-57 q-4 0 -4 4v37q0 4 5 4h56v62q0 92 56.5 151.5t137.5 59.5q65 0 65 -40z" />
<glyph horiz-adv-x="363" d="M92 45q70 27 132 27q50 0 77 -28t27 -70q0 -67 -48.5 -124.5t-131.5 -96.5q-14 -6 -18 9q-3 12 10 19q64 40 91.5 77t27.5 84q0 91 -106 91q-48 0 -107 -26q-11 -5 -11 3v19q0 5 5 8q103 64 155.5 113.5t52.5 105.5q0 33 -22.5 60t-63.5 27q-56 0 -99 -38q-10 -9 -17 -2 t3 19q60 67 141 67q61 0 94 -31.5t33 -81.5q0 -113 -225 -231z" />
<glyph horiz-adv-x="357" d="M84 325l-20 -100q138 -18 194 -75.5t56 -144.5q0 -77 -62 -152t-139 -103q-16 -5 -20 6q-5 14 7 21q64 36 103.5 95t39.5 120q0 90 -50 139.5t-150 64.5q-9 1 -7 10l32 166q1 5 8 5h162q28 1 39 9t24 39q4 10 12 10q9 0 8 -11q-2 -16 -7.5 -50t-7.5 -44q-1 -5 -6 -5h-216 z" />
<glyph horiz-adv-x="1291" d="M817 252h219q-72 186 -111 290q-6 -16 -108 -290zM1107 67q-1 2 -53 137h-255q-14 -36 -31 -83t-23 -61q-3 -5 -0.5 -8t5.5 -3.5t8 -0.5h41q5 0 5 -5v-38q0 -5 -5 -5h-137q-5 0 -5 5v38q0 5 5 5h12q13 0 18 14q176 453 213 556q1 3 4 3h57q2 0 4 -3q10 -26 102 -262 t116 -299q3 -9 12 -9h48q5 0 5 -5v-38q0 -5 -5 -5h-192q-4 0 -4 5v38q0 5 4 5h45q8 0 9 3t-3 16zM290 564q-14 1 -115 1q-2 -70 -2 -162v-100q100 0 129 6q110 22 110 132q0 48 -29.5 84t-92.5 39zM608 -12q-111 13 -194 90.5t-132 186.5q-38 -3 -109 -3q0 -139 2 -205 q0 -9 7 -9h61q5 0 5 -5v-38q0 -5 -4 -5h-209q-5 0 -5 4v39q0 5 5 5h60q7 0 7 9q1 44 1 346q0 117 -1 152q0 9 -7 9h-57q-5 0 -5 5v38q0 5 5 5q144 -2 227 -2q61 -1 105 -16t67.5 -41t34 -54.5t10.5 -61.5q0 -51 -33 -93t-93 -64q39 -89 103.5 -161.5t143.5 -103.5 q22 -9 22 -18q0 -12 -17 -9z" />
<glyph horiz-adv-x="684" d="M218 252h219q-72 186 -111 290q-6 -16 -108 -290zM508 67q-1 2 -53 137h-255q-14 -36 -31 -83t-23 -61q-3 -5 -0.5 -8t5.5 -3.5t8 -0.5h41q5 0 5 -5v-38q0 -5 -5 -5h-165q-5 0 -5 5v38q0 5 5 5h40q13 0 18 14q6 17 105 275t108 281q2 3 4 3h57q3 0 4 -3q10 -26 102 -262 t116 -299q3 -9 12 -9h48q5 0 5 -5v-38q0 -5 -5 -5h-192q-4 0 -4 5v38q0 5 4 5h45q8 0 9 3t-3 16zM348 841q16 -31 54 -46q7 -3 7 -9t-7 -9q-38 -15 -54 -46q-4 -7 -9 -7t-9 7q-16 31 -54 46q-7 3 -7 9t7 9q38 15 54 46q4 7 9 7t9 -7z" />
<glyph horiz-adv-x="565" d="M298 841q16 -31 54 -46q7 -3 7 -9t-7 -9q-38 -15 -54 -46q-4 -7 -9 -7t-9 7q-16 31 -54 46q-7 3 -7 9t7 9q38 15 54 46q4 7 9 7t9 -7zM502 5q-1 -5 -8 -5h-459q-5 0 -5 5v38q0 5 5 5h61q7 0 7 9q0 11 0.5 139t0.5 207q0 116 -1 151q0 10 -8 10h-60q-5 0 -5 4v39q0 5 5 5 h470q5 0 5 -6q0 -65 3 -125q1 -11 -10 -11q-10 0 -15.5 14.5t-8.5 32.5t-19.5 32.5t-45.5 14.5h-239v-237q37 0 121.5 1.5t105.5 1.5l1 66q0 5 4 5h35q5 0 5 -5v-5q0 -5 -0.5 -14t-0.5 -20v-25.5v-27.5v-43v-35l1 -14q0 -5 -5 -5h-35q-4 0 -4 5q-1 9 -1 26v43 q-20 0 -104.5 1t-122.5 1v-235h158q90 0 129 24q26 15 49 64q5 9 14 9q12 0 9 -12q-1 -5 -5 -20t-12 -48t-15 -60z" />
<glyph horiz-adv-x="683" d="M580 554q-1 -35 -3 -147q0 -20 0.5 -76.5t-0.5 -95t-5 -57.5q-12 -65 -51 -108t-86.5 -60.5t-102.5 -17.5q-83 0 -148 49t-73 137q-2 25 -2 229q0 112 -1 147q0 10 -7 10h-61q-5 0 -5 4v39q0 5 5 5h211q4 0 4 -5v-39q0 -4 -4 -4h-62q-7 0 -7 -10q-2 -70 -2 -147 q0 -179 6 -229q6 -62 50.5 -99.5t108.5 -37.5q72 0 121.5 42t54.5 112q2 26 5 212q1 34 0 87.5t-1 59.5q0 10 -8 10h-61q-5 0 -5 4v39q0 5 5 5h192q5 0 5 -5v-39q0 -4 -5 -4h-61q-7 0 -7 -10zM362 841q16 -31 54 -46q7 -3 7 -9t-7 -9q-38 -15 -54 -46q-4 -7 -9 -7t-9 7 q-16 31 -54 46q-7 3 -7 9t7 9q38 15 54 46q4 7 9 7t9 -7z" />
<glyph d="M346 -8q-136 0 -224.5 92.5t-88.5 227.5q0 136 89 222.5t219 86.5q135 0 224 -92.5t89 -227.5q0 -137 -87.5 -223t-220.5 -86zM353 43q109 0 167.5 71t58.5 176q0 113 -72 197.5t-191 84.5q-99 0 -153.5 -72t-54.5 -173q0 -110 67 -197t178 -87zM353 841q16 -31 54 -46 q7 -3 7 -9t-7 -9q-38 -15 -54 -46q-3 -7 -9 -7t-9 7q-16 31 -54 46q-7 3 -7 9t7 9q38 15 54 46q3 7 9 7t9 -7z" />
<glyph horiz-adv-x="704" d="M326 194q-14 22 -57.5 95t-94 158t-64.5 108q-6 9 -19 9h-56q-5 0 -5 5v39q0 4 5 4h223q4 0 4 -4v-39q0 -5 -4 -5h-62q-7 0 -3 -6q111 -194 181 -312q135 238 173 303q6 11 4.5 13t-13.5 2h-49q-4 0 -4 5v39q0 4 4 4h180q5 0 5 -4v-39q0 -5 -5 -5h-38q-13 0 -17.5 -2.5 t-11.5 -14.5q-15 -25 -45.5 -77.5t-69.5 -119t-91 -156.5q0 -24 0.5 -56.5t1 -51.5t0.5 -29q0 -9 7 -9h60q5 0 5 -5v-38q0 -5 -5 -5h-208q-4 0 -4 5v38q0 5 5 5h60q7 0 7 9q0 74 1 137zM385 841q16 -31 54 -46q7 -3 7 -9t-7 -9q-38 -15 -54 -46q-3 -7 -9 -7t-9 7 q-16 31 -54 46q-7 3 -7 9t7 9q38 15 54 46q3 7 9 7t9 -7z" />
<glyph horiz-adv-x="502" d="M281 841q16 -31 54 -46q7 -3 7 -9t-7 -9q-38 -15 -54 -46q-3 -7 -9 -7t-9 7q-16 31 -54 46q-7 3 -7 9t7 9q38 15 54 46q3 7 9 7t9 -7zM385 593q14 -8 23 -4.5t23 26.5q4 5 10 5q10 0 10 -8v-152q0 -11 -9 -11q-11 0 -14 10q-15 46 -59 82.5t-121 36.5q-48 0 -79.5 -24 t-31.5 -63q0 -50 35.5 -76.5t130.5 -64.5q169 -67 169 -197q0 -61 -59 -111t-156 -50q-53 0 -106 18q-24 11 -37.5 10t-26.5 -21q-5 -7 -11 -7q-10 0 -12 13q-15 71 -38 156q-4 12 9 12q9 0 13 -9q56 -124 220 -124q61 0 96.5 32t35.5 70q0 55 -40.5 88.5t-120.5 65.5 q-79 32 -120.5 72.5t-41.5 103.5q0 59 49.5 104t128.5 45q71 0 130 -28z" />
<glyph horiz-adv-x="565" d="M421 841q16 -31 54 -46q7 -3 7 -9t-7 -9q-38 -15 -54 -46q-3 -7 -9 -7t-9 7q-16 31 -54 46q-7 3 -7 9t7 9q38 15 54 46q3 7 9 7t9 -7zM155 841q16 -31 54 -46q7 -3 7 -9t-7 -9q-38 -15 -54 -46q-3 -7 -9 -7t-9 7q-16 31 -54 46q-7 3 -7 9t7 9q38 15 54 46q3 7 9 7t9 -7z M502 5q-1 -5 -8 -5h-459q-5 0 -5 5v38q0 5 5 5h61q7 0 7 9q0 11 0.5 139t0.5 207q0 116 -1 151q0 10 -8 10h-60q-5 0 -5 4v39q0 5 5 5h470q5 0 5 -6q0 -65 3 -125q1 -11 -10 -11q-10 0 -15.5 14.5t-8.5 32.5t-19.5 32.5t-45.5 14.5h-239v-237q37 0 121.5 1.5t105.5 1.5l1 66 q0 5 4 5h35q5 0 5 -5v-5q0 -5 -0.5 -14t-0.5 -20v-25.5v-27.5v-43v-35l1 -14q0 -5 -5 -5h-35q-4 0 -4 5q-1 9 -1 26v43q-20 0 -104.5 1t-122.5 1v-235h158q90 0 129 24q26 15 49 64q5 9 14 9q12 0 9 -12q-1 -5 -5 -20t-12 -48t-15 -60z" />
<glyph horiz-adv-x="684" d="M218 252h219q-72 186 -111 290q-6 -16 -108 -290zM508 67q-1 2 -53 137h-255q-14 -36 -31 -83t-23 -61q-3 -5 -0.5 -8t5.5 -3.5t8 -0.5h41q5 0 5 -5v-38q0 -5 -5 -5h-165q-5 0 -5 5v38q0 5 5 5h40q13 0 18 14q6 17 105 275t108 281q2 3 4 3h57q3 0 4 -3q10 -26 102 -262 t116 -299q3 -9 12 -9h48q5 0 5 -5v-38q0 -5 -5 -5h-192q-4 0 -4 5v38q0 5 4 5h45q8 0 9 3t-3 16zM481 841q16 -31 54 -46q7 -3 7 -9t-7 -9q-38 -15 -54 -46q-3 -7 -9 -7t-9 7q-16 31 -54 46q-7 3 -7 9t7 9q38 15 54 46q3 7 9 7t9 -7zM215 841q16 -31 54 -46q7 -3 7 -9t-7 -9 q-38 -15 -54 -46q-3 -7 -9 -7t-9 7q-16 31 -54 46q-7 3 -7 9t7 9q38 15 54 46q3 7 9 7t9 -7z" />
<glyph horiz-adv-x="683" d="M580 554q-1 -35 -3 -147q0 -20 0.5 -76.5t-0.5 -95t-5 -57.5q-12 -65 -51 -108t-86.5 -60.5t-102.5 -17.5q-83 0 -148 49t-73 137q-2 25 -2 229q0 112 -1 147q0 10 -7 10h-61q-5 0 -5 4v39q0 5 5 5h211q4 0 4 -5v-39q0 -4 -4 -4h-62q-7 0 -7 -10q-2 -70 -2 -147 q0 -179 6 -229q6 -62 50.5 -99.5t108.5 -37.5q72 0 121.5 42t54.5 112q2 26 5 212q1 34 0 87.5t-1 59.5q0 10 -8 10h-61q-5 0 -5 4v39q0 5 5 5h192q5 0 5 -5v-39q0 -4 -5 -4h-61q-7 0 -7 -10zM499 841q16 -31 54 -46q7 -3 7 -9t-7 -9q-38 -15 -54 -46q-3 -7 -9 -7t-9 7 q-16 31 -54 46q-7 3 -7 9t7 9q38 15 54 46q3 7 9 7t9 -7zM233 841q16 -31 54 -46q7 -3 7 -9t-7 -9q-38 -15 -54 -46q-3 -7 -9 -7t-9 7q-16 31 -54 46q-7 3 -7 9t7 9q38 15 54 46q3 7 9 7t9 -7z" />
<glyph d="M784 -236q-98 0 -198 36.5t-163 80.5t-114.5 83t-59.5 41q-104 36 -160 120.5t-56 186.5q0 136 89 222.5t219 86.5q135 0 224 -92.5t89 -227.5q0 -120 -71.5 -205t-186.5 -103q147 -138 338.5 -163t393.5 72q5 2 5 -3v-48q0 -3 -3 -5q-175 -85 -346 -82zM353 43 q109 0 167.5 71t58.5 176q0 113 -72 197.5t-191 84.5q-99 0 -153.5 -72t-54.5 -173q0 -110 67 -197t178 -87z" />
<glyph horiz-adv-x="704" d="M326 194q-14 22 -57.5 95t-94 158t-64.5 108q-6 9 -19 9h-56q-5 0 -5 5v39q0 4 5 4h223q4 0 4 -4v-39q0 -5 -4 -5h-62q-7 0 -3 -6q111 -194 181 -312q135 238 173 303q6 11 4.5 13t-13.5 2h-49q-4 0 -4 5v39q0 4 4 4h180q5 0 5 -4v-39q0 -5 -5 -5h-38q-13 0 -17.5 -2.5 t-11.5 -14.5q-15 -25 -45.5 -77.5t-69.5 -119t-91 -156.5q0 -24 0.5 -56.5t1 -51.5t0.5 -29q0 -9 7 -9h60q5 0 5 -5v-38q0 -5 -5 -5h-208q-4 0 -4 5v38q0 5 5 5h60q7 0 7 9q0 74 1 137zM495 693q-21 -14 -32 -37q-5 -7 -11 -7q-7 0 -9 7q-13 24 -33 37q-8 3 -8 10q0 1 7 8 q13 8 18.5 14.5t14.5 22.5q2 7 10 7t10 -7q12 -24 33 -37q7 -7 7 -9q0 -7 -7 -9zM338 693q-13 -8 -18.5 -14.5t-14.5 -22.5q-2 -7 -10 -7q-5 0 -10 7q-12 24 -32 37q-8 3 -8 10q0 3 7 8q21 14 33 37q2 7 10 7q5 0 10 -7q12 -24 32 -37q8 -5 8 -9q0 -6 -7 -9z" />
<glyph horiz-adv-x="1122" d="M989 95q2 158 2 176q0 24 -7 31t-38 12q-5 1 -5 9q0 9 4 11l94 49q7 4 11.5 2t4.5 -8q0 -238 1 -307q0 -9 9 -9h39q5 0 5 -6v-9q0 -5 -4 -6q-74 -31 -100 -45q-17 -9 -17 7l1 63q-87 -73 -151 -73q-49 0 -69 35.5t-19 81.5q2 111 2 164q0 24 -7.5 30t-37.5 11q-5 1 -5 9 q0 9 4 11l94 49q8 4 12 2t4 -8v-263q0 -70 76 -70q19 0 48 14.5t49 36.5zM778 -236q-98 0 -198 36.5t-163 80.5t-114.5 83t-59.5 41q-104 36 -160 120.5t-56 186.5q0 136 89 222.5t219 86.5q135 0 224 -92.5t89 -227.5q0 -120 -71.5 -205t-186.5 -103q147 -138 338.5 -163 t393.5 72q5 2 5 -3v-48q0 -3 -3 -5q-175 -85 -346 -82zM347 43q109 0 167.5 71t58.5 176q0 113 -72 197.5t-191 84.5q-99 0 -153.5 -72t-54.5 -173q0 -110 67 -197t178 -87z" />
<glyph horiz-adv-x="268" d="M28 293h224q5 0 5 -4v-32q0 -4 -5 -4h-224q-4 0 -4 4v32q0 4 4 4zM198 339q-17 0 -29.5 10.5t-15.5 29.5q-51 -40 -84 -40q-22 0 -35.5 14.5t-13.5 35.5q0 41 40 65q31 19 94 30v35q0 53 -43 53q-25 0 -50 -25q-11 -11 -18 -5q-11 7 1 21q42 49 89 49q39 0 54.5 -25 t15.5 -57v-126q0 -24 17 -24q16 0 28 12q4 4 8 4q10 0 6 -13q-6 -16 -24.5 -30t-39.5 -14zM95 443q-23 -16 -23 -38q0 -11 7.5 -18t18.5 -7q28 0 55 23l1 60q-42 -8 -59 -20z" />
<glyph horiz-adv-x="319" d="M159 341q-55 0 -93.5 38.5t-38.5 93.5q0 56 39 97.5t93 41.5q55 0 94 -41.5t39 -97.5q0 -55 -39 -93.5t-94 -38.5zM161 581q-40 0 -62 -32.5t-22 -75.5q0 -42 22 -72t62 -30q37 0 57.5 30t20.5 72q0 43 -21 75.5t-57 32.5zM35 293h248q5 0 5 -4v-32q0 -4 -5 -4h-248 q-4 0 -4 4v32q0 4 4 4z" />
<glyph d="M784 -236q-98 0 -198 36.5t-163 80.5t-114.5 83t-59.5 41q-104 36 -160 120.5t-56 186.5q0 136 89 222.5t219 86.5q135 0 224 -92.5t89 -227.5q0 -120 -71.5 -205t-186.5 -103q84 -79 185.5 -123t207.5 -44q183 -5 374 84q5 2 5 -3v-48q0 -3 -3 -5q-174 -90 -381 -90z M353 43q109 0 167.5 71t58.5 176q0 113 -72 197.5t-191 84.5q-99 0 -153.5 -72t-54.5 -173q0 -110 67 -197t178 -87z" />
<glyph d="M346 -8q-136 0 -224.5 92.5t-88.5 227.5q0 136 89 222.5t219 86.5q135 0 224 -92.5t89 -227.5q0 -137 -87.5 -223t-220.5 -86zM353 43q109 0 167.5 71t58.5 176q0 113 -72 197.5t-191 84.5q-99 0 -153.5 -72t-54.5 -173q0 -110 67 -197t178 -87zM211 724q-4 0 -8 6 q-21 34 -55 48q-7 4 -7 9t7 9q34 14 55 48q4 6 8 6t8 -6q21 -34 55 -48q7 -4 7 -9t-7 -9q-34 -14 -55 -48q-4 -6 -8 -6zM477 724q-4 0 -8 6q-21 34 -55 48q-7 4 -7 9t7 9q34 14 55 48q4 6 8 6t8 -6q21 -34 55 -48q7 -4 7 -9t-7 -9q-34 -14 -55 -48q-4 -6 -8 -6z" />
<glyph horiz-adv-x="1364" d="M1253 554q-3 -102 -3 -147q0 -20 0.5 -76.5t-0.5 -95t-5 -57.5q-18 -95 -86 -140.5t-154 -45.5q-83 0 -148.5 49t-72.5 137q-2 18 -2 229q0 31 -0.5 81.5t-0.5 65.5q-1 10 -7 10h-61q-5 0 -5 4v39q0 5 5 5h211q4 0 4 -5v-39q0 -4 -4 -4h-62q-7 0 -7 -10q-2 -70 -2 -147 q0 -179 6 -229q6 -62 50.5 -99.5t108.5 -37.5q72 0 121 42t55 112q2 26 5 212q0 32 -0.5 82.5t-0.5 64.5q0 10 -8 10h-61q-5 0 -5 4v39q0 5 5 5h192q5 0 5 -5v-39q0 -4 -5 -4h-61q-7 0 -7 -10zM778 -236q-98 0 -198 36.5t-163 80.5t-114.5 83t-59.5 41q-104 36 -160 120.5 t-56 186.5q0 136 89 222.5t219 86.5q135 0 224 -92.5t89 -227.5q0 -120 -71.5 -205t-186.5 -103q84 -79 185.5 -123t207.5 -44q183 -5 374 84q5 2 5 -3v-48q0 -3 -3 -5q-174 -90 -381 -90zM347 43q109 0 167.5 71t58.5 176q0 113 -72 197.5t-191 84.5q-99 0 -153.5 -72 t-54.5 -173q0 -110 67 -197t178 -87z" />
<glyph horiz-adv-x="378" d="M222 481q0 -5 -8 -10q-21 -12 -33 -37q-3 -7 -9 -7t-9 7q-12 25 -33 37q-8 5 -8 10t8 10q21 12 33 37q3 7 9 7t9 -7q12 -25 33 -37q8 -5 8 -10zM218 169q-50 -8 -92 -32q-37 -21 -37 -52q0 -17 12.5 -28.5t30.5 -11.5q46 0 85 40q1 65 1 84zM151 325q-45 0 -84 -39 q-9 -9 -16 -3q-9 7 2 20q26 31 62 49.5t71 18.5q50 0 73.5 -36t23.5 -81q0 -121 1 -170q0 -39 25 -39q22 0 48 18q7 5 11 5q10 0 5 -12q-12 -25 -38 -44.5t-56 -19.5q-25 0 -43 18.5t-21 47.5q-24 -23 -62.5 -44.5t-69.5 -21.5q-26 0 -44.5 19.5t-18.5 50.5q0 56 61 87 q42 21 137 43l1 46q0 42 -18 64.5t-50 22.5z" />
<glyph horiz-adv-x="700" d="M350 622q131 0 223 -92t92 -223t-92 -223t-223 -92t-223 92t-92 223t92 223t223 92zM350 590q-116 0 -200 -83.5t-84 -199.5q0 -117 84 -200.5t200 -83.5q117 0 200 83.5t83 200.5q0 116 -83 199.5t-200 83.5zM449 484q12 -5 17 -4t13 14q3 4 7 4q6 0 6 -5q3 -55 8 -93 q1 -4 -0.5 -5t-6.5 -1t-10 11q-18 32 -53.5 51.5t-79.5 19.5q-64 0 -105.5 -46t-41.5 -114q0 -73 43.5 -126t113.5 -53q69 0 109 53q11 16 15 26q3 6 8 6q7 0 6 -6q-4 -20 -9 -67q-1 -7 -5 -9q-23 -15 -61.5 -25t-67.5 -10q-85 0 -142.5 56.5t-57.5 142.5q0 87 55 143 t143 56q46 0 96 -19z" />
<glyph horiz-adv-x="277" d="M242 0h-208q-4 0 -4 5v38q0 5 5 5h60q7 0 7 9q1 44 1 346q0 25 -0.5 61.5t-0.5 63.5v26q0 10 -7 10h-60q-5 0 -5 4v39q0 5 5 5h207q5 0 5 -5v-39q0 -4 -5 -4h-60q-7 0 -7 -10q0 -1 -0.5 -27t-1 -62.5t-0.5 -61.5q0 -258 2 -346q0 -9 7 -9h60q5 0 5 -5v-38q0 -5 -5 -5z M147 841q16 -31 54 -46q7 -3 7 -9t-7 -9q-38 -15 -54 -46q-3 -7 -9 -7t-9 7q-16 31 -54 46q-7 3 -7 9t7 9q38 15 54 46q3 7 9 7t9 -7z" />
<glyph horiz-adv-x="277" d="M242 0h-208q-4 0 -4 5v38q0 5 5 5h60q7 0 7 9q1 44 1 346q0 25 -0.5 61.5t-0.5 63.5v26q0 10 -7 10h-60q-5 0 -5 4v39q0 5 5 5h207q5 0 5 -5v-39q0 -4 -5 -4h-60q-7 0 -7 -10q0 -1 -0.5 -27t-1 -62.5t-0.5 -61.5q0 -258 2 -346q0 -9 7 -9h60q5 0 5 -5v-38q0 -5 -5 -5z M280 841q16 -31 54 -46q7 -3 7 -9t-7 -9q-38 -15 -54 -46q-4 -7 -9 -7t-9 7q-16 31 -54 46q-7 3 -7 9t7 9q38 15 54 46q4 7 9 7t9 -7zM14 841q16 -31 54 -46q7 -3 7 -9t-7 -9q-38 -15 -54 -46q-4 -7 -9 -7t-9 7q-16 31 -54 46q-7 3 -7 9t7 9q38 15 54 46q4 7 9 7t9 -7z" />
</font>
</defs>
</svg>
