<?xml version="1.0" standalone="no"?>
<!DOCTYPE svg PUBLIC "-//W3C//DTD SVG 20010904//EN"
 "http://www.w3.org/TR/2001/REC-SVG-20010904/DTD/svg10.dtd">
<svg version="1.0" xmlns="http://www.w3.org/2000/svg"
 width="160.000000pt" height="160.000000pt" viewBox="0 0 160.000000 160.000000"
 preserveAspectRatio="xMidYMid meet">
<metadata>
Created by potrace 1.11, written by Peter Selinger 2001-2013
</metadata>
<g transform="translate(0.000000,160.000000) scale(0.100000,-0.100000)"
fill="#000000" stroke="none">
<path d="M0 800 l0 -800 800 0 800 0 0 800 0 800 -800 0 -800 0 0 -800z m318
348 c-3 -29 -7 -34 -39 -38 l-36 -5 98 -170 c55 -93 102 -171 107 -172 5 -2
186 302 200 339 2 4 -12 8 -32 8 -34 0 -36 2 -36 35 l0 35 115 0 115 0 0 -35
c0 -34 -1 -35 -37 -35 l-38 0 -127 -219 -128 -220 0 -80 0 -80 43 -3 c39 -3
42 -5 45 -36 l3 -32 -135 0 -136 0 0 35 c0 34 1 35 39 35 l38 0 6 78 6 77
-132 222 -131 222 -46 3 c-43 3 -45 5 -48 36 l-3 32 146 0 146 0 -3 -32z m952
-258 c22 -6 38 -6 44 0 26 26 36 10 36 -60 0 -79 -17 -94 -45 -40 -21 40 -57
62 -101 62 -43 0 -69 -21 -60 -50 4 -11 47 -50 96 -87 48 -36 95 -76 103 -89
42 -63 22 -146 -43 -178 -39 -20 -124 -24 -165 -8 -18 7 -31 6 -45 -2 -10 -7
-21 -10 -24 -8 -2 3 -6 36 -8 75 -2 56 0 70 12 73 9 1 21 -10 28 -27 37 -84
182 -97 182 -17 0 25 -51 77 -133 136 -55 39 -77 74 -77 120 0 86 91 131 200
100z m-360 -20 c36 -18 90 -84 90 -109 0 -9 -64 -31 -223 -76 -52 -15 -57 -19
-51 -38 33 -108 121 -158 214 -123 63 23 65 23 62 1 -4 -29 -69 -84 -109 -91
-95 -18 -187 24 -233 106 -20 37 -24 58 -24 120 1 94 29 159 87 201 50 36 126
40 187 9z m620 -322 l37 -43 -36 -42 c-40 -47 -57 -53 -66 -23 -3 11 -17 28
-31 39 -30 24 -30 35 0 55 14 8 27 25 31 36 9 30 23 25 65 -22z"/>
<path d="M757 824 c-25 -24 -44 -80 -36 -103 4 -8 143 29 156 42 10 10 -27 64
-52 75 -35 16 -39 16 -68 -14z"/>
</g>
</svg>
